{
copyright = "Copyright (c) 2015, Cadson Demak (info@cadsondemak.com)";
customParameters = (
{
name = vendorID;
value = CDK;
},
{
name = description;
value = "New Parameter";
},
{
name = license;
value = "New Parameter";
},
{
name = licenseURL;
value = "New Parameter";
},
{
name = fsType;
value = "New Parameter";
}
);
date = "2015-10-21 12:08:52 +0000";
designer = "Katatrad Team";
designerURL = www.katatrad.com;
familyName = "Taviraj";
featurePrefixes = (
{
automatic = 1;
code = "languagesystem DFLT dflt;\012languagesystem latn dflt;\012languagesystem thai dflt;\012languagesystem latn ROM;\012languagesystem latn MOL;\012languagesystem latn CAT;\012";
name = Languagesystems;
}
);
features = (
{
automatic = 1;
code = "feature ccmp;\012feature locl;\012feature subs;\012feature sups;\012feature frac;\012feature ordn;\012";
name = aalt;
},
{

glyphs = (
{
glyphname = A;
lastChange = "2015-10-21 17:12:07 +0000";
layers = (
{
layerId = "4BDFF818-6971-4FC7-918A-7FEEE3878A0A";
name = "Light Italic";
paths = (
{
closed = 1;
nodes = (
"165 0 LINE",
"169 22 LINE",
"153 22 LINE SMOOTH",
"133 22 OFFCURVE",
"108 32 OFFCURVE",
"108 51 CURVE SMOOTH",
"108 55 OFFCURVE",
"109 60 OFFCURVE",
"113 66 CURVE SMOOTH",
"417 608 LINE",
"494 47 LINE",
"497 31 OFFCURVE",
"462 22 OFFCURVE",
"439 22 CURVE SMOOTH",
"424 22 LINE",
"420 0 LINE",
"642 0 LINE",
"646 22 LINE",
"630 22 LINE SMOOTH",
"607 22 OFFCURVE",
"580 35 OFFCURVE",
"576 57 CURVE SMOOTH",
"472 712 LINE",
"413 686 LINE",
"58 57 LINE",
"45 37 OFFCURVE",
"9 22 OFFCURVE",
"-15 22 CURVE SMOOTH",
"-30 22 LINE",
"-34 0 LINE"
);
},
{
closed = 1;
nodes = (
"493 217 LINE",
"500 252 LINE",
"191 252 LINE",
"184 217 LINE"
);
}
);
width = 685;
}
);
leftKerningGroup = A;
note = A;
rightKerningGroup = A;
unicode = 0041;
},
{
glyphname = Aacute;
lastChange = "2015-10-21 17:12:07 +0000";
layers = (
{
layerId = "4BDFF818-6971-4FC7-918A-7FEEE3878A0A";
name = "Light Italic";
paths = (
{
closed = 1;
nodes = (
"165 0 LINE",
"169 22 LINE",
"153 22 LINE SMOOTH",
"133 22 OFFCURVE",
"108 32 OFFCURVE",
"108 51 CURVE SMOOTH",
"108 55 OFFCURVE",
"109 60 OFFCURVE",
"113 66 CURVE SMOOTH",
"417 608 LINE",
"494 47 LINE",
"497 31 OFFCURVE",
"462 22 OFFCURVE",
"439 22 CURVE SMOOTH",
"424 22 LINE",
"420 0 LINE",
"642 0 LINE",
"646 22 LINE",
"630 22 LINE SMOOTH",
"607 22 OFFCURVE",
"580 35 OFFCURVE",
"576 57 CURVE SMOOTH",
"472 712 LINE",
"413 686 LINE",
"58 57 LINE",
"45 37 OFFCURVE",
"9 22 OFFCURVE",
"-15 22 CURVE SMOOTH",
"-30 22 LINE",
"-34 0 LINE"
);
},
{
closed = 1;
nodes = (
"493 217 LINE",
"500 252 LINE",
"191 252 LINE",
"184 217 LINE"
);
},
{
closed = 1;
nodes = (
"540 863 LINE SMOOTH",
"559 873 OFFCURVE",
"571 885 OFFCURVE",
"574 899 CURVE",
"576 912 OFFCURVE",
"571 924 OFFCURVE",
"555 924 CURVE SMOOTH",
"539 924 OFFCURVE",
"521 911 OFFCURVE",
"513 904 CURVE SMOOTH",
"383 804 LINE",
"393 784 LINE"
);
}
);
width = 685;
}
);
leftKerningGroup = A;
note = Aacute;
rightKerningGroup = A;
unicode = 00C1;
},
{
glyphname = Abreve;
lastChange = "2015-10-21 17:12:08 +0000";
layers = (
{
layerId = "4BDFF818-6971-4FC7-918A-7FEEE3878A0A";
name = "Light Italic";
paths = (
{
closed = 1;
nodes = (
"165 0 LINE",
"169 22 LINE",
"153 22 LINE SMOOTH",
"133 22 OFFCURVE",
"108 32 OFFCURVE",
"108 51 CURVE SMOOTH",
"108 55 OFFCURVE",
"109 60 OFFCURVE",
"113 66 CURVE SMOOTH",
"417 608 LINE",
"494 47 LINE",
"497 31 OFFCURVE",
"462 22 OFFCURVE",
"439 22 CURVE SMOOTH",
"424 22 LINE",
"420 0 LINE",
"642 0 LINE",
"646 22 LINE",
"630 22 LINE SMOOTH",
"607 22 OFFCURVE",
"580 35 OFFCURVE",
"576 57 CURVE SMOOTH",
"472 712 LINE",
"413 686 LINE",
"58 57 LINE",
"45 37 OFFCURVE",
"9 22 OFFCURVE",
"-15 22 CURVE SMOOTH",
"-30 22 LINE",
"-34 0 LINE"
);
},
{
closed = 1;
nodes = (
"493 217 LINE",
"500 252 LINE",
"191 252 LINE",
"184 217 LINE"
);
},
{
closed = 1;
nodes = (
"548 776 OFFCURVE",
"601 825 OFFCURVE",
"621 901 CURVE",
"591 901 LINE",
"571 835 OFFCURVE",
"523 815 OFFCURVE",
"469 815 CURVE SMOOTH",
"416 815 OFFCURVE",
"374 835 OFFCURVE",
"380 901 CURVE",
"351 901 LINE",
"350 891 OFFCURVE",
"349 882 OFFCURVE",
"349 873 CURVE SMOOTH",
"349 812 OFFCURVE",
"385 776 OFFCURVE",
"462 776 CURVE SMOOTH"
);
}
);
width = 685;
}
);
leftKerningGroup = A;
note = Abreve;
rightKerningGroup = A;
unicode = 0102;
},
{
glyphname = Abreveacute;
lastChange = "2015-10-21 17:12:07 +0000";
layers = (
{
layerId = "4BDFF818-6971-4FC7-918A-7FEEE3878A0A";
name = "Light Italic";
paths = (
{
closed = 1;
nodes = (
"165 0 LINE",
"169 22 LINE",
"153 22 LINE SMOOTH",
"133 22 OFFCURVE",
"108 32 OFFCURVE",
"108 51 CURVE SMOOTH",
"108 55 OFFCURVE",
"109 60 OFFCURVE",
"113 66 CURVE SMOOTH",
"417 608 LINE",
"494 47 LINE",
"497 31 OFFCURVE",
"462 22 OFFCURVE",
"439 22 CURVE SMOOTH",
"424 22 LINE",
"420 0 LINE",
"642 0 LINE",
"646 22 LINE",
"630 22 LINE SMOOTH",
"607 22 OFFCURVE",
"580 35 OFFCURVE",
"576 57 CURVE SMOOTH",
"472 712 LINE",
"413 686 LINE",
"58 57 LINE",
"45 37 OFFCURVE",
"9 22 OFFCURVE",
"-15 22 CURVE SMOOTH",
"-30 22 LINE",
"-34 0 LINE"
);
},
{
closed = 1;
nodes = (
"493 217 LINE",
"500 252 LINE",
"191 252 LINE",
"184 217 LINE"
);
},
{
closed = 1;
nodes = (
"549 779 OFFCURVE",
"602 828 OFFCURVE",
"622 904 CURVE",
"593 904 LINE",
"573 839 OFFCURVE",
"524 819 OFFCURVE",
"470 819 CURVE SMOOTH",
"420 819 OFFCURVE",
"381 836 OFFCURVE",
"381 891 CURVE SMOOTH",
"381 895 OFFCURVE",
"381 899 OFFCURVE",
"382 904 CURVE",
"353 904 LINE",
"351 894 OFFCURVE",
"350 884 OFFCURVE",
"350 875 CURVE SMOOTH",
"350 814 OFFCURVE",
"387 779 OFFCURVE",
"462 779 CURVE SMOOTH"
);
},
{
closed = 1;
nodes = (
"594 962 LINE SMOOTH",
"614 972 OFFCURVE",
"627 985 OFFCURVE",
"630 998 CURVE",
"632 1011 OFFCURVE",
"625 1024 OFFCURVE",
"609 1024 CURVE SMOOTH",
"593 1024 OFFCURVE",
"576 1011 OFFCURVE",
"565 1002 CURVE SMOOTH",
"453 911 LINE",
"463 893 LINE"
);
}
);
width = 685;
}
);
leftKerningGroup = A;
note = Abreveacute;
rightKerningGroup = A;
unicode = 1EAE;
},
{
glyphname = Abrevedotbelow;
lastChange = "2015-10-21 17:12:08 +0000";
layers = (
{
layerId = "4BDFF818-6971-4FC7-918A-7FEEE3878A0A";
name = "Light Italic";
paths = (
{
closed = 1;
nodes = (
"165 0 LINE",
"169 22 LINE",
"153 22 LINE SMOOTH",
"133 22 OFFCURVE",
"108 32 OFFCURVE",
"108 51 CURVE SMOOTH",
"108 55 OFFCURVE",
"109 60 OFFCURVE",
"113 66 CURVE SMOOTH",
"417 608 LINE",
"494 47 LINE",
"497 31 OFFCURVE",
"462 22 OFFCURVE",
"439 22 CURVE SMOOTH",
"424 22 LINE",
"420 0 LINE",
"642 0 LINE",
"646 22 LINE",
"630 22 LINE SMOOTH",
"607 22 OFFCURVE",
"580 35 OFFCURVE",
"576 57 CURVE SMOOTH",
"472 712 LINE",
"413 686 LINE",
"58 57 LINE",
"45 37 OFFCURVE",
"9 22 OFFCURVE",
"-15 22 CURVE SMOOTH",
"-30 22 LINE",
"-34 0 LINE"
);
},
{
closed = 1;
nodes = (
"300 -147 OFFCURVE",
"323 -126 OFFCURVE",
"323 -95 CURVE SMOOTH",
"323 -76 OFFCURVE",
"311 -64 OFFCURVE",
"291 -64 CURVE SMOOTH",
"265 -64 OFFCURVE",
"242 -86 OFFCURVE",
"242 -116 CURVE SMOOTH",
"242 -135 OFFCURVE",
"253 -147 OFFCURVE",
"274 -147 CURVE SMOOTH"
);
},
{
closed = 1;
nodes = (
"493 217 LINE",
"500 252 LINE",
"191 252 LINE",
"184 217 LINE"
);
},
{
closed = 1;
nodes = (
"549 779 OFFCURVE",
"602 828 OFFCURVE",
"622 904 CURVE",
"592 904 LINE",
"572 838 OFFCURVE",
"524 818 OFFCURVE",
"470 818 CURVE SMOOTH",
"417 818 OFFCURVE",
"375 838 OFFCURVE",
"381 904 CURVE",
"352 904 LINE",
"351 894 OFFCURVE",
"350 885 OFFCURVE",
"350 876 CURVE SMOOTH",
"350 815 OFFCURVE",
"386 779 OFFCURVE",
"463 779 CURVE SMOOTH"
);
}
);
width = 685;
}
);
leftKerningGroup = A;
note = Abrevedotbelow;
rightKerningGroup = A;
unicode = 1EB6;
},
{
glyphname = Abrevegrave;
lastChange = "2015-10-21 17:12:07 +0000";
layers = (
{
layerId = "4BDFF818-6971-4FC7-918A-7FEEE3878A0A";
name = "Light Italic";
paths = (
{
closed = 1;
nodes = (
"165 0 LINE",
"169 22 LINE",
"153 22 LINE SMOOTH",
"133 22 OFFCURVE",
"108 32 OFFCURVE",
"108 51 CURVE SMOOTH",
"108 55 OFFCURVE",
"109 60 OFFCURVE",
"113 66 CURVE SMOOTH",
"417 608 LINE",
"494 47 LINE",
"497 31 OFFCURVE",
"462 22 OFFCURVE",
"439 22 CURVE SMOOTH",
"424 22 LINE",
"420 0 LINE",
"642 0 LINE",
"646 22 LINE",
"630 22 LINE SMOOTH",
"607 22 OFFCURVE",
"580 35 OFFCURVE",
"576 57 CURVE SMOOTH",
"472 712 LINE",
"413 686 LINE",
"58 57 LINE",
"45 37 OFFCURVE",
"9 22 OFFCURVE",
"-15 22 CURVE SMOOTH",
"-30 22 LINE",
"-34 0 LINE"
);
},
{
closed = 1;
nodes = (
"493 217 LINE",
"500 252 LINE",
"191 252 LINE",
"184 217 LINE"
);
},
{
closed = 1;
nodes = (
"549 779 OFFCURVE",
"602 828 OFFCURVE",
"622 904 CURVE",
"593 904 LINE",
"573 839 OFFCURVE",
"524 819 OFFCURVE",
"470 819 CURVE SMOOTH",
"420 819 OFFCURVE",
"381 836 OFFCURVE",
"381 891 CURVE SMOOTH",
"381 895 OFFCURVE",
"381 899 OFFCURVE",
"382 904 CURVE",
"353 904 LINE",
"351 894 OFFCURVE",
"350 884 OFFCURVE",
"350 875 CURVE SMOOTH",
"350 814 OFFCURVE",
"387 779 OFFCURVE",
"462 779 CURVE SMOOTH"
);
},
{
closed = 1;
nodes = (
"516 911 LINE",
"439 1002 LINE",
"432 1011 OFFCURVE",
"421 1023 OFFCURVE",
"405 1023 CURVE SMOOTH",
"388 1023 OFFCURVE",
"376 1010 OFFCURVE",
"374 998 CURVE",
"372 985 OFFCURVE",
"378 972 OFFCURVE",
"395 961 CURVE SMOOTH",
"498 892 LINE"
);
}
);
width = 685;
}
);
leftKerningGroup = A;
note = Abrevegrave;
rightKerningGroup = A;
unicode = 1EB0;
},
{
glyphname = Abrevehookabove;
lastChange = "2015-10-21 17:12:07 +0000";
layers = (
{
layerId = "4BDFF818-6971-4FC7-918A-7FEEE3878A0A";
name = "Light Italic";
paths = (
{
closed = 1;
nodes = (
"165 0 LINE",
"169 22 LINE",
"153 22 LINE SMOOTH",
"133 22 OFFCURVE",
"108 32 OFFCURVE",
"108 51 CURVE SMOOTH",
"108 55 OFFCURVE",
"109 60 OFFCURVE",
"113 66 CURVE SMOOTH",
"417 608 LINE",
"494 47 LINE",
"497 31 OFFCURVE",
"462 22 OFFCURVE",
"439 22 CURVE SMOOTH",
"424 22 LINE",
"420 0 LINE",
"642 0 LINE",
"646 22 LINE",
"630 22 LINE SMOOTH",
"607 22 OFFCURVE",
"580 35 OFFCURVE",
"576 57 CURVE SMOOTH",
"472 712 LINE",
"413 686 LINE",
"58 57 LINE",
"45 37 OFFCURVE",
"9 22 OFFCURVE",
"-15 22 CURVE SMOOTH",
"-30 22 LINE",
"-34 0 LINE"
);
},
{
closed = 1;
nodes = (
"493 217 LINE",
"500 252 LINE",
"191 252 LINE",
"184 217 LINE"
);
},
{
closed = 1;
nodes = (
"549 779 OFFCURVE",
"602 828 OFFCURVE",
"622 904 CURVE",
"593 904 LINE",
"573 839 OFFCURVE",
"524 819 OFFCURVE",
"470 819 CURVE SMOOTH",
"420 819 OFFCURVE",
"381 836 OFFCURVE",
"381 891 CURVE SMOOTH",
"381 895 OFFCURVE",
"381 899 OFFCURVE",
"382 904 CURVE",
"353 904 LINE",
"351 894 OFFCURVE",
"350 884 OFFCURVE",
"350 875 CURVE SMOOTH",
"350 814 OFFCURVE",
"387 779 OFFCURVE",
"462 779 CURVE SMOOTH"
);
},
{
closed = 1;
nodes = (
"516 895 LINE",
"499 901 OFFCURVE",
"491 905 OFFCURVE",
"493 922 CURVE",
"499 951 OFFCURVE",
"585 960 OFFCURVE",
"585 1011 CURVE SMOOTH",
"585 1040 OFFCURVE",
"552 1053 OFFCURVE",
"517 1053 CURVE SMOOTH",
"490 1053 OFFCURVE",
"445 1043 OFFCURVE",
"440 1014 CURVE",
"437 1002 OFFCURVE",
"445 994 OFFCURVE",
"455 994 CURVE SMOOTH",
"483 994 OFFCURVE",
"477 1031 OFFCURVE",
"517 1031 CURVE SMOOTH",
"535 1031 OFFCURVE",
"543 1019 OFFCURVE",
"540 1005 CURVE SMOOTH",
"533 967 OFFCURVE",
"463 959 OFFCURVE",
"455 921 CURVE SMOOTH",
"454 918 OFFCURVE",
"454 915 OFFCURVE",
"454 912 CURVE SMOOTH",
"454 893 OFFCURVE",
"468 878 OFFCURVE",
"504 878 CURVE"
);
}
);
width = 685;
}
);
leftKerningGroup = A;
note = Abrevehookabove;
rightKerningGroup = A;
unicode = 1EB2;
},
{
glyphname = Abrevetilde;
lastChange = "2015-10-21 17:12:07 +0000";
layers = (
{
layerId = "4BDFF818-6971-4FC7-918A-7FEEE3878A0A";
name = "Light Italic";
paths = (
{
closed = 1;
nodes = (
"165 0 LINE",
"169 22 LINE",
"153 22 LINE SMOOTH",
"133 22 OFFCURVE",
"108 32 OFFCURVE",
"108 51 CURVE SMOOTH",
"108 55 OFFCURVE",
"109 60 OFFCURVE",
"113 66 CURVE SMOOTH",
"417 608 LINE",
"494 47 LINE",
"497 31 OFFCURVE",
"462 22 OFFCURVE",
"439 22 CURVE SMOOTH",
"424 22 LINE",
"420 0 LINE",
"642 0 LINE",
"646 22 LINE",
"630 22 LINE SMOOTH",
"607 22 OFFCURVE",
"580 35 OFFCURVE",
"576 57 CURVE SMOOTH",
"472 712 LINE",
"413 686 LINE",
"58 57 LINE",
"45 37 OFFCURVE",
"9 22 OFFCURVE",
"-15 22 CURVE SMOOTH",
"-30 22 LINE",
"-34 0 LINE"
);
},
{
closed = 1;
nodes = (
"493 217 LINE",
"500 252 LINE",
"191 252 LINE",
"184 217 LINE"
);
},
{
closed = 1;
nodes = (
"549 779 OFFCURVE",
"602 828 OFFCURVE",
"622 904 CURVE",
"593 904 LINE",
"573 839 OFFCURVE",
"524 819 OFFCURVE",
"470 819 CURVE SMOOTH",
"420 819 OFFCURVE",
"381 836 OFFCURVE",
"381 891 CURVE SMOOTH",
"381 895 OFFCURVE",
"381 899 OFFCURVE",
"382 904 CURVE",
"353 904 LINE",
"351 894 OFFCURVE",
"350 884 OFFCURVE",
"350 875 CURVE SMOOTH",
"350 814 OFFCURVE",
"387 779 OFFCURVE",
"462 779 CURVE SMOOTH"
);
},
{
closed = 1;
nodes = (
"387 993 OFFCURVE",
"408 1015 OFFCURVE",
"438 1015 CURVE SMOOTH",
"482 1015 OFFCURVE",
"515 959 OFFCURVE",
"560 959 CURVE SMOOTH",
"607 959 OFFCURVE",
"641 1000 OFFCURVE",
"662 1053 CURVE",
"646 1063 LINE",
"627 1023 OFFCURVE",
"608 999 OFFCURVE",
"576 999 CURVE SMOOTH",
"534 999 OFFCURVE",
"499 1054 OFFCURVE",
"454 1054 CURVE SMOOTH",
"410 1054 OFFCURVE",
"372 1017 OFFCURVE",
"352 965 CURVE",
"367 954 LINE"
);
}
);
width = 685;
}
);
leftKerningGroup = A;
note = Abrevetilde;
rightKerningGroup = A;
unicode = 1EB4;
},
{
glyphname = Acaron;
lastChange = "2015-10-21 17:12:07 +0000";
layers = (
{
layerId = "4BDFF818-6971-4FC7-918A-7FEEE3878A0A";
name = "Light Italic";
paths = (
{
closed = 1;
nodes = (
"165 0 LINE",
"169 22 LINE",
"153 22 LINE SMOOTH",
"133 22 OFFCURVE",
"108 32 OFFCURVE",
"108 51 CURVE SMOOTH",
"108 55 OFFCURVE",
"109 60 OFFCURVE",
"113 66 CURVE SMOOTH",
"417 608 LINE",
"494 47 LINE",
"497 31 OFFCURVE",
"462 22 OFFCURVE",
"439 22 CURVE SMOOTH",
"424 22 LINE",
"420 0 LINE",
"642 0 LINE",
"646 22 LINE",
"630 22 LINE SMOOTH",
"607 22 OFFCURVE",
"580 35 OFFCURVE",
"576 57 CURVE SMOOTH",
"472 712 LINE",
"413 686 LINE",
"58 57 LINE",
"45 37 OFFCURVE",
"9 22 OFFCURVE",
"-15 22 CURVE SMOOTH",
"-30 22 LINE",
"-34 0 LINE"
);
},
{
closed = 1;
nodes = (
"493 217 LINE",
"500 252 LINE",
"191 252 LINE",
"184 217 LINE"
);
},
{
closed = 1;
nodes = (
"483 784 LINE",
"619 902 LINE",
"606 921 LINE",
"492 839 LINE",
"485 834 OFFCURVE",
"477 830 OFFCURVE",
"472 830 CURVE SMOOTH",
"468 830 OFFCURVE",
"462 832 OFFCURVE",
"455 839 CURVE SMOOTH",
"374 921 LINE",
"354 902 LINE",
"442 784 LINE"
);
}
);
width = 685;
}
);
leftKerningGroup = A;
note = Acaron;
rightKerningGroup = A;
unicode = 01CD;
},
{
glyphname = Acircumflex;
lastChange = "2015-10-21 17:12:07 +0000";
layers = (
{
layerId = "4BDFF818-6971-4FC7-918A-7FEEE3878A0A";
name = "Light Italic";
paths = (
{
closed = 1;
nodes = (
"165 0 LINE",
"169 22 LINE",
"153 22 LINE SMOOTH",
"133 22 OFFCURVE",
"108 32 OFFCURVE",
"108 51 CURVE SMOOTH",
"108 55 OFFCURVE",
"109 60 OFFCURVE",
"113 66 CURVE SMOOTH",
"417 608 LINE",
"494 47 LINE",
"497 31 OFFCURVE",
"462 22 OFFCURVE",
"439 22 CURVE SMOOTH",
"424 22 LINE",
"420 0 LINE",
"642 0 LINE",
"646 22 LINE",
"630 22 LINE SMOOTH",
"607 22 OFFCURVE",
"580 35 OFFCURVE",
"576 57 CURVE SMOOTH",
"472 712 LINE",
"413 686 LINE",
"58 57 LINE",
"45 37 OFFCURVE",
"9 22 OFFCURVE",
"-15 22 CURVE SMOOTH",
"-30 22 LINE",
"-34 0 LINE"
);
},
{
closed = 1;
nodes = (
"493 217 LINE",
"500 252 LINE",
"191 252 LINE",
"184 217 LINE"
);
},
{
closed = 1;
nodes = (
"461 866 LINE",
"468 871 OFFCURVE",
"477 875 OFFCURVE",
"482 875 CURVE SMOOTH",
"487 875 OFFCURVE",
"492 871 OFFCURVE",
"498 866 CURVE",
"578 784 LINE",
"599 803 LINE",
"511 921 LINE",
"469 921 LINE",
"335 803 LINE",
"347 784 LINE"
);
}
);
width = 685;
}
);
leftKerningGroup = A;
note = Acircumflex;
rightKerningGroup = A;
unicode = 00C2;
},
{
glyphname = Acircumflexacute;
lastChange = "2015-10-21 17:12:07 +0000";
layers = (
{
layerId = "4BDFF818-6971-4FC7-918A-7FEEE3878A0A";
name = "Light Italic";
paths = (
{
closed = 1;
nodes = (
"165 0 LINE",
"169 22 LINE",
"153 22 LINE SMOOTH",
"133 22 OFFCURVE",
"108 32 OFFCURVE",
"108 51 CURVE SMOOTH",
"108 55 OFFCURVE",
"109 60 OFFCURVE",
"113 66 CURVE SMOOTH",
"417 608 LINE",
"494 47 LINE",
"497 31 OFFCURVE",
"462 22 OFFCURVE",
"439 22 CURVE SMOOTH",
"424 22 LINE",
"420 0 LINE",
"642 0 LINE",
"646 22 LINE",
"630 22 LINE SMOOTH",
"607 22 OFFCURVE",
"580 35 OFFCURVE",
"576 57 CURVE SMOOTH",
"472 712 LINE",
"413 686 LINE",
"58 57 LINE",
"45 37 OFFCURVE",
"9 22 OFFCURVE",
"-15 22 CURVE SMOOTH",
"-30 22 LINE",
"-34 0 LINE"
);
},
{
closed = 1;
nodes = (
"493 217 LINE",
"500 252 LINE",
"191 252 LINE",
"184 217 LINE"
);
},
{
closed = 1;
nodes = (
"460 862 LINE SMOOTH",
"468 868 OFFCURVE",
"477 874 OFFCURVE",
"483 874 CURVE SMOOTH",
"488 874 OFFCURVE",
"493 870 OFFCURVE",
"499 865 CURVE",
"579 783 LINE",
"598 803 LINE",
"513 921 LINE",
"472 921 LINE",
"338 803 LINE",
"350 783 LINE"
);
},
{
closed = 1;
nodes = (
"720 957 LINE SMOOTH",
"740 967 OFFCURVE",
"754 981 OFFCURVE",
"756 993 CURVE",
"758 1006 OFFCURVE",
"752 1019 OFFCURVE",
"734 1019 CURVE SMOOTH",
"719 1019 OFFCURVE",
"702 1006 OFFCURVE",
"691 997 CURVE SMOOTH",
"579 906 LINE",
"589 888 LINE"
);
}
);
width = 685;
}
);
leftKerningGroup = A;
note = Acircumflexacute;
rightKerningGroup = A;
unicode = 1EA4;
},
{
glyphname = Acircumflexdotbelow;
lastChange = "2015-10-21 17:12:08 +0000";
layers = (
{
layerId = "4BDFF818-6971-4FC7-918A-7FEEE3878A0A";
name = "Light Italic";
paths = (
{
closed = 1;
nodes = (
"165 0 LINE",
"169 22 LINE",
"153 22 LINE SMOOTH",
"133 22 OFFCURVE",
"108 32 OFFCURVE",
"108 51 CURVE SMOOTH",
"108 55 OFFCURVE",
"109 60 OFFCURVE",
"113 66 CURVE SMOOTH",
"417 608 LINE",
"494 47 LINE",
"497 31 OFFCURVE",
"462 22 OFFCURVE",
"439 22 CURVE SMOOTH",
"424 22 LINE",
"420 0 LINE",
"642 0 LINE",
"646 22 LINE",
"630 22 LINE SMOOTH",
"607 22 OFFCURVE",
"580 35 OFFCURVE",
"576 57 CURVE SMOOTH",
"472 712 LINE",
"413 686 LINE",
"58 57 LINE",
"45 37 OFFCURVE",
"9 22 OFFCURVE",
"-15 22 CURVE SMOOTH",
"-30 22 LINE",
"-34 0 LINE"
);
},
{
closed = 1;
nodes = (
"301 -147 OFFCURVE",
"324 -126 OFFCURVE",
"324 -95 CURVE SMOOTH",
"324 -76 OFFCURVE",
"312 -64 OFFCURVE",
"292 -64 CURVE SMOOTH",
"266 -64 OFFCURVE",
"243 -86 OFFCURVE",
"243 -116 CURVE SMOOTH",
"243 -135 OFFCURVE",
"254 -147 OFFCURVE",
"275 -147 CURVE SMOOTH"
);
},
{
closed = 1;
nodes = (
"493 217 LINE",
"500 252 LINE",
"191 252 LINE",
"184 217 LINE"
);
},
{
closed = 1;
nodes = (
"462 865 LINE",
"469 870 OFFCURVE",
"478 874 OFFCURVE",
"483 874 CURVE SMOOTH",
"488 874 OFFCURVE",
"493 870 OFFCURVE",
"499 865 CURVE",
"579 783 LINE",
"600 802 LINE",
"512 920 LINE",
"470 920 LINE",
"336 802 LINE",
"348 783 LINE"
);
}
);
width = 685;
}
);
leftKerningGroup = A;
note = Acircumflexdotbelow;
rightKerningGroup = A;
unicode = 1EAC;
},
{
glyphname = Acircumflexgrave;
lastChange = "2015-10-21 17:12:07 +0000";
layers = (
{
layerId = "4BDFF818-6971-4FC7-918A-7FEEE3878A0A";
name = "Light Italic";
paths = (
{
closed = 1;
nodes = (
"165 0 LINE",
"169 22 LINE",
"153 22 LINE SMOOTH",
"133 22 OFFCURVE",
"108 32 OFFCURVE",
"108 51 CURVE SMOOTH",
"108 55 OFFCURVE",
"109 60 OFFCURVE",
"113 66 CURVE SMOOTH",
"417 608 LINE",
"494 47 LINE",
"497 31 OFFCURVE",
"462 22 OFFCURVE",
"439 22 CURVE SMOOTH",
"424 22 LINE",
"420 0 LINE",
"642 0 LINE",
"646 22 LINE",
"630 22 LINE SMOOTH",
"607 22 OFFCURVE",
"580 35 OFFCURVE",
"576 57 CURVE SMOOTH",
"472 712 LINE",
"413 686 LINE",
"58 57 LINE",
"45 37 OFFCURVE",
"9 22 OFFCURVE",
"-15 22 CURVE SMOOTH",
"-30 22 LINE",
"-34 0 LINE"
);
},
{
closed = 1;
nodes = (
"493 217 LINE",
"500 252 LINE",
"191 252 LINE",
"184 217 LINE"
);
},
{
closed = 1;
nodes = (
"408 906 LINE",
"331 997 LINE",
"324 1006 OFFCURVE",
"314 1019 OFFCURVE",
"298 1019 CURVE SMOOTH",
"281 1019 OFFCURVE",
"269 1006 OFFCURVE",
"267 993 CURVE",
"264 981 OFFCURVE",
"271 967 OFFCURVE",
"287 957 CURVE",
"391 888 LINE"
);
},
{
closed = 1;
nodes = (
"460 862 LINE SMOOTH",
"468 868 OFFCURVE",
"477 874 OFFCURVE",
"483 874 CURVE SMOOTH",
"488 874 OFFCURVE",
"493 870 OFFCURVE",
"499 865 CURVE",
"579 783 LINE",
"598 803 LINE",
"513 921 LINE",
"472 921 LINE",
"338 803 LINE",
"350 783 LINE"
);
}
);
width = 685;
}
);
leftKerningGroup = A;
note = Acircumflexgrave;
rightKerningGroup = A;
unicode = 1EA6;
},
{
glyphname = Acircumflexhookabove;
lastChange = "2015-10-21 17:12:07 +0000";
layers = (
{
layerId = "4BDFF818-6971-4FC7-918A-7FEEE3878A0A";
name = "Light Italic";
paths = (
{
closed = 1;
nodes = (
"165 0 LINE",
"169 22 LINE",
"153 22 LINE SMOOTH",
"133 22 OFFCURVE",
"108 32 OFFCURVE",
"108 51 CURVE SMOOTH",
"108 55 OFFCURVE",
"109 60 OFFCURVE",
"113 66 CURVE SMOOTH",
"417 608 LINE",
"494 47 LINE",
"497 31 OFFCURVE",
"462 22 OFFCURVE",
"439 22 CURVE SMOOTH",
"424 22 LINE",
"420 0 LINE",
"642 0 LINE",
"646 22 LINE",
"630 22 LINE SMOOTH",
"607 22 OFFCURVE",
"580 35 OFFCURVE",
"576 57 CURVE SMOOTH",
"472 712 LINE",
"413 686 LINE",
"58 57 LINE",
"45 37 OFFCURVE",
"9 22 OFFCURVE",
"-15 22 CURVE SMOOTH",
"-30 22 LINE",
"-34 0 LINE"
);
},
{
closed = 1;
nodes = (
"493 217 LINE",
"500 252 LINE",
"191 252 LINE",
"184 217 LINE"
);
},
{
closed = 1;
nodes = (
"450 855 LINE",
"462 864 OFFCURVE",
"474 874 OFFCURVE",
"483 874 CURVE SMOOTH",
"488 874 OFFCURVE",
"493 870 OFFCURVE",
"499 865 CURVE",
"579 783 LINE",
"598 803 LINE",
"513 921 LINE",
"472 921 LINE",
"338 803 LINE",
"350 783 LINE"
);
},
{
closed = 1;
nodes = (
"643 890 LINE",
"627 896 OFFCURVE",
"618 900 OFFCURVE",
"621 917 CURVE",
"627 946 OFFCURVE",
"712 955 OFFCURVE",
"712 1006 CURVE SMOOTH",
"712 1035 OFFCURVE",
"680 1048 OFFCURVE",
"645 1048 CURVE SMOOTH",
"617 1048 OFFCURVE",
"574 1038 OFFCURVE",
"568 1009 CURVE",
"565 997 OFFCURVE",
"574 989 OFFCURVE",
"584 989 CURVE SMOOTH",
"611 989 OFFCURVE",
"605 1026 OFFCURVE",
"645 1026 CURVE SMOOTH",
"662 1026 OFFCURVE",
"671 1014 OFFCURVE",
"668 1000 CURVE SMOOTH",
"660 962 OFFCURVE",
"591 954 OFFCURVE",
"584 916 CURVE SMOOTH",
"583 913 OFFCURVE",
"583 910 OFFCURVE",
"583 907 CURVE SMOOTH",
"583 888 OFFCURVE",
"596 873 OFFCURVE",
"632 873 CURVE"
);
}
);
width = 685;
}
);
leftKerningGroup = A;
note = Acircumflexhookabove;
rightKerningGroup = A;
unicode = 1EA8;
},
{
glyphname = Acircumflextilde;
lastChange = "2015-10-21 17:12:07 +0000";
layers = (
{
layerId = "4BDFF818-6971-4FC7-918A-7FEEE3878A0A";
name = "Light Italic";
paths = (
{
closed = 1;
nodes = (
"165 0 LINE",
"169 22 LINE",
"153 22 LINE SMOOTH",
"133 22 OFFCURVE",
"108 32 OFFCURVE",
"108 51 CURVE SMOOTH",
"108 55 OFFCURVE",
"109 60 OFFCURVE",
"113 66 CURVE SMOOTH",
"417 608 LINE",
"494 47 LINE",
"497 31 OFFCURVE",
"462 22 OFFCURVE",
"439 22 CURVE SMOOTH",
"424 22 LINE",
"420 0 LINE",
"642 0 LINE",
"646 22 LINE",
"630 22 LINE SMOOTH",
"607 22 OFFCURVE",
"580 35 OFFCURVE",
"576 57 CURVE SMOOTH",
"472 712 LINE",
"413 686 LINE",
"58 57 LINE",
"45 37 OFFCURVE",
"9 22 OFFCURVE",
"-15 22 CURVE SMOOTH",
"-30 22 LINE",
"-34 0 LINE"
);
},
{
closed = 1;
nodes = (
"493 217 LINE",
"500 252 LINE",
"191 252 LINE",
"184 217 LINE"
);
},
{
closed = 1;
nodes = (
"460 862 LINE SMOOTH",
"468 868 OFFCURVE",
"477 874 OFFCURVE",
"483 874 CURVE SMOOTH",
"488 874 OFFCURVE",
"493 870 OFFCURVE",
"499 865 CURVE",
"579 783 LINE",
"598 803 LINE",
"513 921 LINE",
"472 921 LINE",
"338 803 LINE",
"350 783 LINE"
);
},
{
closed = 1;
nodes = (
"392 988 OFFCURVE",
"413 1010 OFFCURVE",
"443 1010 CURVE SMOOTH",
"487 1010 OFFCURVE",
"519 954 OFFCURVE",
"564 954 CURVE SMOOTH",
"611 954 OFFCURVE",
"646 995 OFFCURVE",
"667 1048 CURVE",
"651 1058 LINE",
"632 1018 OFFCURVE",
"612 994 OFFCURVE",
"581 994 CURVE SMOOTH",
"539 994 OFFCURVE",
"504 1049 OFFCURVE",
"459 1049 CURVE SMOOTH",
"415 1049 OFFCURVE",
"376 1012 OFFCURVE",
"357 960 CURVE",
"372 949 LINE"
);
}
);
width = 685;
}
);
leftKerningGroup = A;
note = Acircumflextilde;
rightKerningGroup = A;
unicode = 1EAA;
},
{
glyphname = Adieresis;
lastChange = "2015-10-21 17:12:07 +0000";
layers = (
{
layerId = "4BDFF818-6971-4FC7-918A-7FEEE3878A0A";
name = "Light Italic";
paths = (
{
closed = 1;
nodes = (
"165 0 LINE",
"169 22 LINE",
"153 22 LINE SMOOTH",
"133 22 OFFCURVE",
"108 32 OFFCURVE",
"108 51 CURVE SMOOTH",
"108 55 OFFCURVE",
"109 60 OFFCURVE",
"113 66 CURVE SMOOTH",
"417 608 LINE",
"494 47 LINE",
"497 31 OFFCURVE",
"462 22 OFFCURVE",
"439 22 CURVE SMOOTH",
"424 22 LINE",
"420 0 LINE",
"642 0 LINE",
"646 22 LINE",
"630 22 LINE SMOOTH",
"607 22 OFFCURVE",
"580 35 OFFCURVE",
"576 57 CURVE SMOOTH",
"472 712 LINE",
"413 686 LINE",
"58 57 LINE",
"45 37 OFFCURVE",
"9 22 OFFCURVE",
"-15 22 CURVE SMOOTH",
"-30 22 LINE",
"-34 0 LINE"
);
},
{
closed = 1;
nodes = (
"493 217 LINE",
"500 252 LINE",
"191 252 LINE",
"184 217 LINE"
);
},
{
closed = 1;
nodes = (
"385 782 OFFCURVE",
"405 805 OFFCURVE",
"405 835 CURVE SMOOTH",
"405 853 OFFCURVE",
"394 865 OFFCURVE",
"373 865 CURVE SMOOTH",
"349 865 OFFCURVE",
"332 848 OFFCURVE",
"326 823 CURVE SMOOTH",
"325 820 OFFCURVE",
"325 816 OFFCURVE",
"325 813 CURVE SMOOTH",
"325 794 OFFCURVE",
"337 782 OFFCURVE",
"357 782 CURVE SMOOTH"
);
},
{
closed = 1;
nodes = (
"586 782 OFFCURVE",
"606 805 OFFCURVE",
"606 835 CURVE SMOOTH",
"606 853 OFFCURVE",
"594 865 OFFCURVE",
"574 865 CURVE SMOOTH",
"550 865 OFFCURVE",
"532 848 OFFCURVE",
"526 823 CURVE SMOOTH",
"525 820 OFFCURVE",
"525 816 OFFCURVE",
"525 813 CURVE SMOOTH",
"525 795 OFFCURVE",
"538 782 OFFCURVE",
"558 782 CURVE SMOOTH"
);
}
);
width = 685;
}
);
leftKerningGroup = A;
note = Adieresis;
rightKerningGroup = A;
unicode = 00C4;
},
{
glyphname = Adotbelow;
lastChange = "2015-10-21 17:12:07 +0000";
layers = (
{
layerId = "4BDFF818-6971-4FC7-918A-7FEEE3878A0A";
name = "Light Italic";
paths = (
{
closed = 1;
nodes = (
"165 0 LINE",
"169 22 LINE",
"153 22 LINE SMOOTH",
"133 22 OFFCURVE",
"108 32 OFFCURVE",
"108 51 CURVE SMOOTH",
"108 55 OFFCURVE",
"109 60 OFFCURVE",
"113 66 CURVE SMOOTH",
"417 608 LINE",
"494 47 LINE",
"497 31 OFFCURVE",
"462 22 OFFCURVE",
"439 22 CURVE SMOOTH",
"424 22 LINE",
"420 0 LINE",
"642 0 LINE",
"646 22 LINE",
"630 22 LINE SMOOTH",
"607 22 OFFCURVE",
"580 35 OFFCURVE",
"576 57 CURVE SMOOTH",
"472 712 LINE",
"413 686 LINE",
"58 57 LINE",
"45 37 OFFCURVE",
"9 22 OFFCURVE",
"-15 22 CURVE SMOOTH",
"-30 22 LINE",
"-34 0 LINE"
);
},
{
closed = 1;
nodes = (
"301 -147 OFFCURVE",
"324 -126 OFFCURVE",
"324 -95 CURVE SMOOTH",
"324 -76 OFFCURVE",
"312 -64 OFFCURVE",
"292 -64 CURVE SMOOTH",
"266 -64 OFFCURVE",
"243 -86 OFFCURVE",
"243 -116 CURVE SMOOTH",
"243 -135 OFFCURVE",
"254 -147 OFFCURVE",
"275 -147 CURVE SMOOTH"
);
},
{
closed = 1;
nodes = (
"493 217 LINE",
"500 252 LINE",
"191 252 LINE",
"184 217 LINE"
);
}
);
width = 685;
}
);
leftKerningGroup = A;
note = Adotbelow;
rightKerningGroup = A;
unicode = 1EA0;
},
{
glyphname = Agrave;
lastChange = "2015-10-21 17:12:07 +0000";
layers = (
{
layerId = "4BDFF818-6971-4FC7-918A-7FEEE3878A0A";
name = "Light Italic";
paths = (
{
closed = 1;
nodes = (
"165 0 LINE",
"169 22 LINE",
"153 22 LINE SMOOTH",
"133 22 OFFCURVE",
"108 32 OFFCURVE",
"108 51 CURVE SMOOTH",
"108 55 OFFCURVE",
"109 60 OFFCURVE",
"113 66 CURVE SMOOTH",
"417 608 LINE",
"494 47 LINE",
"497 31 OFFCURVE",
"462 22 OFFCURVE",
"439 22 CURVE SMOOTH",
"424 22 LINE",
"420 0 LINE",
"642 0 LINE",
"646 22 LINE",
"630 22 LINE SMOOTH",
"607 22 OFFCURVE",
"580 35 OFFCURVE",
"576 57 CURVE SMOOTH",
"472 712 LINE",
"413 686 LINE",
"58 57 LINE",
"45 37 OFFCURVE",
"9 22 OFFCURVE",
"-15 22 CURVE SMOOTH",
"-30 22 LINE",
"-34 0 LINE"
);
},
{
closed = 1;
nodes = (
"493 217 LINE",
"500 252 LINE",
"191 252 LINE",
"184 217 LINE"
);
},
{
closed = 1;
nodes = (
"553 804 LINE",
"467 904 LINE",
"459 912 OFFCURVE",
"448 924 OFFCURVE",
"433 924 CURVE SMOOTH",
"420 924 OFFCURVE",
"406 914 OFFCURVE",
"403 899 CURVE",
"399 884 OFFCURVE",
"409 870 OFFCURVE",
"420 863 CURVE",
"536 784 LINE"
);
}
);
width = 685;
}
);
leftKerningGroup = A;
note = Agrave;
rightKerningGroup = A;
unicode = 00C0;
},
{
glyphname = Ahookabove;
lastChange = "2015-10-21 17:12:07 +0000";
layers = (
{
layerId = "4BDFF818-6971-4FC7-918A-7FEEE3878A0A";
name = "Light Italic";
paths = (
{
closed = 1;
nodes = (
"165 0 LINE",
"169 22 LINE",
"153 22 LINE SMOOTH",
"133 22 OFFCURVE",
"108 32 OFFCURVE",
"108 51 CURVE SMOOTH",
"108 55 OFFCURVE",
"109 60 OFFCURVE",
"113 66 CURVE SMOOTH",
"417 608 LINE",
"494 47 LINE",
"497 31 OFFCURVE",
"462 22 OFFCURVE",
"439 22 CURVE SMOOTH",
"424 22 LINE",
"420 0 LINE",
"642 0 LINE",
"646 22 LINE",
"630 22 LINE SMOOTH",
"607 22 OFFCURVE",
"580 35 OFFCURVE",
"576 57 CURVE SMOOTH",
"472 712 LINE",
"413 686 LINE",
"58 57 LINE",
"45 37 OFFCURVE",
"9 22 OFFCURVE",
"-15 22 CURVE SMOOTH",
"-30 22 LINE",
"-34 0 LINE"
);
},
{
closed = 1;
nodes = (
"493 217 LINE",
"500 252 LINE",
"191 252 LINE",
"184 217 LINE"
);
},
{
closed = 1;
nodes = (
"514 797 LINE",
"496 803 OFFCURVE",
"487 808 OFFCURVE",
"491 826 CURVE SMOOTH",
"498 860 OFFCURVE",
"593 876 OFFCURVE",
"593 935 CURVE SMOOTH",
"593 967 OFFCURVE",
"565 983 OFFCURVE",
"524 983 CURVE SMOOTH",
"481 983 OFFCURVE",
"443 966 OFFCURVE",
"436 935 CURVE",
"435 932 OFFCURVE",
"435 929 OFFCURVE",
"435 927 CURVE SMOOTH",
"435 917 OFFCURVE",
"440 912 OFFCURVE",
"450 912 CURVE SMOOTH",
"468 912 OFFCURVE",
"473 926 OFFCURVE",
"480 937 CURVE",
"488 952 OFFCURVE",
"505 957 OFFCURVE",
"520 957 CURVE SMOOTH",
"540 957 OFFCURVE",
"548 947 OFFCURVE",
"548 934 CURVE SMOOTH",
"548 880 OFFCURVE",
"450 872 OFFCURVE",
"450 815 CURVE SMOOTH",
"450 794 OFFCURVE",
"465 779 OFFCURVE",
"501 779 CURVE"
);
}
);
width = 685;
}
);
leftKerningGroup = A;
note = Ahookabove;
rightKerningGroup = A;
unicode = 1EA2;
},
{
glyphname = Amacron;
lastChange = "2015-10-21 17:12:07 +0000";
layers = (
{
layerId = "4BDFF818-6971-4FC7-918A-7FEEE3878A0A";
name = "Light Italic";
paths = (
{
closed = 1;
nodes = (
"165 0 LINE",
"169 22 LINE",
"153 22 LINE SMOOTH",
"133 22 OFFCURVE",
"108 32 OFFCURVE",
"108 51 CURVE SMOOTH",
"108 55 OFFCURVE",
"109 60 OFFCURVE",
"113 66 CURVE SMOOTH",
"417 608 LINE",
"494 47 LINE",
"497 31 OFFCURVE",
"462 22 OFFCURVE",
"439 22 CURVE SMOOTH",
"424 22 LINE",
"420 0 LINE",
"642 0 LINE",
"646 22 LINE",
"630 22 LINE SMOOTH",
"607 22 OFFCURVE",
"580 35 OFFCURVE",
"576 57 CURVE SMOOTH",
"472 712 LINE",
"413 686 LINE",
"58 57 LINE",
"45 37 OFFCURVE",
"9 22 OFFCURVE",
"-15 22 CURVE SMOOTH",
"-30 22 LINE",
"-34 0 LINE"
);
},
{
closed = 1;
nodes = (
"493 217 LINE",
"500 252 LINE",
"191 252 LINE",
"184 217 LINE"
);
},
{
closed = 1;
nodes = (
"613 784 LINE",
"621 819 LINE",
"322 819 LINE",
"314 784 LINE"
);
}
);
width = 685;
}
);
leftKerningGroup = A;
note = Amacron;
rightKerningGroup = A;
unicode = 0100;
},
{
glyphname = Aogonek;
lastChange = "2015-10-21 17:12:07 +0000";
layers = (
{
layerId = "4BDFF818-6971-4FC7-918A-7FEEE3878A0A";
name = "Light Italic";
paths = (
{
closed = 1;
nodes = (
"165 0 LINE",
"169 22 LINE",
"153 22 LINE SMOOTH",
"133 22 OFFCURVE",
"108 32 OFFCURVE",
"108 51 CURVE SMOOTH",
"108 55 OFFCURVE",
"109 60 OFFCURVE",
"113 66 CURVE SMOOTH",
"417 608 LINE",
"494 47 LINE",
"497 31 OFFCURVE",
"462 22 OFFCURVE",
"439 22 CURVE SMOOTH",
"424 22 LINE",
"420 0 LINE",
"642 0 LINE",
"646 22 LINE",
"630 22 LINE SMOOTH",
"607 22 OFFCURVE",
"580 35 OFFCURVE",
"576 57 CURVE SMOOTH",
"472 712 LINE",
"413 686 LINE",
"58 57 LINE",
"45 37 OFFCURVE",
"9 22 OFFCURVE",
"-15 22 CURVE SMOOTH",
"-30 22 LINE",
"-34 0 LINE"
);
},
{
closed = 1;
nodes = (
"556 -186 OFFCURVE",
"578 -180 OFFCURVE",
"604 -167 CURVE",
"604 -148 LINE",
"588 -154 OFFCURVE",
"572 -157 OFFCURVE",
"560 -157 CURVE SMOOTH",
"533 -157 OFFCURVE",
"512 -146 OFFCURVE",
"512 -118 CURVE SMOOTH",
"512 -73 OFFCURVE",
"550 -27 OFFCURVE",
"603 3 CURVE",
"569 3 LINE",
"516 -21 OFFCURVE",
"474 -61 OFFCURVE",
"464 -109 CURVE",
"463 -114 OFFCURVE",
"462 -120 OFFCURVE",
"462 -125 CURVE SMOOTH",
"462 -154 OFFCURVE",
"477 -186 OFFCURVE",
"533 -186 CURVE SMOOTH"
);
},
{
closed = 1;
nodes = (
"493 217 LINE",
"500 252 LINE",
"191 252 LINE",
"184 217 LINE"
);
}
);
width = 685;
}
);
leftKerningGroup = A;
note = Aogonek;
rightKerningGroup = A;
unicode = 0104;
},
{
glyphname = Aring;
lastChange = "2015-10-21 17:12:07 +0000";
layers = (
{
layerId = "4BDFF818-6971-4FC7-918A-7FEEE3878A0A";
name = "Light Italic";
paths = (
{
closed = 1;
nodes = (
"165 0 LINE",
"169 22 LINE",
"153 22 LINE SMOOTH",
"133 22 OFFCURVE",
"108 32 OFFCURVE",
"108 51 CURVE SMOOTH",
"108 55 OFFCURVE",
"109 60 OFFCURVE",
"113 66 CURVE SMOOTH",
"417 608 LINE",
"494 47 LINE",
"497 31 OFFCURVE",
"462 22 OFFCURVE",
"439 22 CURVE SMOOTH",
"424 22 LINE",
"420 0 LINE",
"642 0 LINE",
"646 22 LINE",
"630 22 LINE SMOOTH",
"607 22 OFFCURVE",
"580 35 OFFCURVE",
"576 57 CURVE SMOOTH",
"472 712 LINE",
"413 686 LINE",
"58 57 LINE",
"45 37 OFFCURVE",
"9 22 OFFCURVE",
"-15 22 CURVE SMOOTH",
"-30 22 LINE",
"-34 0 LINE"
);
},
{
closed = 1;
nodes = (
"493 217 LINE",
"500 252 LINE",
"191 252 LINE",
"184 217 LINE"
);
},
{
closed = 1;
nodes = (
"514 757 OFFCURVE",
"562 800 OFFCURVE",
"562 861 CURVE SMOOTH",
"562 900 OFFCURVE",
"535 925 OFFCURVE",
"492 925 CURVE SMOOTH",
"443 925 OFFCURVE",
"400 891 OFFCURVE",
"390 841 CURVE SMOOTH",
"389 834 OFFCURVE",
"388 828 OFFCURVE",
"388 822 CURVE SMOOTH",
"388 783 OFFCURVE",
"415 757 OFFCURVE",
"458 757 CURVE SMOOTH"
);
},
{
closed = 1;
nodes = (
"439 787 OFFCURVE",
"422 802 OFFCURVE",
"422 827 CURVE SMOOTH",
"422 868 OFFCURVE",
"453 895 OFFCURVE",
"487 895 CURVE SMOOTH",
"512 895 OFFCURVE",
"528 880 OFFCURVE",
"528 855 CURVE SMOOTH",
"528 814 OFFCURVE",
"497 787 OFFCURVE",
"465 787 CURVE SMOOTH"
);
}
);
width = 685;
}
);
leftKerningGroup = A;
note = Aring;
rightKerningGroup = A;
unicode = 00C5;
},
{
glyphname = Aringacute;
lastChange = "2015-10-21 17:12:07 +0000";
layers = (
{
layerId = "4BDFF818-6971-4FC7-918A-7FEEE3878A0A";
name = "Light Italic";
paths = (
{
closed = 1;
nodes = (
"165 0 LINE",
"169 22 LINE",
"153 22 LINE SMOOTH",
"133 22 OFFCURVE",
"108 32 OFFCURVE",
"108 51 CURVE SMOOTH",
"108 55 OFFCURVE",
"109 60 OFFCURVE",
"113 66 CURVE SMOOTH",
"417 608 LINE",
"494 47 LINE",
"497 31 OFFCURVE",
"462 22 OFFCURVE",
"439 22 CURVE SMOOTH",
"424 22 LINE",
"420 0 LINE",
"642 0 LINE",
"646 22 LINE",
"630 22 LINE SMOOTH",
"607 22 OFFCURVE",
"580 35 OFFCURVE",
"576 57 CURVE SMOOTH",
"472 712 LINE",
"413 686 LINE",
"58 57 LINE",
"45 37 OFFCURVE",
"9 22 OFFCURVE",
"-15 22 CURVE SMOOTH",
"-30 22 LINE",
"-34 0 LINE"
);
},
{
closed = 1;
nodes = (
"493 217 LINE",
"500 252 LINE",
"191 252 LINE",
"184 217 LINE"
);
},
{
closed = 1;
nodes = (
"514 757 OFFCURVE",
"562 800 OFFCURVE",
"562 861 CURVE SMOOTH",
"562 900 OFFCURVE",
"535 925 OFFCURVE",
"492 925 CURVE SMOOTH",
"443 925 OFFCURVE",
"400 891 OFFCURVE",
"390 841 CURVE SMOOTH",
"389 834 OFFCURVE",
"388 828 OFFCURVE",
"388 822 CURVE SMOOTH",
"388 783 OFFCURVE",
"415 757 OFFCURVE",
"458 757 CURVE SMOOTH"
);
},
{
closed = 1;
nodes = (
"439 787 OFFCURVE",
"422 802 OFFCURVE",
"422 827 CURVE SMOOTH",
"422 868 OFFCURVE",
"453 895 OFFCURVE",
"487 895 CURVE SMOOTH",
"512 895 OFFCURVE",
"528 880 OFFCURVE",
"528 855 CURVE SMOOTH",
"528 814 OFFCURVE",
"497 787 OFFCURVE",
"465 787 CURVE SMOOTH"
);
},
{
closed = 1;
nodes = (
"577 1046 LINE SMOOTH",
"596 1056 OFFCURVE",
"609 1068 OFFCURVE",
"612 1082 CURVE",
"613 1095 OFFCURVE",
"609 1107 OFFCURVE",
"592 1107 CURVE SMOOTH",
"576 1107 OFFCURVE",
"559 1094 OFFCURVE",
"550 1087 CURVE SMOOTH",
"420 987 LINE",
"430 967 LINE"
);
}
);
width = 685;
}
);
leftKerningGroup = A;
note = Aringacute;
rightKerningGroup = A;
unicode = 01FA;
},
{
glyphname = Atilde;
lastChange = "2015-10-21 17:12:07 +0000";
layers = (
{
layerId = "4BDFF818-6971-4FC7-918A-7FEEE3878A0A";
name = "Light Italic";
paths = (
{
closed = 1;
nodes = (
"165 0 LINE",
"169 22 LINE",
"153 22 LINE SMOOTH",
"133 22 OFFCURVE",
"108 32 OFFCURVE",
"108 51 CURVE SMOOTH",
"108 55 OFFCURVE",
"109 60 OFFCURVE",
"113 66 CURVE SMOOTH",
"417 608 LINE",
"494 47 LINE",
"497 31 OFFCURVE",
"462 22 OFFCURVE",
"439 22 CURVE SMOOTH",
"424 22 LINE",
"420 0 LINE",
"642 0 LINE",
"646 22 LINE",
"630 22 LINE SMOOTH",
"607 22 OFFCURVE",
"580 35 OFFCURVE",
"576 57 CURVE SMOOTH",
"472 712 LINE",
"413 686 LINE",
"58 57 LINE",
"45 37 OFFCURVE",
"9 22 OFFCURVE",
"-15 22 CURVE SMOOTH",
"-30 22 LINE",
"-34 0 LINE"
);
},
{
closed = 1;
nodes = (
"493 217 LINE",
"500 252 LINE",
"191 252 LINE",
"184 217 LINE"
);
},
{
closed = 1;
nodes = (
"352 820 OFFCURVE",
"374 842 OFFCURVE",
"405 842 CURVE SMOOTH",
"450 842 OFFCURVE",
"485 786 OFFCURVE",
"531 786 CURVE SMOOTH",
"581 786 OFFCURVE",
"616 827 OFFCURVE",
"637 880 CURVE",
"621 890 LINE",
"600 850 OFFCURVE",
"580 827 OFFCURVE",
"548 827 CURVE SMOOTH",
"504 827 OFFCURVE",
"468 882 OFFCURVE",
"420 882 CURVE SMOOTH",
"374 882 OFFCURVE",
"336 845 OFFCURVE",
"316 792 CURVE",
"332 782 LINE"
);
}
);
width = 685;
}
);
leftKerningGroup = A;
note = Atilde;
rightKerningGroup = A;
unicode = 00C3;
},
{
glyphname = AE;
lastChange = "2015-10-21 17:12:07 +0000";
layers = (
{
layerId = "4BDFF818-6971-4FC7-918A-7FEEE3878A0A";
name = "Light Italic";
paths = (
{
closed = 1;
nodes = (
"169 0 LINE",
"173 22 LINE",
"157 22 LINE SMOOTH",
"133 22 OFFCURVE",
"109 33 OFFCURVE",
"109 47 CURVE SMOOTH",
"109 51 OFFCURVE",
"110 54 OFFCURVE",
"113 58 CURVE SMOOTH",
"237 217 LINE",
"484 217 LINE",
"451 57 LINE SMOOTH",
"445 32 OFFCURVE",
"420 22 OFFCURVE",
"392 22 CURVE SMOOTH",
"372 22 LINE",
"368 0 LINE",
"833 0 LINE",
"884 175 LINE",
"863 175 LINE",
"848 124 OFFCURVE",
"812 35 OFFCURVE",
"753 35 CURVE SMOOTH",
"519 35 LINE",
"584 352 LINE",
"747 352 LINE SMOOTH",
"774 352 OFFCURVE",
"781 332 OFFCURVE",
"781 305 CURVE SMOOTH",
"781 289 OFFCURVE",
"780 271 OFFCURVE",
"777 253 CURVE",
"796 253 LINE",
"844 486 LINE",
"825 486 LINE",
"810 435 OFFCURVE",
"797 387 OFFCURVE",
"755 387 CURVE SMOOTH",
"591 387 LINE",
"648 665 LINE",
"870 665 LINE SMOOTH",
"915 665 OFFCURVE",
"925 624 OFFCURVE",
"925 585 CURVE SMOOTH",
"925 565 OFFCURVE",
"923 546 OFFCURVE",
"921 533 CURVE",
"942 533 LINE",
"975 700 LINE",
"500 700 LINE",
"495 677 LINE",
"524 677 LINE SMOOTH",
"533 677 OFFCURVE",
"536 673 OFFCURVE",
"536 667 CURVE SMOOTH",
"536 662 OFFCURVE",
"533 657 OFFCURVE",
"530 652 CURVE",
"85 88 LINE SMOOTH",
"61 57 OFFCURVE",
"36 25 OFFCURVE",
"-11 22 CURVE",
"-25 22 LINE",
"-29 0 LINE"
);
},
{
closed = 1;
nodes = (
"569 639 LINE",
"491 252 LINE",
"263 252 LINE"
);
}
);
width = 923;
}
);
leftKerningGroup = A;
note = AE;
rightKerningGroup = E;
unicode = 00C6;
},
{
glyphname = AEacute;
lastChange = "2015-10-21 17:12:07 +0000";
layers = (
{
layerId = "4BDFF818-6971-4FC7-918A-7FEEE3878A0A";
name = "Light Italic";
paths = (
{
closed = 1;
nodes = (
"169 0 LINE",
"173 22 LINE",
"157 22 LINE SMOOTH",
"133 22 OFFCURVE",
"109 33 OFFCURVE",
"109 47 CURVE SMOOTH",
"109 51 OFFCURVE",
"110 54 OFFCURVE",
"113 58 CURVE SMOOTH",
"237 217 LINE",
"484 217 LINE",
"451 57 LINE SMOOTH",
"445 32 OFFCURVE",
"420 22 OFFCURVE",
"392 22 CURVE SMOOTH",
"372 22 LINE",
"368 0 LINE",
"833 0 LINE",
"884 175 LINE",
"863 175 LINE",
"848 124 OFFCURVE",
"812 35 OFFCURVE",
"753 35 CURVE SMOOTH",
"519 35 LINE",
"584 352 LINE",
"747 352 LINE SMOOTH",
"774 352 OFFCURVE",
"781 332 OFFCURVE",
"781 305 CURVE SMOOTH",
"781 289 OFFCURVE",
"780 271 OFFCURVE",
"777 253 CURVE",
"796 253 LINE",
"844 486 LINE",
"825 486 LINE",
"810 435 OFFCURVE",
"797 387 OFFCURVE",
"755 387 CURVE SMOOTH",
"591 387 LINE",
"648 665 LINE",
"870 665 LINE SMOOTH",
"915 665 OFFCURVE",
"925 624 OFFCURVE",
"925 585 CURVE SMOOTH",
"925 565 OFFCURVE",
"923 546 OFFCURVE",
"921 533 CURVE",
"942 533 LINE",
"975 700 LINE",
"500 700 LINE",
"495 677 LINE",
"524 677 LINE SMOOTH",
"533 677 OFFCURVE",
"536 673 OFFCURVE",
"536 667 CURVE SMOOTH",
"536 662 OFFCURVE",
"533 657 OFFCURVE",
"530 652 CURVE",
"85 88 LINE SMOOTH",
"61 57 OFFCURVE",
"36 25 OFFCURVE",
"-11 22 CURVE",
"-25 22 LINE",
"-29 0 LINE"
);
},
{
closed = 1;
nodes = (
"569 639 LINE",
"491 252 LINE",
"263 252 LINE"
);
},
{
closed = 1;
nodes = (
"873 863 LINE SMOOTH",
"892 873 OFFCURVE",
"904 885 OFFCURVE",
"907 899 CURVE",
"909 912 OFFCURVE",
"904 924 OFFCURVE",
"888 924 CURVE SMOOTH",
"872 924 OFFCURVE",
"854 911 OFFCURVE",
"846 904 CURVE SMOOTH",
"716 804 LINE",
"726 784 LINE"
);
}
);
width = 923;
}
);
leftKerningGroup = A;
note = AEacute;
rightKerningGroup = E;
unicode = 01FC;
},
{
glyphname = B;
lastChange = "2015-10-21 17:12:07 +0000";
layers = (
{
layerId = "4BDFF818-6971-4FC7-918A-7FEEE3878A0A";
name = "Light Italic";
paths = (
{
closed = 1;
nodes = (
"290 0 LINE SMOOTH",
"425 0 OFFCURVE",
"513 68 OFFCURVE",
"537 188 CURVE SMOOTH",
"540 203 OFFCURVE",
"542 219 OFFCURVE",
"542 235 CURVE SMOOTH",
"542 294 OFFCURVE",
"514 351 OFFCURVE",
"413 367 CURVE",
"413 368 OFFCURVE",
"413 370 OFFCURVE",
"413 370 CURVE",
"495 392 OFFCURVE",
"552 459 OFFCURVE",
"567 534 CURVE SMOOTH",
"570 549 OFFCURVE",
"572 563 OFFCURVE",
"572 576 CURVE SMOOTH",
"572 657 OFFCURVE",
"514 700 OFFCURVE",
"404 700 CURVE SMOOTH",
"123 700 LINE",
"118 677 LINE",
"145 677 LINE SMOOTH",
"182 677 OFFCURVE",
"200 667 OFFCURVE",
"195 642 CURVE SMOOTH",
"76 57 LINE SMOOTH",
"70 32 OFFCURVE",
"49 22 OFFCURVE",
"12 22 CURVE SMOOTH",
"-15 22 LINE",
"-19 0 LINE"
);
},
{
closed = 1;
nodes = (
"208 349 LINE",
"317 349 LINE SMOOTH",
"423 349 OFFCURVE",
"472 311 OFFCURVE",
"472 236 CURVE SMOOTH",
"472 223 OFFCURVE",
"470 207 OFFCURVE",
"468 191 CURVE SMOOTH",
"447 91 OFFCURVE",
"379 35 OFFCURVE",
"260 35 CURVE SMOOTH",
"144 35 LINE"
);
},
{
closed = 1;
nodes = (
"273 665 LINE",
"367 665 LINE SMOOTH",
"455 665 OFFCURVE",
"500 636 OFFCURVE",
"500 570 CURVE SMOOTH",
"500 559 OFFCURVE",
"499 546 OFFCURVE",
"496 533 CURVE SMOOTH",
"478 445 OFFCURVE",
"409 383 OFFCURVE",
"321 383 CURVE SMOOTH",
"215 383 LINE"
);
}
);
width = 566;
}
);
note = B;
unicode = 0042;
},
{
glyphname = C;
lastChange = "2015-10-21 17:12:07 +0000";
layers = (
{
layerId = "4BDFF818-6971-4FC7-918A-7FEEE3878A0A";
name = "Light Italic";
paths = (
{
closed = 1;
nodes = (
"439 -10 OFFCURVE",
"551 56 OFFCURVE",
"598 170 CURVE",
"566 170 LINE",
"515 66 OFFCURVE",
"409 25 OFFCURVE",
"329 25 CURVE SMOOTH",
"195 25 OFFCURVE",
"136 107 OFFCURVE",
"136 236 CURVE SMOOTH",
"136 270 OFFCURVE",
"140 309 OFFCURVE",
"149 350 CURVE SMOOTH",
"188 543 OFFCURVE",
"301 674 OFFCURVE",
"470 674 CURVE SMOOTH",
"566 674 OFFCURVE",
"634 624 OFFCURVE",
"634 538 CURVE SMOOTH",
"634 532 OFFCURVE",
"634 526 OFFCURVE",
"633 519 CURVE",
"656 519 LINE",
"693 705 LINE",
"663 705 LINE",
"655 662 LINE",
"653 650 OFFCURVE",
"648 645 OFFCURVE",
"643 645 CURVE SMOOTH",
"640 645 OFFCURVE",
"637 648 OFFCURVE",
"636 650 CURVE",
"612 671 OFFCURVE",
"557 710 OFFCURVE",
"465 710 CURVE SMOOTH",
"267 710 OFFCURVE",
"122 577 OFFCURVE",
"76 350 CURVE SMOOTH",
"67 308 OFFCURVE",
"63 270 OFFCURVE",
"63 234 CURVE SMOOTH",
"63 78 OFFCURVE",
"148 -10 OFFCURVE",
"309 -10 CURVE SMOOTH"
);
}
);
width = 632;
}
);
leftKerningGroup = C;
note = C;
rightKerningGroup = C;
unicode = 0043;
},
{
glyphname = Cacute;
lastChange = "2015-10-21 17:12:07 +0000";
layers = (
{
layerId = "4BDFF818-6971-4FC7-918A-7FEEE3878A0A";
name = "Light Italic";
paths = (
{
closed = 1;
nodes = (
"439 -10 OFFCURVE",
"551 56 OFFCURVE",
"598 170 CURVE",
"566 170 LINE",
"515 66 OFFCURVE",
"409 25 OFFCURVE",
"329 25 CURVE SMOOTH",
"195 25 OFFCURVE",
"136 107 OFFCURVE",
"136 236 CURVE SMOOTH",
"136 270 OFFCURVE",
"140 309 OFFCURVE",
"149 350 CURVE SMOOTH",
"188 543 OFFCURVE",
"301 674 OFFCURVE",
"470 674 CURVE SMOOTH",
"566 674 OFFCURVE",
"634 624 OFFCURVE",
"634 538 CURVE SMOOTH",
"634 532 OFFCURVE",
"634 526 OFFCURVE",
"633 519 CURVE",
"656 519 LINE",
"693 705 LINE",
"663 705 LINE",
"655 662 LINE",
"653 650 OFFCURVE",
"648 645 OFFCURVE",
"643 645 CURVE SMOOTH",
"640 645 OFFCURVE",
"637 648 OFFCURVE",
"636 650 CURVE",
"612 671 OFFCURVE",
"557 710 OFFCURVE",
"465 710 CURVE SMOOTH",
"267 710 OFFCURVE",
"122 577 OFFCURVE",
"76 350 CURVE SMOOTH",
"67 308 OFFCURVE",
"63 270 OFFCURVE",
"63 234 CURVE SMOOTH",
"63 78 OFFCURVE",
"148 -10 OFFCURVE",
"309 -10 CURVE SMOOTH"
);
},
{
closed = 1;
nodes = (
"556 863 LINE SMOOTH",
"575 873 OFFCURVE",
"588 885 OFFCURVE",
"590 899 CURVE",
"592 912 OFFCURVE",
"588 924 OFFCURVE",
"571 924 CURVE SMOOTH",
"555 924 OFFCURVE",
"538 911 OFFCURVE",
"529 904 CURVE SMOOTH",
"399 804 LINE",
"409 784 LINE"
);
}
);
width = 632;
}
);
leftKerningGroup = C;
note = Cacute;
rightKerningGroup = C;
unicode = 0106;
},
{
glyphname = Ccaron;
lastChange = "2015-10-21 17:12:07 +0000";
layers = (
{
layerId = "4BDFF818-6971-4FC7-918A-7FEEE3878A0A";
name = "Light Italic";
paths = (
{
closed = 1;
nodes = (
"439 -10 OFFCURVE",
"551 56 OFFCURVE",
"598 170 CURVE",
"566 170 LINE",
"515 66 OFFCURVE",
"409 25 OFFCURVE",
"329 25 CURVE SMOOTH",
"195 25 OFFCURVE",
"136 107 OFFCURVE",
"136 236 CURVE SMOOTH",
"136 270 OFFCURVE",
"140 309 OFFCURVE",
"149 350 CURVE SMOOTH",
"188 543 OFFCURVE",
"301 674 OFFCURVE",
"470 674 CURVE SMOOTH",
"566 674 OFFCURVE",
"634 624 OFFCURVE",
"634 538 CURVE SMOOTH",
"634 532 OFFCURVE",
"634 526 OFFCURVE",
"633 519 CURVE",
"656 519 LINE",
"693 705 LINE",
"663 705 LINE",
"655 662 LINE",
"653 650 OFFCURVE",
"648 645 OFFCURVE",
"643 645 CURVE SMOOTH",
"640 645 OFFCURVE",
"637 648 OFFCURVE",
"636 650 CURVE",
"612 671 OFFCURVE",
"557 710 OFFCURVE",
"465 710 CURVE SMOOTH",
"267 710 OFFCURVE",
"122 577 OFFCURVE",
"76 350 CURVE SMOOTH",
"67 308 OFFCURVE",
"63 270 OFFCURVE",
"63 234 CURVE SMOOTH",
"63 78 OFFCURVE",
"148 -10 OFFCURVE",
"309 -10 CURVE SMOOTH"
);
},
{
closed = 1;
nodes = (
"492 784 LINE",
"628 902 LINE",
"614 921 LINE",
"501 839 LINE",
"493 834 OFFCURVE",
"486 830 OFFCURVE",
"481 830 CURVE SMOOTH",
"476 830 OFFCURVE",
"470 832 OFFCURVE",
"464 839 CURVE SMOOTH",
"383 921 LINE",
"363 902 LINE",
"450 784 LINE"
);
}
);
width = 632;
}
);
leftKerningGroup = C;
note = Ccaron;
rightKerningGroup = C;
unicode = 010C;
},
{
glyphname = Ccedilla;
lastChange = "2015-10-21 17:12:07 +0000";
layers = (
{
layerId = "4BDFF818-6971-4FC7-918A-7FEEE3878A0A";
name = "Light Italic";
paths = (
{
closed = 1;
nodes = (
"439 -10 OFFCURVE",
"551 56 OFFCURVE",
"598 170 CURVE",
"566 170 LINE",
"515 66 OFFCURVE",
"409 25 OFFCURVE",
"329 25 CURVE SMOOTH",
"195 25 OFFCURVE",
"136 107 OFFCURVE",
"136 236 CURVE SMOOTH",
"136 270 OFFCURVE",
"140 309 OFFCURVE",
"149 350 CURVE SMOOTH",
"188 543 OFFCURVE",
"301 674 OFFCURVE",
"470 674 CURVE SMOOTH",
"566 674 OFFCURVE",
"634 624 OFFCURVE",
"634 538 CURVE SMOOTH",
"634 532 OFFCURVE",
"634 526 OFFCURVE",
"633 519 CURVE",
"656 519 LINE",
"693 705 LINE",
"663 705 LINE",
"655 662 LINE",
"653 650 OFFCURVE",
"648 645 OFFCURVE",
"643 645 CURVE SMOOTH",
"640 645 OFFCURVE",
"637 648 OFFCURVE",
"636 650 CURVE",
"612 671 OFFCURVE",
"557 710 OFFCURVE",
"465 710 CURVE SMOOTH",
"267 710 OFFCURVE",
"122 577 OFFCURVE",
"76 350 CURVE SMOOTH",
"67 308 OFFCURVE",
"63 270 OFFCURVE",
"63 234 CURVE SMOOTH",
"63 78 OFFCURVE",
"148 -10 OFFCURVE",
"309 -10 CURVE SMOOTH"
);
},
{
closed = 1;
nodes = (
"300 -207 OFFCURVE",
"358 -184 OFFCURVE",
"370 -125 CURVE SMOOTH",
"371 -120 OFFCURVE",
"372 -115 OFFCURVE",
"372 -110 CURVE SMOOTH",
"372 -70 OFFCURVE",
"327 -61 OFFCURVE",
"289 -61 CURVE",
"334 7 LINE",
"299 7 LINE",
"243 -70 LINE",
"254 -90 LINE",
"279 -90 OFFCURVE",
"327 -90 OFFCURVE",
"320 -126 CURVE SMOOTH",
"312 -164 OFFCURVE",
"277 -177 OFFCURVE",
"236 -177 CURVE SMOOTH",
"225 -177 OFFCURVE",
"208 -177 OFFCURVE",
"199 -175 CURVE",
"186 -201 LINE",
"200 -205 OFFCURVE",
"213 -207 OFFCURVE",
"229 -207 CURVE SMOOTH"
);
}
);
width = 632;
}
);
leftKerningGroup = C;
note = Ccedilla;
rightKerningGroup = C;
unicode = 00C7;
},
{
glyphname = Ccircumflex;
lastChange = "2015-10-21 17:12:07 +0000";
layers = (
{
layerId = "4BDFF818-6971-4FC7-918A-7FEEE3878A0A";
name = "Light Italic";
paths = (
{
closed = 1;
nodes = (
"439 -10 OFFCURVE",
"551 56 OFFCURVE",
"598 170 CURVE",
"566 170 LINE",
"515 66 OFFCURVE",
"409 25 OFFCURVE",
"329 25 CURVE SMOOTH",
"195 25 OFFCURVE",
"136 107 OFFCURVE",
"136 236 CURVE SMOOTH",
"136 270 OFFCURVE",
"140 309 OFFCURVE",
"149 350 CURVE SMOOTH",
"188 543 OFFCURVE",
"301 674 OFFCURVE",
"470 674 CURVE SMOOTH",
"566 674 OFFCURVE",
"634 624 OFFCURVE",
"634 538 CURVE SMOOTH",
"634 532 OFFCURVE",
"634 526 OFFCURVE",
"633 519 CURVE",
"656 519 LINE",
"693 705 LINE",
"663 705 LINE",
"655 662 LINE",
"653 650 OFFCURVE",
"648 645 OFFCURVE",
"643 645 CURVE SMOOTH",
"640 645 OFFCURVE",
"637 648 OFFCURVE",
"636 650 CURVE",
"612 671 OFFCURVE",
"557 710 OFFCURVE",
"465 710 CURVE SMOOTH",
"267 710 OFFCURVE",
"122 577 OFFCURVE",
"76 350 CURVE SMOOTH",
"67 308 OFFCURVE",
"63 270 OFFCURVE",
"63 234 CURVE SMOOTH",
"63 78 OFFCURVE",
"148 -10 OFFCURVE",
"309 -10 CURVE SMOOTH"
);
},
{
closed = 1;
nodes = (
"471 866 LINE",
"479 871 OFFCURVE",
"488 875 OFFCURVE",
"492 875 CURVE SMOOTH",
"497 875 OFFCURVE",
"503 871 OFFCURVE",
"509 866 CURVE",
"588 784 LINE",
"610 803 LINE",
"521 921 LINE",
"480 921 LINE",
"346 803 LINE",
"357 784 LINE"
);
}
);
width = 632;
}
);
leftKerningGroup = C;
note = Ccircumflex;
rightKerningGroup = C;
unicode = 0108;
},
{
glyphname = Cdotaccent;
lastChange = "2015-10-21 17:12:07 +0000";
layers = (
{
layerId = "4BDFF818-6971-4FC7-918A-7FEEE3878A0A";
name = "Light Italic";
paths = (
{
closed = 1;
nodes = (
"439 -10 OFFCURVE",
"551 56 OFFCURVE",
"598 170 CURVE",
"566 170 LINE",
"515 66 OFFCURVE",
"409 25 OFFCURVE",
"329 25 CURVE SMOOTH",
"195 25 OFFCURVE",
"136 107 OFFCURVE",
"136 236 CURVE SMOOTH",
"136 270 OFFCURVE",
"140 309 OFFCURVE",
"149 350 CURVE SMOOTH",
"188 543 OFFCURVE",
"301 674 OFFCURVE",
"470 674 CURVE SMOOTH",
"566 674 OFFCURVE",
"634 624 OFFCURVE",
"634 538 CURVE SMOOTH",
"634 532 OFFCURVE",
"634 526 OFFCURVE",
"633 519 CURVE",
"656 519 LINE",
"693 705 LINE",
"663 705 LINE",
"655 662 LINE",
"653 650 OFFCURVE",
"648 645 OFFCURVE",
"643 645 CURVE SMOOTH",
"640 645 OFFCURVE",
"637 648 OFFCURVE",
"636 650 CURVE",
"612 671 OFFCURVE",
"557 710 OFFCURVE",
"465 710 CURVE SMOOTH",
"267 710 OFFCURVE",
"122 577 OFFCURVE",
"76 350 CURVE SMOOTH",
"67 308 OFFCURVE",
"63 270 OFFCURVE",
"63 234 CURVE SMOOTH",
"63 78 OFFCURVE",
"148 -10 OFFCURVE",
"309 -10 CURVE SMOOTH"
);
},
{
closed = 1;
nodes = (
"506 763 OFFCURVE",
"524 779 OFFCURVE",
"529 804 CURVE",
"530 808 OFFCURVE",
"530 812 OFFCURVE",
"530 816 CURVE SMOOTH",
"530 834 OFFCURVE",
"518 845 OFFCURVE",
"499 845 CURVE SMOOTH",
"475 845 OFFCURVE",
"457 829 OFFCURVE",
"451 804 CURVE",
"450 800 OFFCURVE",
"450 797 OFFCURVE",
"450 794 CURVE SMOOTH",
"450 775 OFFCURVE",
"463 763 OFFCURVE",
"483 763 CURVE SMOOTH"
);
}
);
width = 632;
}
);
leftKerningGroup = C;
note = Cdotaccent;
rightKerningGroup = C;
unicode = 010A;
},
{
glyphname = D;
lastChange = "2015-10-21 17:12:07 +0000";
layers = (
{
layerId = "4BDFF818-6971-4FC7-918A-7FEEE3878A0A";
name = "Light Italic";
paths = (
{
closed = 1;
nodes = (
"272 0 LINE SMOOTH",
"467 0 OFFCURVE",
"589 123 OFFCURVE",
"636 350 CURVE SMOOTH",
"644 394 OFFCURVE",
"649 434 OFFCURVE",
"649 470 CURVE SMOOTH",
"649 619 OFFCURVE",
"572 700 OFFCURVE",
"415 700 CURVE SMOOTH",
"122 700 LINE",
"117 677 LINE",
"145 677 LINE SMOOTH",
"181 677 OFFCURVE",
"200 667 OFFCURVE",
"195 642 CURVE SMOOTH",
"76 57 LINE SMOOTH",
"70 32 OFFCURVE",
"48 22 OFFCURVE",
"12 22 CURVE SMOOTH",
"-16 22 LINE",
"-20 0 LINE"
);
},
{
closed = 1;
nodes = (
"273 666 LINE",
"407 666 LINE SMOOTH",
"523 666 OFFCURVE",
"576 593 OFFCURVE",
"576 470 CURVE SMOOTH",
"576 434 OFFCURVE",
"571 394 OFFCURVE",
"563 350 CURVE SMOOTH",
"522 155 OFFCURVE",
"427 33 OFFCURVE",
"276 33 CURVE SMOOTH",
"144 33 LINE"
);
}
);
width = 642;
}
);
note = D;
rightKerningGroup = D;
unicode = 0044;
},
{
glyphname = Eth;
lastChange = "2015-12-01 09:28:47 +0000";
layers = (
{
layerId = "4BDFF818-6971-4FC7-918A-7FEEE3878A0A";
name = "Light Italic";
paths = (
{
closed = 1;
nodes = (
"272 0 LINE SMOOTH",
"467 0 OFFCURVE",
"589 123 OFFCURVE",
"636 350 CURVE SMOOTH",
"644 394 OFFCURVE",
"649 434 OFFCURVE",
"649 470 CURVE SMOOTH",
"649 619 OFFCURVE",
"572 700 OFFCURVE",
"415 700 CURVE SMOOTH",
"122 700 LINE",
"117 677 LINE",
"145 677 LINE SMOOTH",
"181 677 OFFCURVE",
"200 667 OFFCURVE",
"195 642 CURVE SMOOTH",
"76 57 LINE SMOOTH",
"70 32 OFFCURVE",
"48 22 OFFCURVE",
"12 22 CURVE SMOOTH",
"-16 22 LINE",
"-20 0 LINE"
);
},
{
closed = 1;
nodes = (
"273 666 LINE",
"407 666 LINE SMOOTH",
"523 666 OFFCURVE",
"576 593 OFFCURVE",
"576 470 CURVE SMOOTH",
"576 434 OFFCURVE",
"571 394 OFFCURVE",
"563 350 CURVE SMOOTH",
"522 155 OFFCURVE",
"427 33 OFFCURVE",
"276 33 CURVE SMOOTH",
"144 33 LINE"
);
},
{
closed = 1;
nodes = (
"413 334 LINE",
"420 372 LINE",
"66 372 LINE",
"59 334 LINE"
);
}
);
width = 642;
}
);
note = Eth;
rightKerningGroup = D;
unicode = 00D0;
},
{
glyphname = Dcaron;
lastChange = "2015-10-21 17:12:07 +0000";
layers = (
{
layerId = "4BDFF818-6971-4FC7-918A-7FEEE3878A0A";
name = "Light Italic";
paths = (
{
closed = 1;
nodes = (
"272 0 LINE SMOOTH",
"467 0 OFFCURVE",
"589 123 OFFCURVE",
"636 350 CURVE SMOOTH",
"644 394 OFFCURVE",
"649 434 OFFCURVE",
"649 470 CURVE SMOOTH",
"649 619 OFFCURVE",
"572 700 OFFCURVE",
"415 700 CURVE SMOOTH",
"122 700 LINE",
"117 677 LINE",
"145 677 LINE SMOOTH",
"181 677 OFFCURVE",
"200 667 OFFCURVE",
"195 642 CURVE SMOOTH",
"76 57 LINE SMOOTH",
"70 32 OFFCURVE",
"48 22 OFFCURVE",
"12 22 CURVE SMOOTH",
"-16 22 LINE",
"-20 0 LINE"
);
},
{
closed = 1;
nodes = (
"273 666 LINE",
"407 666 LINE SMOOTH",
"523 666 OFFCURVE",
"576 593 OFFCURVE",
"576 470 CURVE SMOOTH",
"576 434 OFFCURVE",
"571 394 OFFCURVE",
"563 350 CURVE SMOOTH",
"522 155 OFFCURVE",
"427 33 OFFCURVE",
"276 33 CURVE SMOOTH",
"144 33 LINE"
);
},
{
closed = 1;
nodes = (
"456 805 LINE",
"592 923 LINE",
"579 942 LINE",
"466 860 LINE",
"458 855 OFFCURVE",
"450 851 OFFCURVE",
"445 851 CURVE SMOOTH",
"441 851 OFFCURVE",
"435 853 OFFCURVE",
"428 860 CURVE SMOOTH",
"348 942 LINE",
"327 923 LINE",
"415 805 LINE"
);
}
);
width = 642;
}
);
note = Dcaron;
rightKerningGroup = D;
unicode = 010E;
},
{
glyphname = Dcroat;
lastChange = "2015-12-01 09:28:52 +0000";
layers = (
{
layerId = "4BDFF818-6971-4FC7-918A-7FEEE3878A0A";
name = "Light Italic";
paths = (
{
closed = 1;
nodes = (
"272 0 LINE SMOOTH",
"467 0 OFFCURVE",
"589 123 OFFCURVE",
"636 350 CURVE SMOOTH",
"644 394 OFFCURVE",
"649 434 OFFCURVE",
"649 470 CURVE SMOOTH",
"649 619 OFFCURVE",
"572 700 OFFCURVE",
"415 700 CURVE SMOOTH",
"122 700 LINE",
"117 677 LINE",
"145 677 LINE SMOOTH",
"181 677 OFFCURVE",
"200 667 OFFCURVE",
"195 642 CURVE SMOOTH",
"76 57 LINE SMOOTH",
"70 32 OFFCURVE",
"48 22 OFFCURVE",
"12 22 CURVE SMOOTH",
"-16 22 LINE",
"-20 0 LINE"
);
},
{
closed = 1;
nodes = (
"273 666 LINE",
"407 666 LINE SMOOTH",
"523 666 OFFCURVE",
"576 593 OFFCURVE",
"576 470 CURVE SMOOTH",
"576 434 OFFCURVE",
"571 394 OFFCURVE",
"563 350 CURVE SMOOTH",
"522 155 OFFCURVE",
"427 33 OFFCURVE",
"276 33 CURVE SMOOTH",
"144 33 LINE"
);
},
{
closed = 1;
nodes = (
"413 334 LINE",
"420 372 LINE",
"66 372 LINE",
"59 334 LINE"
);
}
);
width = 642;
}
);
note = Dcroat;
rightKerningGroup = D;
unicode = 0110;
},
{
glyphname = Ddotbelow;
lastChange = "2015-12-01 09:28:56 +0000";
layers = (
{
layerId = "4BDFF818-6971-4FC7-918A-7FEEE3878A0A";
name = "Light Italic";
paths = (
{
closed = 1;
nodes = (
"272 0 LINE SMOOTH",
"467 0 OFFCURVE",
"589 123 OFFCURVE",
"636 350 CURVE SMOOTH",
"644 394 OFFCURVE",
"649 434 OFFCURVE",
"649 470 CURVE SMOOTH",
"649 619 OFFCURVE",
"572 700 OFFCURVE",
"415 700 CURVE SMOOTH",
"122 700 LINE",
"117 677 LINE",
"145 677 LINE SMOOTH",
"181 677 OFFCURVE",
"200 667 OFFCURVE",
"195 642 CURVE SMOOTH",
"76 57 LINE SMOOTH",
"70 32 OFFCURVE",
"48 22 OFFCURVE",
"12 22 CURVE SMOOTH",
"-16 22 LINE",
"-20 0 LINE"
);
},
{
closed = 1;
nodes = (
"273 666 LINE",
"407 666 LINE SMOOTH",
"523 666 OFFCURVE",
"576 593 OFFCURVE",
"576 470 CURVE SMOOTH",
"576 434 OFFCURVE",
"571 394 OFFCURVE",
"563 350 CURVE SMOOTH",
"522 155 OFFCURVE",
"427 33 OFFCURVE",
"276 33 CURVE SMOOTH",
"144 33 LINE"
);
},
{
closed = 1;
nodes = (
"204 -135 OFFCURVE",
"215 -147 OFFCURVE",
"235 -147 CURVE SMOOTH",
"262 -147 OFFCURVE",
"284 -126 OFFCURVE",
"284 -95 CURVE SMOOTH",
"284 -76 OFFCURVE",
"273 -64 OFFCURVE",
"252 -64 CURVE SMOOTH",
"227 -64 OFFCURVE",
"204 -86 OFFCURVE",
"204 -116 CURVE SMOOTH"
);
}
);
width = 642;
}
);
note = Ddotbelow;
rightKerningGroup = D;
unicode = 1E0C;
},
{
glyphname = Dlinebelow;
lastChange = "2015-12-01 09:29:13 +0000";
layers = (
{
layerId = "4BDFF818-6971-4FC7-918A-7FEEE3878A0A";
name = "Light Italic";
paths = (
{
closed = 1;
nodes = (
"272 0 LINE SMOOTH",
"467 0 OFFCURVE",
"589 123 OFFCURVE",
"636 350 CURVE SMOOTH",
"644 394 OFFCURVE",
"649 434 OFFCURVE",
"649 470 CURVE SMOOTH",
"649 619 OFFCURVE",
"572 700 OFFCURVE",
"415 700 CURVE SMOOTH",
"122 700 LINE",
"117 677 LINE",
"145 677 LINE SMOOTH",
"181 677 OFFCURVE",
"200 667 OFFCURVE",
"195 642 CURVE SMOOTH",
"76 57 LINE SMOOTH",
"70 32 OFFCURVE",
"48 22 OFFCURVE",
"12 22 CURVE SMOOTH",
"-16 22 LINE",
"-20 0 LINE"
);
},
{
closed = 1;
nodes = (
"273 666 LINE",
"407 666 LINE SMOOTH",
"523 666 OFFCURVE",
"576 593 OFFCURVE",
"576 470 CURVE SMOOTH",
"576 434 OFFCURVE",
"571 394 OFFCURVE",
"563 350 CURVE SMOOTH",
"522 155 OFFCURVE",
"427 33 OFFCURVE",
"276 33 CURVE SMOOTH",
"144 33 LINE"
);
},
{
closed = 1;
nodes = (
"393 -106 LINE",
"399 -73 LINE",
"100 -73 LINE",
"93 -106 LINE"
);
}
);
width = 642;
}
);
note = Dlinebelow;
rightKerningGroup = D;
unicode = 1E0E;
},
{
glyphname = E;
lastChange = "2015-10-21 17:12:07 +0000";
layers = (
{
layerId = "4BDFF818-6971-4FC7-918A-7FEEE3878A0A";
name = "Light Italic";
paths = (
{
closed = 1;
nodes = (
"477 0 LINE",
"528 175 LINE",
"507 175 LINE",
"492 124 OFFCURVE",
"456 35 OFFCURVE",
"396 35 CURVE SMOOTH",
"142 35 LINE",
"271 665 LINE",
"515 665 LINE SMOOTH",
"560 665 OFFCURVE",
"569 624 OFFCURVE",
"569 585 CURVE SMOOTH",
"569 565 OFFCURVE",
"567 546 OFFCURVE",
"565 533 CURVE",
"587 533 LINE",
"620 700 LINE",
"120 700 LINE",
"115 677 LINE",
"142 677 LINE SMOOTH",
"180 677 OFFCURVE",
"198 667 OFFCURVE",
"193 642 CURVE SMOOTH",
"74 57 LINE SMOOTH",
"68 32 OFFCURVE",
"46 22 OFFCURVE",
"9 22 CURVE SMOOTH",
"-18 22 LINE",
"-22 0 LINE"
);
},
{
closed = 1;
nodes = (
"438 253 LINE",
"486 486 LINE",
"466 486 LINE",
"451 435 OFFCURVE",
"439 387 OFFCURVE",
"396 387 CURVE SMOOTH",
"185 387 LINE",
"178 352 LINE",
"388 352 LINE SMOOTH",
"415 352 OFFCURVE",
"422 333 OFFCURVE",
"422 306 CURVE SMOOTH",
"422 290 OFFCURVE",
"420 272 OFFCURVE",
"418 253 CURVE"
);
}
);
width = 567;
}
);
note = E;
unicode = 0045;
},
{
glyphname = Eacute;
lastChange = "2015-10-21 17:12:08 +0000";
layers = (
{
layerId = "4BDFF818-6971-4FC7-918A-7FEEE3878A0A";
name = "Light Italic";
paths = (
{
closed = 1;
nodes = (
"477 0 LINE",
"528 175 LINE",
"507 175 LINE",
"492 124 OFFCURVE",
"456 35 OFFCURVE",
"396 35 CURVE SMOOTH",
"142 35 LINE",
"271 665 LINE",
"515 665 LINE SMOOTH",
"560 665 OFFCURVE",
"569 624 OFFCURVE",
"569 585 CURVE SMOOTH",
"569 565 OFFCURVE",
"567 546 OFFCURVE",
"565 533 CURVE",
"587 533 LINE",
"620 700 LINE",
"120 700 LINE",
"115 677 LINE",
"142 677 LINE SMOOTH",
"180 677 OFFCURVE",
"198 667 OFFCURVE",
"193 642 CURVE SMOOTH",
"74 57 LINE SMOOTH",
"68 32 OFFCURVE",
"46 22 OFFCURVE",
"9 22 CURVE SMOOTH",
"-18 22 LINE",
"-22 0 LINE"
);
},
{
closed = 1;
nodes = (
"438 253 LINE",
"486 486 LINE",
"466 486 LINE",
"451 435 OFFCURVE",
"439 387 OFFCURVE",
"396 387 CURVE SMOOTH",
"185 387 LINE",
"178 352 LINE",
"388 352 LINE SMOOTH",
"415 352 OFFCURVE",
"422 333 OFFCURVE",
"422 306 CURVE SMOOTH",
"422 290 OFFCURVE",
"420 272 OFFCURVE",
"418 253 CURVE"
);
},
{
closed = 1;
nodes = (
"505 863 LINE SMOOTH",
"524 873 OFFCURVE",
"537 885 OFFCURVE",
"540 899 CURVE",
"541 912 OFFCURVE",
"537 924 OFFCURVE",
"520 924 CURVE SMOOTH",
"504 924 OFFCURVE",
"487 911 OFFCURVE",
"478 904 CURVE SMOOTH",
"348 804 LINE",
"358 784 LINE"
);
}
);
width = 567;
}
);
note = Eacute;
unicode = 00C9;
},
{
glyphname = Ebreve;
lastChange = "2015-12-01 09:49:01 +0000";
layers = (
{
layerId = "4BDFF818-6971-4FC7-918A-7FEEE3878A0A";
name = "Light Italic";
paths = (
{
closed = 1;
nodes = (
"477 0 LINE",
"528 175 LINE",
"507 175 LINE",
"492 124 OFFCURVE",
"456 35 OFFCURVE",
"396 35 CURVE SMOOTH",
"142 35 LINE",
"271 665 LINE",
"515 665 LINE SMOOTH",
"560 665 OFFCURVE",
"569 624 OFFCURVE",
"569 585 CURVE SMOOTH",
"569 565 OFFCURVE",
"567 546 OFFCURVE",
"565 533 CURVE",
"587 533 LINE",
"620 700 LINE",
"120 700 LINE",
"115 677 LINE",
"142 677 LINE SMOOTH",
"180 677 OFFCURVE",
"198 667 OFFCURVE",
"193 642 CURVE SMOOTH",
"74 57 LINE SMOOTH",
"68 32 OFFCURVE",
"46 22 OFFCURVE",
"9 22 CURVE SMOOTH",
"-18 22 LINE",
"-22 0 LINE"
);
},
{
closed = 1;
nodes = (
"438 253 LINE",
"486 486 LINE",
"466 486 LINE",
"451 435 OFFCURVE",
"439 387 OFFCURVE",
"396 387 CURVE SMOOTH",
"185 387 LINE",
"178 352 LINE",
"388 352 LINE SMOOTH",
"415 352 OFFCURVE",
"422 333 OFFCURVE",
"422 306 CURVE SMOOTH",
"422 290 OFFCURVE",
"420 272 OFFCURVE",
"418 253 CURVE"
);
},
{
closed = 1;
nodes = (
"513 776 OFFCURVE",
"565 825 OFFCURVE",
"586 901 CURVE",
"556 901 LINE",
"536 835 OFFCURVE",
"488 815 OFFCURVE",
"434 815 CURVE SMOOTH",
"380 815 OFFCURVE",
"339 835 OFFCURVE",
"345 901 CURVE",
"316 901 LINE",
"315 891 OFFCURVE",
"314 882 OFFCURVE",
"314 873 CURVE SMOOTH",
"314 812 OFFCURVE",
"349 776 OFFCURVE",
"426 776 CURVE SMOOTH"
);
}
);
width = 567;
}
);
note = Ebreve;
unicode = 0114;
},
{
glyphname = Ecaron;
lastChange = "2015-10-21 17:12:07 +0000";
layers = (
{
layerId = "4BDFF818-6971-4FC7-918A-7FEEE3878A0A";
name = "Light Italic";
paths = (
{
closed = 1;
nodes = (
"477 0 LINE",
"528 175 LINE",
"507 175 LINE",
"492 124 OFFCURVE",
"456 35 OFFCURVE",
"396 35 CURVE SMOOTH",
"142 35 LINE",
"271 665 LINE",
"515 665 LINE SMOOTH",
"560 665 OFFCURVE",
"569 624 OFFCURVE",
"569 585 CURVE SMOOTH",
"569 565 OFFCURVE",
"567 546 OFFCURVE",
"565 533 CURVE",
"587 533 LINE",
"620 700 LINE",
"120 700 LINE",
"115 677 LINE",
"142 677 LINE SMOOTH",
"180 677 OFFCURVE",
"198 667 OFFCURVE",
"193 642 CURVE SMOOTH",
"74 57 LINE SMOOTH",
"68 32 OFFCURVE",
"46 22 OFFCURVE",
"9 22 CURVE SMOOTH",
"-18 22 LINE",
"-22 0 LINE"
);
},
{
closed = 1;
nodes = (
"438 253 LINE",
"486 486 LINE",
"466 486 LINE",
"451 435 OFFCURVE",
"439 387 OFFCURVE",
"396 387 CURVE SMOOTH",
"185 387 LINE",
"178 352 LINE",
"388 352 LINE SMOOTH",
"415 352 OFFCURVE",
"422 333 OFFCURVE",
"422 306 CURVE SMOOTH",
"422 290 OFFCURVE",
"420 272 OFFCURVE",
"418 253 CURVE"
);
},
{
closed = 1;
nodes = (
"446 784 LINE",
"583 902 LINE",
"569 921 LINE",
"456 839 LINE",
"448 834 OFFCURVE",
"441 830 OFFCURVE",
"436 830 CURVE SMOOTH",
"431 830 OFFCURVE",
"425 832 OFFCURVE",
"419 839 CURVE SMOOTH",
"338 921 LINE",
"318 902 LINE",
"405 784 LINE"
);
}
);
width = 567;
}
);
note = Ecaron;
unicode = 011A;
},
{
glyphname = Ecircumflex;
lastChange = "2015-10-21 17:12:07 +0000";
layers = (
{
layerId = "4BDFF818-6971-4FC7-918A-7FEEE3878A0A";
name = "Light Italic";
paths = (
{
closed = 1;
nodes = (
"477 0 LINE",
"528 175 LINE",
"507 175 LINE",
"492 124 OFFCURVE",
"456 35 OFFCURVE",
"396 35 CURVE SMOOTH",
"142 35 LINE",
"271 665 LINE",
"515 665 LINE SMOOTH",
"560 665 OFFCURVE",
"569 624 OFFCURVE",
"569 585 CURVE SMOOTH",
"569 565 OFFCURVE",
"567 546 OFFCURVE",
"565 533 CURVE",
"587 533 LINE",
"620 700 LINE",
"120 700 LINE",
"115 677 LINE",
"142 677 LINE SMOOTH",
"180 677 OFFCURVE",
"198 667 OFFCURVE",
"193 642 CURVE SMOOTH",
"74 57 LINE SMOOTH",
"68 32 OFFCURVE",
"46 22 OFFCURVE",
"9 22 CURVE SMOOTH",
"-18 22 LINE",
"-22 0 LINE"
);
},
{
closed = 1;
nodes = (
"438 253 LINE",
"486 486 LINE",
"466 486 LINE",
"451 435 OFFCURVE",
"439 387 OFFCURVE",
"396 387 CURVE SMOOTH",
"185 387 LINE",
"178 352 LINE",
"388 352 LINE SMOOTH",
"415 352 OFFCURVE",
"422 333 OFFCURVE",
"422 306 CURVE SMOOTH",
"422 290 OFFCURVE",
"420 272 OFFCURVE",
"418 253 CURVE"
);
},
{
closed = 1;
nodes = (
"422 866 LINE",
"430 871 OFFCURVE",
"439 875 OFFCURVE",
"444 875 CURVE SMOOTH",
"448 875 OFFCURVE",
"454 871 OFFCURVE",
"460 866 CURVE",
"540 784 LINE",
"561 803 LINE",
"472 921 LINE",
"431 921 LINE",
"297 803 LINE",
"308 784 LINE"
);
}
);
width = 567;
}
);
note = Ecircumflex;
unicode = 00CA;
},
{
glyphname = Ecircumflexacute;
lastChange = "2015-10-21 17:12:07 +0000";
layers = (
{
layerId = "4BDFF818-6971-4FC7-918A-7FEEE3878A0A";
name = "Light Italic";
paths = (
{
closed = 1;
nodes = (
"477 0 LINE",
"528 175 LINE",
"507 175 LINE",
"492 124 OFFCURVE",
"456 35 OFFCURVE",
"396 35 CURVE SMOOTH",
"142 35 LINE",
"271 665 LINE",
"515 665 LINE SMOOTH",
"560 665 OFFCURVE",
"569 624 OFFCURVE",
"569 585 CURVE SMOOTH",
"569 565 OFFCURVE",
"567 546 OFFCURVE",
"565 533 CURVE",
"587 533 LINE",
"620 700 LINE",
"120 700 LINE",
"115 677 LINE",
"142 677 LINE SMOOTH",
"180 677 OFFCURVE",
"198 667 OFFCURVE",
"193 642 CURVE SMOOTH",
"74 57 LINE SMOOTH",
"68 32 OFFCURVE",
"46 22 OFFCURVE",
"9 22 CURVE SMOOTH",
"-18 22 LINE",
"-22 0 LINE"
);
},
{
closed = 1;
nodes = (
"438 253 LINE",
"486 486 LINE",
"466 486 LINE",
"451 435 OFFCURVE",
"439 387 OFFCURVE",
"396 387 CURVE SMOOTH",
"185 387 LINE",
"178 352 LINE",
"388 352 LINE SMOOTH",
"415 352 OFFCURVE",
"422 333 OFFCURVE",
"422 306 CURVE SMOOTH",
"422 290 OFFCURVE",
"420 272 OFFCURVE",
"418 253 CURVE"
);
},
{
closed = 1;
nodes = (
"414 862 LINE SMOOTH",
"422 868 OFFCURVE",
"431 874 OFFCURVE",
"437 874 CURVE SMOOTH",
"442 874 OFFCURVE",
"447 870 OFFCURVE",
"453 865 CURVE",
"533 783 LINE",
"552 803 LINE",
"467 921 LINE",
"426 921 LINE",
"292 803 LINE",
"304 783 LINE"
);
},
{
closed = 1;
nodes = (
"674 957 LINE SMOOTH",
"694 967 OFFCURVE",
"708 981 OFFCURVE",
"710 993 CURVE",
"712 1006 OFFCURVE",
"706 1019 OFFCURVE",
"688 1019 CURVE SMOOTH",
"673 1019 OFFCURVE",
"656 1006 OFFCURVE",
"645 997 CURVE SMOOTH",
"533 906 LINE",
"543 888 LINE"
);
}
);
width = 567;
}
);
note = Ecircumflexacute;
unicode = 1EBE;
},
{
glyphname = Ecircumflexdotbelow;
lastChange = "2015-10-21 17:12:07 +0000";
layers = (
{
layerId = "4BDFF818-6971-4FC7-918A-7FEEE3878A0A";
name = "Light Italic";
paths = (
{
closed = 1;
nodes = (
"477 0 LINE",
"528 175 LINE",
"507 175 LINE",
"492 124 OFFCURVE",
"456 35 OFFCURVE",
"396 35 CURVE SMOOTH",
"142 35 LINE",
"271 665 LINE",
"515 665 LINE SMOOTH",
"560 665 OFFCURVE",
"569 624 OFFCURVE",
"569 585 CURVE SMOOTH",
"569 565 OFFCURVE",
"567 546 OFFCURVE",
"565 533 CURVE",
"587 533 LINE",
"620 700 LINE",
"120 700 LINE",
"115 677 LINE",
"142 677 LINE SMOOTH",
"180 677 OFFCURVE",
"198 667 OFFCURVE",
"193 642 CURVE SMOOTH",
"74 57 LINE SMOOTH",
"68 32 OFFCURVE",
"46 22 OFFCURVE",
"9 22 CURVE SMOOTH",
"-18 22 LINE",
"-22 0 LINE"
);
},
{
closed = 1;
nodes = (
"260 -147 OFFCURVE",
"282 -126 OFFCURVE",
"282 -95 CURVE SMOOTH",
"282 -76 OFFCURVE",
"271 -64 OFFCURVE",
"251 -64 CURVE SMOOTH",
"225 -64 OFFCURVE",
"202 -86 OFFCURVE",
"202 -116 CURVE SMOOTH",
"202 -135 OFFCURVE",
"213 -147 OFFCURVE",
"233 -147 CURVE SMOOTH"
);
},
{
closed = 1;
nodes = (
"438 253 LINE",
"486 486 LINE",
"466 486 LINE",
"451 435 OFFCURVE",
"439 387 OFFCURVE",
"396 387 CURVE SMOOTH",
"185 387 LINE",
"178 352 LINE",
"388 352 LINE SMOOTH",
"415 352 OFFCURVE",
"422 333 OFFCURVE",
"422 306 CURVE SMOOTH",
"422 290 OFFCURVE",
"420 272 OFFCURVE",
"418 253 CURVE"
);
},
{
closed = 1;
nodes = (
"416 866 LINE",
"423 871 OFFCURVE",
"432 875 OFFCURVE",
"437 875 CURVE SMOOTH",
"442 875 OFFCURVE",
"447 871 OFFCURVE",
"453 866 CURVE",
"533 784 LINE",
"554 803 LINE",
"466 921 LINE",
"424 921 LINE",
"290 803 LINE",
"301 784 LINE"
);
}
);
width = 567;
}
);
note = Ecircumflexdotbelow;
unicode = 1EC6;
},
{
glyphname = Ecircumflexgrave;
lastChange = "2015-10-21 17:12:07 +0000";
layers = (
{
layerId = "4BDFF818-6971-4FC7-918A-7FEEE3878A0A";
name = "Light Italic";
paths = (
{
closed = 1;
nodes = (
"477 0 LINE",
"528 175 LINE",
"507 175 LINE",
"492 124 OFFCURVE",
"456 35 OFFCURVE",
"396 35 CURVE SMOOTH",
"142 35 LINE",
"271 665 LINE",
"515 665 LINE SMOOTH",
"560 665 OFFCURVE",
"569 624 OFFCURVE",
"569 585 CURVE SMOOTH",
"569 565 OFFCURVE",
"567 546 OFFCURVE",
"565 533 CURVE",
"587 533 LINE",
"620 700 LINE",
"120 700 LINE",
"115 677 LINE",
"142 677 LINE SMOOTH",
"180 677 OFFCURVE",
"198 667 OFFCURVE",
"193 642 CURVE SMOOTH",
"74 57 LINE SMOOTH",
"68 32 OFFCURVE",
"46 22 OFFCURVE",
"9 22 CURVE SMOOTH",
"-18 22 LINE",
"-22 0 LINE"
);
},
{
closed = 1;
nodes = (
"438 253 LINE",
"486 486 LINE",
"466 486 LINE",
"451 435 OFFCURVE",
"439 387 OFFCURVE",
"396 387 CURVE SMOOTH",
"185 387 LINE",
"178 352 LINE",
"388 352 LINE SMOOTH",
"415 352 OFFCURVE",
"422 333 OFFCURVE",
"422 306 CURVE SMOOTH",
"422 290 OFFCURVE",
"420 272 OFFCURVE",
"418 253 CURVE"
);
},
{
closed = 1;
nodes = (
"362 906 LINE",
"285 997 LINE",
"278 1006 OFFCURVE",
"268 1019 OFFCURVE",
"252 1019 CURVE SMOOTH",
"235 1019 OFFCURVE",
"223 1006 OFFCURVE",
"221 993 CURVE",
"218 981 OFFCURVE",
"225 967 OFFCURVE",
"241 957 CURVE",
"345 888 LINE"
);
},
{
closed = 1;
nodes = (
"414 862 LINE SMOOTH",
"422 868 OFFCURVE",
"431 874 OFFCURVE",
"437 874 CURVE SMOOTH",
"442 874 OFFCURVE",
"447 870 OFFCURVE",
"453 865 CURVE",
"533 783 LINE",
"552 803 LINE",
"467 921 LINE",
"426 921 LINE",
"292 803 LINE",
"304 783 LINE"
);
}
);
width = 567;
}
);
note = Ecircumflexgrave;
unicode = 1EC0;
},
{
glyphname = Ecircumflexhookabove;
lastChange = "2015-10-21 17:12:07 +0000";
layers = (
{
layerId = "4BDFF818-6971-4FC7-918A-7FEEE3878A0A";
name = "Light Italic";
paths = (
{
closed = 1;
nodes = (
"477 0 LINE",
"528 175 LINE",
"507 175 LINE",
"492 124 OFFCURVE",
"456 35 OFFCURVE",
"396 35 CURVE SMOOTH",
"142 35 LINE",
"271 665 LINE",
"515 665 LINE SMOOTH",
"560 665 OFFCURVE",
"569 624 OFFCURVE",
"569 585 CURVE SMOOTH",
"569 565 OFFCURVE",
"567 546 OFFCURVE",
"565 533 CURVE",
"587 533 LINE",
"620 700 LINE",
"120 700 LINE",
"115 677 LINE",
"142 677 LINE SMOOTH",
"180 677 OFFCURVE",
"198 667 OFFCURVE",
"193 642 CURVE SMOOTH",
"74 57 LINE SMOOTH",
"68 32 OFFCURVE",
"46 22 OFFCURVE",
"9 22 CURVE SMOOTH",
"-18 22 LINE",
"-22 0 LINE"
);
},
{
closed = 1;
nodes = (
"438 253 LINE",
"486 486 LINE",
"466 486 LINE",
"451 435 OFFCURVE",
"439 387 OFFCURVE",
"396 387 CURVE SMOOTH",
"185 387 LINE",
"178 352 LINE",
"388 352 LINE SMOOTH",
"415 352 OFFCURVE",
"422 333 OFFCURVE",
"422 306 CURVE SMOOTH",
"422 290 OFFCURVE",
"420 272 OFFCURVE",
"418 253 CURVE"
);
},
{
closed = 1;
nodes = (
"404 855 LINE",
"416 864 OFFCURVE",
"428 874 OFFCURVE",
"437 874 CURVE SMOOTH",
"442 874 OFFCURVE",
"447 870 OFFCURVE",
"453 865 CURVE",
"533 783 LINE",
"552 803 LINE",
"467 921 LINE",
"426 921 LINE",
"292 803 LINE",
"304 783 LINE"
);
},
{
closed = 1;
nodes = (
"597 890 LINE",
"581 896 OFFCURVE",
"572 900 OFFCURVE",
"575 917 CURVE",
"581 946 OFFCURVE",
"666 955 OFFCURVE",
"666 1006 CURVE SMOOTH",
"666 1035 OFFCURVE",
"634 1048 OFFCURVE",
"599 1048 CURVE SMOOTH",
"571 1048 OFFCURVE",
"528 1038 OFFCURVE",
"522 1009 CURVE",
"519 997 OFFCURVE",
"528 989 OFFCURVE",
"538 989 CURVE SMOOTH",
"564 989 OFFCURVE",
"559 1026 OFFCURVE",
"599 1026 CURVE SMOOTH",
"616 1026 OFFCURVE",
"625 1014 OFFCURVE",
"622 1000 CURVE SMOOTH",
"614 962 OFFCURVE",
"545 954 OFFCURVE",
"538 916 CURVE SMOOTH",
"537 913 OFFCURVE",
"537 910 OFFCURVE",
"537 907 CURVE SMOOTH",
"537 888 OFFCURVE",
"550 873 OFFCURVE",
"586 873 CURVE"
);
}
);
width = 567;
}
);
note = Ecircumflexhookabove;
unicode = 1EC2;
},
{
glyphname = Ecircumflextilde;
lastChange = "2015-10-21 17:12:07 +0000";
layers = (
{
layerId = "4BDFF818-6971-4FC7-918A-7FEEE3878A0A";
name = "Light Italic";
paths = (
{
closed = 1;
nodes = (
"477 0 LINE",
"528 175 LINE",
"507 175 LINE",
"492 124 OFFCURVE",
"456 35 OFFCURVE",
"396 35 CURVE SMOOTH",
"142 35 LINE",
"271 665 LINE",
"515 665 LINE SMOOTH",
"560 665 OFFCURVE",
"569 624 OFFCURVE",
"569 585 CURVE SMOOTH",
"569 565 OFFCURVE",
"567 546 OFFCURVE",
"565 533 CURVE",
"587 533 LINE",
"620 700 LINE",
"120 700 LINE",
"115 677 LINE",
"142 677 LINE SMOOTH",
"180 677 OFFCURVE",
"198 667 OFFCURVE",
"193 642 CURVE SMOOTH",
"74 57 LINE SMOOTH",
"68 32 OFFCURVE",
"46 22 OFFCURVE",
"9 22 CURVE SMOOTH",
"-18 22 LINE",
"-22 0 LINE"
);
},
{
closed = 1;
nodes = (
"438 253 LINE",
"486 486 LINE",
"466 486 LINE",
"451 435 OFFCURVE",
"439 387 OFFCURVE",
"396 387 CURVE SMOOTH",
"185 387 LINE",
"178 352 LINE",
"388 352 LINE SMOOTH",
"415 352 OFFCURVE",
"422 333 OFFCURVE",
"422 306 CURVE SMOOTH",
"422 290 OFFCURVE",
"420 272 OFFCURVE",
"418 253 CURVE"
);
},
{
closed = 1;
nodes = (
"414 862 LINE SMOOTH",
"422 868 OFFCURVE",
"431 874 OFFCURVE",
"437 874 CURVE SMOOTH",
"442 874 OFFCURVE",
"447 870 OFFCURVE",
"453 865 CURVE",
"533 783 LINE",
"552 803 LINE",
"467 921 LINE",
"426 921 LINE",
"292 803 LINE",
"304 783 LINE"
);
},
{
closed = 1;
nodes = (
"346 988 OFFCURVE",
"367 1010 OFFCURVE",
"396 1010 CURVE SMOOTH",
"441 1010 OFFCURVE",
"473 954 OFFCURVE",
"518 954 CURVE SMOOTH",
"564 954 OFFCURVE",
"600 995 OFFCURVE",
"621 1048 CURVE",
"605 1058 LINE",
"586 1018 OFFCURVE",
"565 994 OFFCURVE",
"535 994 CURVE SMOOTH",
"492 994 OFFCURVE",
"458 1049 OFFCURVE",
"413 1049 CURVE SMOOTH",
"369 1049 OFFCURVE",
"330 1012 OFFCURVE",
"311 960 CURVE",
"325 949 LINE"
);
}
);
width = 567;
}
);
note = Ecircumflextilde;
unicode = 1EC4;
},
{
glyphname = Edieresis;
lastChange = "2015-10-21 17:12:07 +0000";
layers = (
{
layerId = "4BDFF818-6971-4FC7-918A-7FEEE3878A0A";
name = "Light Italic";
paths = (
{
closed = 1;
nodes = (
"477 0 LINE",
"528 175 LINE",
"507 175 LINE",
"492 124 OFFCURVE",
"456 35 OFFCURVE",
"396 35 CURVE SMOOTH",
"142 35 LINE",
"271 665 LINE",
"515 665 LINE SMOOTH",
"560 665 OFFCURVE",
"569 624 OFFCURVE",
"569 585 CURVE SMOOTH",
"569 565 OFFCURVE",
"567 546 OFFCURVE",
"565 533 CURVE",
"587 533 LINE",
"620 700 LINE",
"120 700 LINE",
"115 677 LINE",
"142 677 LINE SMOOTH",
"180 677 OFFCURVE",
"198 667 OFFCURVE",
"193 642 CURVE SMOOTH",
"74 57 LINE SMOOTH",
"68 32 OFFCURVE",
"46 22 OFFCURVE",
"9 22 CURVE SMOOTH",
"-18 22 LINE",
"-22 0 LINE"
);
},
{
closed = 1;
nodes = (
"438 253 LINE",
"486 486 LINE",
"466 486 LINE",
"451 435 OFFCURVE",
"439 387 OFFCURVE",
"396 387 CURVE SMOOTH",
"185 387 LINE",
"178 352 LINE",
"388 352 LINE SMOOTH",
"415 352 OFFCURVE",
"422 333 OFFCURVE",
"422 306 CURVE SMOOTH",
"422 290 OFFCURVE",
"420 272 OFFCURVE",
"418 253 CURVE"
);
},
{
closed = 1;
nodes = (
"355 782 OFFCURVE",
"375 805 OFFCURVE",
"375 835 CURVE SMOOTH",
"375 853 OFFCURVE",
"364 865 OFFCURVE",
"344 865 CURVE SMOOTH",
"320 865 OFFCURVE",
"302 848 OFFCURVE",
"297 823 CURVE SMOOTH",
"296 820 OFFCURVE",
"296 816 OFFCURVE",
"296 813 CURVE SMOOTH",
"296 794 OFFCURVE",
"307 782 OFFCURVE",
"327 782 CURVE SMOOTH"
);
},
{
closed = 1;
nodes = (
"556 782 OFFCURVE",
"576 805 OFFCURVE",
"576 835 CURVE SMOOTH",
"576 853 OFFCURVE",
"564 865 OFFCURVE",
"544 865 CURVE SMOOTH",
"520 865 OFFCURVE",
"502 848 OFFCURVE",
"496 823 CURVE SMOOTH",
"495 820 OFFCURVE",
"495 816 OFFCURVE",
"495 813 CURVE SMOOTH",
"495 795 OFFCURVE",
"508 782 OFFCURVE",
"528 782 CURVE SMOOTH"
);
}
);
width = 567;
}
);
note = Edieresis;
unicode = 00CB;
},
{
glyphname = Edotaccent;
lastChange = "2015-10-21 17:12:07 +0000";
layers = (
{
layerId = "4BDFF818-6971-4FC7-918A-7FEEE3878A0A";
name = "Light Italic";
paths = (
{
closed = 1;
nodes = (
"477 0 LINE",
"528 175 LINE",
"507 175 LINE",
"492 124 OFFCURVE",
"456 35 OFFCURVE",
"396 35 CURVE SMOOTH",
"142 35 LINE",
"271 665 LINE",
"515 665 LINE SMOOTH",
"560 665 OFFCURVE",
"569 624 OFFCURVE",
"569 585 CURVE SMOOTH",
"569 565 OFFCURVE",
"567 546 OFFCURVE",
"565 533 CURVE",
"587 533 LINE",
"620 700 LINE",
"120 700 LINE",
"115 677 LINE",
"142 677 LINE SMOOTH",
"180 677 OFFCURVE",
"198 667 OFFCURVE",
"193 642 CURVE SMOOTH",
"74 57 LINE SMOOTH",
"68 32 OFFCURVE",
"46 22 OFFCURVE",
"9 22 CURVE SMOOTH",
"-18 22 LINE",
"-22 0 LINE"
);
},
{
closed = 1;
nodes = (
"438 253 LINE",
"486 486 LINE",
"466 486 LINE",
"451 435 OFFCURVE",
"439 387 OFFCURVE",
"396 387 CURVE SMOOTH",
"185 387 LINE",
"178 352 LINE",
"388 352 LINE SMOOTH",
"415 352 OFFCURVE",
"422 333 OFFCURVE",
"422 306 CURVE SMOOTH",
"422 290 OFFCURVE",
"420 272 OFFCURVE",
"418 253 CURVE"
);
},
{
closed = 1;
nodes = (
"447 763 OFFCURVE",
"466 779 OFFCURVE",
"470 804 CURVE",
"471 808 OFFCURVE",
"471 812 OFFCURVE",
"471 816 CURVE SMOOTH",
"471 834 OFFCURVE",
"460 845 OFFCURVE",
"441 845 CURVE SMOOTH",
"417 845 OFFCURVE",
"398 829 OFFCURVE",
"393 804 CURVE",
"392 800 OFFCURVE",
"392 797 OFFCURVE",
"392 794 CURVE SMOOTH",
"392 775 OFFCURVE",
"404 763 OFFCURVE",
"424 763 CURVE SMOOTH"
);
}
);
width = 567;
}
);
note = Edotaccent;
unicode = 0116;
},
{
glyphname = Edotbelow;
lastChange = "2015-10-21 17:12:07 +0000";
layers = (
{
layerId = "4BDFF818-6971-4FC7-918A-7FEEE3878A0A";
name = "Light Italic";
paths = (
{
closed = 1;
nodes = (
"477 0 LINE",
"528 175 LINE",
"507 175 LINE",
"492 124 OFFCURVE",
"456 35 OFFCURVE",
"396 35 CURVE SMOOTH",
"142 35 LINE",
"271 665 LINE",
"515 665 LINE SMOOTH",
"560 665 OFFCURVE",
"569 624 OFFCURVE",
"569 585 CURVE SMOOTH",
"569 565 OFFCURVE",
"567 546 OFFCURVE",
"565 533 CURVE",
"587 533 LINE",
"620 700 LINE",
"120 700 LINE",
"115 677 LINE",
"142 677 LINE SMOOTH",
"180 677 OFFCURVE",
"198 667 OFFCURVE",
"193 642 CURVE SMOOTH",
"74 57 LINE SMOOTH",
"68 32 OFFCURVE",
"46 22 OFFCURVE",
"9 22 CURVE SMOOTH",
"-18 22 LINE",
"-22 0 LINE"
);
},
{
closed = 1;
nodes = (
"255 -147 OFFCURVE",
"277 -126 OFFCURVE",
"277 -95 CURVE SMOOTH",
"277 -76 OFFCURVE",
"266 -64 OFFCURVE",
"246 -64 CURVE SMOOTH",
"220 -64 OFFCURVE",
"197 -86 OFFCURVE",
"197 -116 CURVE SMOOTH",
"197 -135 OFFCURVE",
"208 -147 OFFCURVE",
"228 -147 CURVE SMOOTH"
);
},
{
closed = 1;
nodes = (
"438 253 LINE",
"486 486 LINE",
"466 486 LINE",
"451 435 OFFCURVE",
"439 387 OFFCURVE",
"396 387 CURVE SMOOTH",
"185 387 LINE",
"178 352 LINE",
"388 352 LINE SMOOTH",
"415 352 OFFCURVE",
"422 333 OFFCURVE",
"422 306 CURVE SMOOTH",
"422 290 OFFCURVE",
"420 272 OFFCURVE",
"418 253 CURVE"
);
}
);
width = 567;
}
);
note = Edotbelow;
unicode = 1EB8;
},
{
glyphname = Egrave;
lastChange = "2015-10-21 17:12:07 +0000";
layers = (
{
layerId = "4BDFF818-6971-4FC7-918A-7FEEE3878A0A";
name = "Light Italic";
paths = (
{
closed = 1;
nodes = (
"477 0 LINE",
"528 175 LINE",
"507 175 LINE",
"492 124 OFFCURVE",
"456 35 OFFCURVE",
"396 35 CURVE SMOOTH",
"142 35 LINE",
"271 665 LINE",
"515 665 LINE SMOOTH",
"560 665 OFFCURVE",
"569 624 OFFCURVE",
"569 585 CURVE SMOOTH",
"569 565 OFFCURVE",
"567 546 OFFCURVE",
"565 533 CURVE",
"587 533 LINE",
"620 700 LINE",
"120 700 LINE",
"115 677 LINE",
"142 677 LINE SMOOTH",
"180 677 OFFCURVE",
"198 667 OFFCURVE",
"193 642 CURVE SMOOTH",
"74 57 LINE SMOOTH",
"68 32 OFFCURVE",
"46 22 OFFCURVE",
"9 22 CURVE SMOOTH",
"-18 22 LINE",
"-22 0 LINE"
);
},
{
closed = 1;
nodes = (
"438 253 LINE",
"486 486 LINE",
"466 486 LINE",
"451 435 OFFCURVE",
"439 387 OFFCURVE",
"396 387 CURVE SMOOTH",
"185 387 LINE",
"178 352 LINE",
"388 352 LINE SMOOTH",
"415 352 OFFCURVE",
"422 333 OFFCURVE",
"422 306 CURVE SMOOTH",
"422 290 OFFCURVE",
"420 272 OFFCURVE",
"418 253 CURVE"
);
},
{
closed = 1;
nodes = (
"515 804 LINE",
"428 904 LINE",
"420 912 OFFCURVE",
"410 924 OFFCURVE",
"395 924 CURVE SMOOTH",
"382 924 OFFCURVE",
"368 914 OFFCURVE",
"365 899 CURVE",
"361 884 OFFCURVE",
"371 870 OFFCURVE",
"382 863 CURVE",
"497 784 LINE"
);
}
);
width = 567;
}
);
note = Egrave;
unicode = 00C8;
},
{
glyphname = Ehookabove;
lastChange = "2015-10-21 17:12:07 +0000";
layers = (
{
layerId = "4BDFF818-6971-4FC7-918A-7FEEE3878A0A";
name = "Light Italic";
paths = (
{
closed = 1;
nodes = (
"477 0 LINE",
"528 175 LINE",
"507 175 LINE",
"492 124 OFFCURVE",
"456 35 OFFCURVE",
"396 35 CURVE SMOOTH",
"142 35 LINE",
"271 665 LINE",
"515 665 LINE SMOOTH",
"560 665 OFFCURVE",
"569 624 OFFCURVE",
"569 585 CURVE SMOOTH",
"569 565 OFFCURVE",
"567 546 OFFCURVE",
"565 533 CURVE",
"587 533 LINE",
"620 700 LINE",
"120 700 LINE",
"115 677 LINE",
"142 677 LINE SMOOTH",
"180 677 OFFCURVE",
"198 667 OFFCURVE",
"193 642 CURVE SMOOTH",
"74 57 LINE SMOOTH",
"68 32 OFFCURVE",
"46 22 OFFCURVE",
"9 22 CURVE SMOOTH",
"-18 22 LINE",
"-22 0 LINE"
);
},
{
closed = 1;
nodes = (
"438 253 LINE",
"486 486 LINE",
"466 486 LINE",
"451 435 OFFCURVE",
"439 387 OFFCURVE",
"396 387 CURVE SMOOTH",
"185 387 LINE",
"178 352 LINE",
"388 352 LINE SMOOTH",
"415 352 OFFCURVE",
"422 333 OFFCURVE",
"422 306 CURVE SMOOTH",
"422 290 OFFCURVE",
"420 272 OFFCURVE",
"418 253 CURVE"
);
},
{
closed = 1;
nodes = (
"462 797 LINE",
"444 803 OFFCURVE",
"435 808 OFFCURVE",
"439 826 CURVE SMOOTH",
"446 860 OFFCURVE",
"541 876 OFFCURVE",
"541 935 CURVE SMOOTH",
"541 967 OFFCURVE",
"514 983 OFFCURVE",
"472 983 CURVE SMOOTH",
"429 983 OFFCURVE",
"391 966 OFFCURVE",
"384 935 CURVE",
"383 932 OFFCURVE",
"383 929 OFFCURVE",
"383 927 CURVE SMOOTH",
"383 917 OFFCURVE",
"388 912 OFFCURVE",
"398 912 CURVE SMOOTH",
"417 912 OFFCURVE",
"421 926 OFFCURVE",
"428 937 CURVE",
"436 952 OFFCURVE",
"453 957 OFFCURVE",
"468 957 CURVE SMOOTH",
"488 957 OFFCURVE",
"496 947 OFFCURVE",
"496 934 CURVE SMOOTH",
"496 880 OFFCURVE",
"398 872 OFFCURVE",
"398 815 CURVE SMOOTH",
"398 794 OFFCURVE",
"413 779 OFFCURVE",
"449 779 CURVE"
);
}
);
width = 567;
}
);
note = Ehookabove;
unicode = 1EBA;
},
{
glyphname = Emacron;
lastChange = "2015-10-21 17:12:07 +0000";
layers = (
{
layerId = "4BDFF818-6971-4FC7-918A-7FEEE3878A0A";
name = "Light Italic";
paths = (
{
closed = 1;
nodes = (
"477 0 LINE",
"528 175 LINE",
"507 175 LINE",
"492 124 OFFCURVE",
"456 35 OFFCURVE",
"396 35 CURVE SMOOTH",
"142 35 LINE",
"271 665 LINE",
"515 665 LINE SMOOTH",
"560 665 OFFCURVE",
"569 624 OFFCURVE",
"569 585 CURVE SMOOTH",
"569 565 OFFCURVE",
"567 546 OFFCURVE",
"565 533 CURVE",
"587 533 LINE",
"620 700 LINE",
"120 700 LINE",
"115 677 LINE",
"142 677 LINE SMOOTH",
"180 677 OFFCURVE",
"198 667 OFFCURVE",
"193 642 CURVE SMOOTH",
"74 57 LINE SMOOTH",
"68 32 OFFCURVE",
"46 22 OFFCURVE",
"9 22 CURVE SMOOTH",
"-18 22 LINE",
"-22 0 LINE"
);
},
{
closed = 1;
nodes = (
"438 253 LINE",
"486 486 LINE",
"466 486 LINE",
"451 435 OFFCURVE",
"439 387 OFFCURVE",
"396 387 CURVE SMOOTH",
"185 387 LINE",
"178 352 LINE",
"388 352 LINE SMOOTH",
"415 352 OFFCURVE",
"422 333 OFFCURVE",
"422 306 CURVE SMOOTH",
"422 290 OFFCURVE",
"420 272 OFFCURVE",
"418 253 CURVE"
);
},
{
closed = 1;
nodes = (
"574 784 LINE",
"582 819 LINE",
"282 819 LINE",
"275 784 LINE"
);
}
);
width = 567;
}
);
note = Emacron;
unicode = 0112;
},
{
glyphname = Eogonek;
lastChange = "2015-10-21 17:12:08 +0000";
layers = (
{
layerId = "4BDFF818-6971-4FC7-918A-7FEEE3878A0A";
name = "Light Italic";
paths = (
{
closed = 1;
nodes = (
"477 0 LINE",
"528 175 LINE",
"507 175 LINE",
"492 124 OFFCURVE",
"456 35 OFFCURVE",
"396 35 CURVE SMOOTH",
"142 35 LINE",
"271 665 LINE",
"515 665 LINE SMOOTH",
"560 665 OFFCURVE",
"569 624 OFFCURVE",
"569 585 CURVE SMOOTH",
"569 565 OFFCURVE",
"567 546 OFFCURVE",
"565 533 CURVE",
"587 533 LINE",
"620 700 LINE",
"120 700 LINE",
"115 677 LINE",
"142 677 LINE SMOOTH",
"180 677 OFFCURVE",
"198 667 OFFCURVE",
"193 642 CURVE SMOOTH",
"74 57 LINE SMOOTH",
"68 32 OFFCURVE",
"46 22 OFFCURVE",
"9 22 CURVE SMOOTH",
"-18 22 LINE",
"-22 0 LINE"
);
},
{
closed = 1;
nodes = (
"385 -186 OFFCURVE",
"407 -180 OFFCURVE",
"433 -167 CURVE",
"433 -148 LINE",
"417 -154 OFFCURVE",
"401 -157 OFFCURVE",
"389 -157 CURVE SMOOTH",
"362 -157 OFFCURVE",
"341 -146 OFFCURVE",
"341 -118 CURVE SMOOTH",
"341 -73 OFFCURVE",
"379 -27 OFFCURVE",
"432 3 CURVE",
"398 3 LINE",
"346 -21 OFFCURVE",
"303 -61 OFFCURVE",
"293 -109 CURVE",
"292 -114 OFFCURVE",
"291 -120 OFFCURVE",
"291 -125 CURVE SMOOTH",
"291 -154 OFFCURVE",
"306 -186 OFFCURVE",
"362 -186 CURVE SMOOTH"
);
},
{
closed = 1;
nodes = (
"438 253 LINE",
"486 486 LINE",
"466 486 LINE",
"451 435 OFFCURVE",
"439 387 OFFCURVE",
"396 387 CURVE SMOOTH",
"185 387 LINE",
"178 352 LINE",
"388 352 LINE SMOOTH",
"415 352 OFFCURVE",
"422 333 OFFCURVE",
"422 306 CURVE SMOOTH",
"422 290 OFFCURVE",
"420 272 OFFCURVE",
"418 253 CURVE"
);
}
);
width = 567;
}
);
note = Eogonek;
unicode = 0118;
},
{
glyphname = Etilde;
lastChange = "2015-10-21 17:12:07 +0000";
layers = (
{
layerId = "4BDFF818-6971-4FC7-918A-7FEEE3878A0A";
name = "Light Italic";
paths = (
{
closed = 1;
nodes = (
"477 0 LINE",
"528 175 LINE",
"507 175 LINE",
"492 124 OFFCURVE",
"456 35 OFFCURVE",
"396 35 CURVE SMOOTH",
"142 35 LINE",
"271 665 LINE",
"515 665 LINE SMOOTH",
"560 665 OFFCURVE",
"569 624 OFFCURVE",
"569 585 CURVE SMOOTH",
"569 565 OFFCURVE",
"567 546 OFFCURVE",
"565 533 CURVE",
"587 533 LINE",
"620 700 LINE",
"120 700 LINE",
"115 677 LINE",
"142 677 LINE SMOOTH",
"180 677 OFFCURVE",
"198 667 OFFCURVE",
"193 642 CURVE SMOOTH",
"74 57 LINE SMOOTH",
"68 32 OFFCURVE",
"46 22 OFFCURVE",
"9 22 CURVE SMOOTH",
"-18 22 LINE",
"-22 0 LINE"
);
},
{
closed = 1;
nodes = (
"438 253 LINE",
"486 486 LINE",
"466 486 LINE",
"451 435 OFFCURVE",
"439 387 OFFCURVE",
"396 387 CURVE SMOOTH",
"185 387 LINE",
"178 352 LINE",
"388 352 LINE SMOOTH",
"415 352 OFFCURVE",
"422 333 OFFCURVE",
"422 306 CURVE SMOOTH",
"422 290 OFFCURVE",
"420 272 OFFCURVE",
"418 253 CURVE"
);
},
{
closed = 1;
nodes = (
"306 819 OFFCURVE",
"328 841 OFFCURVE",
"359 841 CURVE SMOOTH",
"404 841 OFFCURVE",
"439 785 OFFCURVE",
"485 785 CURVE SMOOTH",
"535 785 OFFCURVE",
"570 826 OFFCURVE",
"591 879 CURVE",
"575 889 LINE",
"554 849 OFFCURVE",
"534 826 OFFCURVE",
"502 826 CURVE SMOOTH",
"458 826 OFFCURVE",
"421 881 OFFCURVE",
"374 881 CURVE SMOOTH",
"328 881 OFFCURVE",
"290 844 OFFCURVE",
"270 791 CURVE",
"286 781 LINE"
);
}
);
width = 567;
}
);
note = Etilde;
unicode = 1EBC;
},
{
glyphname = F;
lastChange = "2015-10-21 17:12:07 +0000";
layers = (
{
layerId = "4BDFF818-6971-4FC7-918A-7FEEE3878A0A";
name = "Light Italic";
paths = (
{
closed = 1;
nodes = (
"219 0 LINE",
"223 22 LINE",
"196 22 LINE SMOOTH",
"163 22 OFFCURVE",
"146 30 OFFCURVE",
"146 48 CURVE SMOOTH",
"146 51 OFFCURVE",
"146 54 OFFCURVE",
"147 57 CURVE SMOOTH",
"271 665 LINE",
"515 665 LINE SMOOTH",
"560 665 OFFCURVE",
"569 624 OFFCURVE",
"569 585 CURVE SMOOTH",
"569 565 OFFCURVE",
"567 546 OFFCURVE",
"565 533 CURVE",
"587 533 LINE",
"620 700 LINE",
"120 700 LINE",
"115 677 LINE",
"143 677 LINE SMOOTH",
"180 677 OFFCURVE",
"198 667 OFFCURVE",
"193 642 CURVE SMOOTH",
"74 57 LINE SMOOTH",
"68 32 OFFCURVE",
"46 22 OFFCURVE",
"10 22 CURVE SMOOTH",
"-18 22 LINE",
"-22 0 LINE"
);
},
{
closed = 1;
nodes = (
"416 227 LINE",
"463 460 LINE",
"443 460 LINE",
"428 409 OFFCURVE",
"416 361 OFFCURVE",
"372 361 CURVE SMOOTH",
"180 361 LINE",
"174 326 LINE",
"366 326 LINE SMOOTH",
"393 326 OFFCURVE",
"400 307 OFFCURVE",
"400 280 CURVE SMOOTH",
"400 264 OFFCURVE",
"398 246 OFFCURVE",
"396 227 CURVE"
);
}
);
width = 537;
}
);
note = F;
unicode = 0046;
},
{
glyphname = G;
lastChange = "2015-10-21 17:12:07 +0000";
layers = (
{
layerId = "4BDFF818-6971-4FC7-918A-7FEEE3878A0A";
name = "Light Italic";
paths = (
{
closed = 1;
nodes = (
"437 -10 OFFCURVE",
"515 24 OFFCURVE",
"580 70 CURVE",
"615 244 LINE SMOOTH",
"631 316 OFFCURVE",
"639 333 OFFCURVE",
"683 333 CURVE SMOOTH",
"690 333 LINE",
"694 351 LINE",
"474 351 LINE",
"470 331 LINE",
"520 330 OFFCURVE",
"554 323 OFFCURVE",
"554 292 CURVE SMOOTH",
"554 289 OFFCURVE",
"554 285 OFFCURVE",
"553 281 CURVE SMOOTH",
"512 79 LINE",
"455 35 OFFCURVE",
"376 25 OFFCURVE",
"329 25 CURVE SMOOTH",
"195 25 OFFCURVE",
"136 107 OFFCURVE",
"136 236 CURVE SMOOTH",
"136 270 OFFCURVE",
"140 309 OFFCURVE",
"149 350 CURVE SMOOTH",
"188 543 OFFCURVE",
"303 674 OFFCURVE",
"471 674 CURVE SMOOTH",
"568 674 OFFCURVE",
"636 624 OFFCURVE",
"636 536 CURVE SMOOTH",
"636 531 OFFCURVE",
"636 525 OFFCURVE",
"636 519 CURVE",
"659 519 LINE",
"696 705 LINE",
"666 705 LINE",
"658 662 LINE",
"657 655 OFFCURVE",
"653 646 OFFCURVE",
"646 646 CURVE SMOOTH",
"642 646 OFFCURVE",
"637 648 OFFCURVE",
"636 650 CURVE",
"610 679 OFFCURVE",
"544 710 OFFCURVE",
"467 710 CURVE SMOOTH",
"268 710 OFFCURVE",
"122 577 OFFCURVE",
"76 350 CURVE SMOOTH",
"67 308 OFFCURVE",
"63 270 OFFCURVE",
"63 234 CURVE SMOOTH",
"63 78 OFFCURVE",
"148 -10 OFFCURVE",
"309 -10 CURVE SMOOTH"
);
}
);
width = 670;
}
);
leftKerningGroup = G;
note = G;
unicode = 0047;
},
{
glyphname = Gbreve;
lastChange = "2015-10-21 17:12:07 +0000";
layers = (
{
layerId = "4BDFF818-6971-4FC7-918A-7FEEE3878A0A";
name = "Light Italic";
paths = (
{
closed = 1;
nodes = (
"437 -10 OFFCURVE",
"515 24 OFFCURVE",
"580 70 CURVE",
"615 244 LINE SMOOTH",
"631 316 OFFCURVE",
"639 333 OFFCURVE",
"683 333 CURVE SMOOTH",
"690 333 LINE",
"694 351 LINE",
"474 351 LINE",
"470 331 LINE",
"520 330 OFFCURVE",
"554 323 OFFCURVE",
"554 292 CURVE SMOOTH",
"554 289 OFFCURVE",
"554 285 OFFCURVE",
"553 281 CURVE SMOOTH",
"512 79 LINE",
"455 35 OFFCURVE",
"376 25 OFFCURVE",
"329 25 CURVE SMOOTH",
"195 25 OFFCURVE",
"136 107 OFFCURVE",
"136 236 CURVE SMOOTH",
"136 270 OFFCURVE",
"140 309 OFFCURVE",
"149 350 CURVE SMOOTH",
"188 543 OFFCURVE",
"303 674 OFFCURVE",
"471 674 CURVE SMOOTH",
"568 674 OFFCURVE",
"636 624 OFFCURVE",
"636 536 CURVE SMOOTH",
"636 531 OFFCURVE",
"636 525 OFFCURVE",
"636 519 CURVE",
"659 519 LINE",
"696 705 LINE",
"666 705 LINE",
"658 662 LINE",
"657 655 OFFCURVE",
"653 646 OFFCURVE",
"646 646 CURVE SMOOTH",
"642 646 OFFCURVE",
"637 648 OFFCURVE",
"636 650 CURVE",
"610 679 OFFCURVE",
"544 710 OFFCURVE",
"467 710 CURVE SMOOTH",
"268 710 OFFCURVE",
"122 577 OFFCURVE",
"76 350 CURVE SMOOTH",
"67 308 OFFCURVE",
"63 270 OFFCURVE",
"63 234 CURVE SMOOTH",
"63 78 OFFCURVE",
"148 -10 OFFCURVE",
"309 -10 CURVE SMOOTH"
);
},
{
closed = 1;
nodes = (
"572 797 OFFCURVE",
"625 846 OFFCURVE",
"645 922 CURVE",
"615 922 LINE",
"595 856 OFFCURVE",
"547 836 OFFCURVE",
"493 836 CURVE SMOOTH",
"440 836 OFFCURVE",
"398 856 OFFCURVE",
"404 922 CURVE",
"375 922 LINE",
"374 912 OFFCURVE",
"373 903 OFFCURVE",
"373 894 CURVE SMOOTH",
"373 833 OFFCURVE",
"409 797 OFFCURVE",
"486 797 CURVE SMOOTH"
);
}
);
width = 670;
}
);
leftKerningGroup = G;
note = Gbreve;
unicode = 011E;
},
{
glyphname = Gcaron;
lastChange = "2015-10-21 17:12:07 +0000";
layers = (
{
layerId = "4BDFF818-6971-4FC7-918A-7FEEE3878A0A";
name = "Light Italic";
paths = (
{
closed = 1;
nodes = (
"437 -10 OFFCURVE",
"515 24 OFFCURVE",
"580 70 CURVE",
"615 244 LINE SMOOTH",
"631 316 OFFCURVE",
"639 333 OFFCURVE",
"683 333 CURVE SMOOTH",
"690 333 LINE",
"694 351 LINE",
"474 351 LINE",
"470 331 LINE",
"520 330 OFFCURVE",
"554 323 OFFCURVE",
"554 292 CURVE SMOOTH",
"554 289 OFFCURVE",
"554 285 OFFCURVE",
"553 281 CURVE SMOOTH",
"512 79 LINE",
"455 35 OFFCURVE",
"376 25 OFFCURVE",
"329 25 CURVE SMOOTH",
"195 25 OFFCURVE",
"136 107 OFFCURVE",
"136 236 CURVE SMOOTH",
"136 270 OFFCURVE",
"140 309 OFFCURVE",
"149 350 CURVE SMOOTH",
"188 543 OFFCURVE",
"303 674 OFFCURVE",
"471 674 CURVE SMOOTH",
"568 674 OFFCURVE",
"636 624 OFFCURVE",
"636 536 CURVE SMOOTH",
"636 531 OFFCURVE",
"636 525 OFFCURVE",
"636 519 CURVE",
"659 519 LINE",
"696 705 LINE",
"666 705 LINE",
"658 662 LINE",
"657 655 OFFCURVE",
"653 646 OFFCURVE",
"646 646 CURVE SMOOTH",
"642 646 OFFCURVE",
"637 648 OFFCURVE",
"636 650 CURVE",
"610 679 OFFCURVE",
"544 710 OFFCURVE",
"467 710 CURVE SMOOTH",
"268 710 OFFCURVE",
"122 577 OFFCURVE",
"76 350 CURVE SMOOTH",
"67 308 OFFCURVE",
"63 270 OFFCURVE",
"63 234 CURVE SMOOTH",
"63 78 OFFCURVE",
"148 -10 OFFCURVE",
"309 -10 CURVE SMOOTH"
);
},
{
closed = 1;
nodes = (
"516 784 LINE",
"652 902 LINE",
"638 921 LINE",
"525 839 LINE",
"517 834 OFFCURVE",
"510 830 OFFCURVE",
"505 830 CURVE SMOOTH",
"500 830 OFFCURVE",
"494 832 OFFCURVE",
"488 839 CURVE SMOOTH",
"407 921 LINE",
"387 902 LINE",
"474 784 LINE"
);
}
);
width = 670;
}
);
leftKerningGroup = G;
note = Gcaron;
unicode = 01E6;
},
{
glyphname = Gcircumflex;
lastChange = "2015-10-21 17:12:07 +0000";
layers = (
{
layerId = "4BDFF818-6971-4FC7-918A-7FEEE3878A0A";
name = "Light Italic";
paths = (
{
closed = 1;
nodes = (
"437 -10 OFFCURVE",
"515 24 OFFCURVE",
"580 70 CURVE",
"615 244 LINE SMOOTH",
"631 316 OFFCURVE",
"639 333 OFFCURVE",
"683 333 CURVE SMOOTH",
"690 333 LINE",
"694 351 LINE",
"474 351 LINE",
"470 331 LINE",
"520 330 OFFCURVE",
"554 323 OFFCURVE",
"554 292 CURVE SMOOTH",
"554 289 OFFCURVE",
"554 285 OFFCURVE",
"553 281 CURVE SMOOTH",
"512 79 LINE",
"455 35 OFFCURVE",
"376 25 OFFCURVE",
"329 25 CURVE SMOOTH",
"195 25 OFFCURVE",
"136 107 OFFCURVE",
"136 236 CURVE SMOOTH",
"136 270 OFFCURVE",
"140 309 OFFCURVE",
"149 350 CURVE SMOOTH",
"188 543 OFFCURVE",
"303 674 OFFCURVE",
"471 674 CURVE SMOOTH",
"568 674 OFFCURVE",
"636 624 OFFCURVE",
"636 536 CURVE SMOOTH",
"636 531 OFFCURVE",
"636 525 OFFCURVE",
"636 519 CURVE",
"659 519 LINE",
"696 705 LINE",
"666 705 LINE",
"658 662 LINE",
"657 655 OFFCURVE",
"653 646 OFFCURVE",
"646 646 CURVE SMOOTH",
"642 646 OFFCURVE",
"637 648 OFFCURVE",
"636 650 CURVE",
"610 679 OFFCURVE",
"544 710 OFFCURVE",
"467 710 CURVE SMOOTH",
"268 710 OFFCURVE",
"122 577 OFFCURVE",
"76 350 CURVE SMOOTH",
"67 308 OFFCURVE",
"63 270 OFFCURVE",
"63 234 CURVE SMOOTH",
"63 78 OFFCURVE",
"148 -10 OFFCURVE",
"309 -10 CURVE SMOOTH"
);
},
{
closed = 1;
nodes = (
"488 887 LINE",
"495 892 OFFCURVE",
"504 896 OFFCURVE",
"509 896 CURVE SMOOTH",
"514 896 OFFCURVE",
"519 892 OFFCURVE",
"525 887 CURVE",
"605 805 LINE",
"626 824 LINE",
"538 942 LINE",
"496 942 LINE",
"362 824 LINE",
"373 805 LINE"
);
}
);
width = 670;
}
);
leftKerningGroup = G;
note = Gcircumflex;
unicode = 011C;
},
{
glyphname = Gcommaaccent;
lastChange = "2015-10-21 17:12:07 +0000";
layers = (
{
layerId = "4BDFF818-6971-4FC7-918A-7FEEE3878A0A";
name = "Light Italic";
paths = (
{
closed = 1;
nodes = (
"437 -10 OFFCURVE",
"515 24 OFFCURVE",
"580 70 CURVE",
"615 244 LINE SMOOTH",
"631 316 OFFCURVE",
"639 333 OFFCURVE",
"683 333 CURVE SMOOTH",
"690 333 LINE",
"694 351 LINE",
"474 351 LINE",
"470 331 LINE",
"520 330 OFFCURVE",
"554 323 OFFCURVE",
"554 292 CURVE SMOOTH",
"554 289 OFFCURVE",
"554 285 OFFCURVE",
"553 281 CURVE SMOOTH",
"512 79 LINE",
"455 35 OFFCURVE",
"376 25 OFFCURVE",
"329 25 CURVE SMOOTH",
"195 25 OFFCURVE",
"136 107 OFFCURVE",
"136 236 CURVE SMOOTH",
"136 270 OFFCURVE",
"140 309 OFFCURVE",
"149 350 CURVE SMOOTH",
"188 543 OFFCURVE",
"303 674 OFFCURVE",
"471 674 CURVE SMOOTH",
"568 674 OFFCURVE",
"636 624 OFFCURVE",
"636 536 CURVE SMOOTH",
"636 531 OFFCURVE",
"636 525 OFFCURVE",
"636 519 CURVE",
"659 519 LINE",
"696 705 LINE",
"666 705 LINE",
"658 662 LINE",
"657 655 OFFCURVE",
"653 646 OFFCURVE",
"646 646 CURVE SMOOTH",
"642 646 OFFCURVE",
"637 648 OFFCURVE",
"636 650 CURVE",
"610 679 OFFCURVE",
"544 710 OFFCURVE",
"467 710 CURVE SMOOTH",
"268 710 OFFCURVE",
"122 577 OFFCURVE",
"76 350 CURVE SMOOTH",
"67 308 OFFCURVE",
"63 270 OFFCURVE",
"63 234 CURVE SMOOTH",
"63 78 OFFCURVE",
"148 -10 OFFCURVE",
"309 -10 CURVE SMOOTH"
);
},
{
closed = 1;
nodes = (
"290 -237 OFFCURVE",
"336 -182 OFFCURVE",
"348 -124 CURVE SMOOTH",
"349 -116 OFFCURVE",
"349 -109 OFFCURVE",
"349 -102 CURVE SMOOTH",
"349 -75 OFFCURVE",
"336 -65 OFFCURVE",
"317 -65 CURVE SMOOTH",
"293 -65 OFFCURVE",
"276 -82 OFFCURVE",
"271 -104 CURVE SMOOTH",
"266 -132 OFFCURVE",
"289 -139 OFFCURVE",
"289 -164 CURVE SMOOTH",
"289 -167 OFFCURVE",
"289 -170 OFFCURVE",
"288 -173 CURVE SMOOTH",
"281 -207 OFFCURVE",
"250 -238 OFFCURVE",
"221 -262 CURVE",
"231 -277 LINE"
);
}
);
width = 670;
}
);
leftKerningGroup = G;
note = Gcommaaccent;
unicode = 0122;
},
{
glyphname = Gdotaccent;
lastChange = "2015-10-21 17:12:07 +0000";
layers = (
{
layerId = "4BDFF818-6971-4FC7-918A-7FEEE3878A0A";
name = "Light Italic";
paths = (
{
closed = 1;
nodes = (
"437 -10 OFFCURVE",
"515 24 OFFCURVE",
"580 70 CURVE",
"615 244 LINE SMOOTH",
"631 316 OFFCURVE",
"639 333 OFFCURVE",
"683 333 CURVE SMOOTH",
"690 333 LINE",
"694 351 LINE",
"474 351 LINE",
"470 331 LINE",
"520 330 OFFCURVE",
"554 323 OFFCURVE",
"554 292 CURVE SMOOTH",
"554 289 OFFCURVE",
"554 285 OFFCURVE",
"553 281 CURVE SMOOTH",
"512 79 LINE",
"455 35 OFFCURVE",
"376 25 OFFCURVE",
"329 25 CURVE SMOOTH",
"195 25 OFFCURVE",
"136 107 OFFCURVE",
"136 236 CURVE SMOOTH",
"136 270 OFFCURVE",
"140 309 OFFCURVE",
"149 350 CURVE SMOOTH",
"188 543 OFFCURVE",
"303 674 OFFCURVE",
"471 674 CURVE SMOOTH",
"568 674 OFFCURVE",
"636 624 OFFCURVE",
"636 536 CURVE SMOOTH",
"636 531 OFFCURVE",
"636 525 OFFCURVE",
"636 519 CURVE",
"659 519 LINE",
"696 705 LINE",
"666 705 LINE",
"658 662 LINE",
"657 655 OFFCURVE",
"653 646 OFFCURVE",
"646 646 CURVE SMOOTH",
"642 646 OFFCURVE",
"637 648 OFFCURVE",
"636 650 CURVE",
"610 679 OFFCURVE",
"544 710 OFFCURVE",
"467 710 CURVE SMOOTH",
"268 710 OFFCURVE",
"122 577 OFFCURVE",
"76 350 CURVE SMOOTH",
"67 308 OFFCURVE",
"63 270 OFFCURVE",
"63 234 CURVE SMOOTH",
"63 78 OFFCURVE",
"148 -10 OFFCURVE",
"309 -10 CURVE SMOOTH"
);
},
{
closed = 1;
nodes = (
"501 784 OFFCURVE",
"519 800 OFFCURVE",
"524 825 CURVE",
"525 829 OFFCURVE",
"525 833 OFFCURVE",
"525 837 CURVE SMOOTH",
"525 855 OFFCURVE",
"514 866 OFFCURVE",
"494 866 CURVE SMOOTH",
"470 866 OFFCURVE",
"452 850 OFFCURVE",
"446 825 CURVE",
"445 821 OFFCURVE",
"445 818 OFFCURVE",
"445 815 CURVE SMOOTH",
"445 796 OFFCURVE",
"458 784 OFFCURVE",
"478 784 CURVE SMOOTH"
);
}
);
width = 670;
}
);
leftKerningGroup = G;
note = Gdotaccent;
unicode = 0120;
},
{
glyphname = Gmacron;
lastChange = "2015-10-21 17:12:07 +0000";
layers = (
{
layerId = "4BDFF818-6971-4FC7-918A-7FEEE3878A0A";
name = "Light Italic";
paths = (
{
closed = 1;
nodes = (
"437 -10 OFFCURVE",
"515 24 OFFCURVE",
"580 70 CURVE",
"615 244 LINE SMOOTH",
"631 316 OFFCURVE",
"639 333 OFFCURVE",
"683 333 CURVE SMOOTH",
"690 333 LINE",
"694 351 LINE",
"474 351 LINE",
"470 331 LINE",
"520 330 OFFCURVE",
"554 323 OFFCURVE",
"554 292 CURVE SMOOTH",
"554 289 OFFCURVE",
"554 285 OFFCURVE",
"553 281 CURVE SMOOTH",
"512 79 LINE",
"455 35 OFFCURVE",
"376 25 OFFCURVE",
"329 25 CURVE SMOOTH",
"195 25 OFFCURVE",
"136 107 OFFCURVE",
"136 236 CURVE SMOOTH",
"136 270 OFFCURVE",
"140 309 OFFCURVE",
"149 350 CURVE SMOOTH",
"188 543 OFFCURVE",
"303 674 OFFCURVE",
"471 674 CURVE SMOOTH",
"568 674 OFFCURVE",
"636 624 OFFCURVE",
"636 536 CURVE SMOOTH",
"636 531 OFFCURVE",
"636 525 OFFCURVE",
"636 519 CURVE",
"659 519 LINE",
"696 705 LINE",
"666 705 LINE",
"658 662 LINE",
"657 655 OFFCURVE",
"653 646 OFFCURVE",
"646 646 CURVE SMOOTH",
"642 646 OFFCURVE",
"637 648 OFFCURVE",
"636 650 CURVE",
"610 679 OFFCURVE",
"544 710 OFFCURVE",
"467 710 CURVE SMOOTH",
"268 710 OFFCURVE",
"122 577 OFFCURVE",
"76 350 CURVE SMOOTH",
"67 308 OFFCURVE",
"63 270 OFFCURVE",
"63 234 CURVE SMOOTH",
"63 78 OFFCURVE",
"148 -10 OFFCURVE",
"309 -10 CURVE SMOOTH"
);
},
{
closed = 1;
nodes = (
"627 789 LINE",
"635 824 LINE",
"335 824 LINE",
"327 789 LINE"
);
}
);
width = 670;
}
);
leftKerningGroup = G;
note = Gmacron;
unicode = 1E20;
},
{
glyphname = H;
lastChange = "2015-10-21 17:12:07 +0000";
layers = (
{
layerId = "4BDFF818-6971-4FC7-918A-7FEEE3878A0A";
name = "Light Italic";
paths = (
{
closed = 1;
nodes = (
"664 0 LINE",
"668 22 LINE",
"641 22 LINE SMOOTH",
"609 22 OFFCURVE",
"591 30 OFFCURVE",
"591 48 CURVE SMOOTH",
"591 51 OFFCURVE",
"591 54 OFFCURVE",
"592 57 CURVE SMOOTH",
"711 642 LINE SMOOTH",
"716 667 OFFCURVE",
"737 677 OFFCURVE",
"775 677 CURVE SMOOTH",
"802 677 LINE",
"806 700 LINE",
"565 700 LINE",
"561 677 LINE",
"588 677 LINE SMOOTH",
"625 677 OFFCURVE",
"643 667 OFFCURVE",
"638 642 CURVE SMOOTH",
"519 57 LINE SMOOTH",
"514 32 OFFCURVE",
"492 22 OFFCURVE",
"454 22 CURVE SMOOTH",
"427 22 LINE",
"423 0 LINE"
);
},
{
closed = 1;
nodes = (
"227 0 LINE",
"230 22 LINE",
"203 22 LINE SMOOTH",
"171 22 OFFCURVE",
"153 30 OFFCURVE",
"153 49 CURVE SMOOTH",
"153 51 OFFCURVE",
"153 54 OFFCURVE",
"154 57 CURVE SMOOTH",
"273 642 LINE SMOOTH",
"277 667 OFFCURVE",
"300 677 OFFCURVE",
"336 677 CURVE SMOOTH",
"364 677 LINE",
"369 700 LINE",
"128 700 LINE",
"123 677 LINE",
"150 677 LINE SMOOTH",
"187 677 OFFCURVE",
"204 667 OFFCURVE",
"200 642 CURVE SMOOTH",
"81 57 LINE SMOOTH",
"75 32 OFFCURVE",
"54 22 OFFCURVE",
"16 22 CURVE SMOOTH",
"-11 22 LINE",
"-14 0 LINE"
);
},
{
closed = 1;
nodes = (
"614 354 LINE",
"621 389 LINE",
"184 389 LINE",
"178 354 LINE"
);
}
);
width = 727;
}
);
note = H;
unicode = 0048;
},
{
glyphname = Hbar;
lastChange = "2015-10-21 17:12:08 +0000";
layers = (
{
layerId = "4BDFF818-6971-4FC7-918A-7FEEE3878A0A";
name = "Light Italic";
paths = (
{
closed = 1;
nodes = (
"664 0 LINE",
"668 22 LINE",
"641 22 LINE SMOOTH",
"609 22 OFFCURVE",
"591 30 OFFCURVE",
"591 48 CURVE SMOOTH",
"591 51 OFFCURVE",
"591 54 OFFCURVE",
"592 57 CURVE SMOOTH",
"711 642 LINE SMOOTH",
"716 667 OFFCURVE",
"737 677 OFFCURVE",
"775 677 CURVE SMOOTH",
"802 677 LINE",
"806 700 LINE",
"565 700 LINE",
"561 677 LINE",
"588 677 LINE SMOOTH",
"625 677 OFFCURVE",
"643 667 OFFCURVE",
"638 642 CURVE SMOOTH",
"519 57 LINE SMOOTH",
"514 32 OFFCURVE",
"492 22 OFFCURVE",
"454 22 CURVE SMOOTH",
"427 22 LINE",
"423 0 LINE"
);
},
{
closed = 1;
nodes = (
"227 0 LINE",
"230 22 LINE",
"203 22 LINE SMOOTH",
"171 22 OFFCURVE",
"153 30 OFFCURVE",
"153 49 CURVE SMOOTH",
"153 51 OFFCURVE",
"153 54 OFFCURVE",
"154 57 CURVE SMOOTH",
"273 642 LINE SMOOTH",
"277 667 OFFCURVE",
"300 677 OFFCURVE",
"336 677 CURVE SMOOTH",
"364 677 LINE",
"369 700 LINE",
"128 700 LINE",
"123 677 LINE",
"150 677 LINE SMOOTH",
"187 677 OFFCURVE",
"204 667 OFFCURVE",
"200 642 CURVE SMOOTH",
"81 57 LINE SMOOTH",
"75 32 OFFCURVE",
"54 22 OFFCURVE",
"16 22 CURVE SMOOTH",
"-11 22 LINE",
"-14 0 LINE"
);
},
{
closed = 1;
nodes = (
"614 354 LINE",
"621 389 LINE",
"184 389 LINE",
"178 354 LINE"
);
},
{
closed = 1;
nodes = (
"735 509 LINE",
"742 544 LINE",
"115 544 LINE",
"108 509 LINE"
);
}
);
width = 727;
}
);
note = Hbar;
unicode = 0126;
},
{
glyphname = Hbrevebelow;
lastChange = "2015-10-21 17:12:07 +0000";
layers = (
{
layerId = "4BDFF818-6971-4FC7-918A-7FEEE3878A0A";
name = "Light Italic";
paths = (
{
closed = 1;
nodes = (
"664 0 LINE",
"668 22 LINE",
"641 22 LINE SMOOTH",
"609 22 OFFCURVE",
"591 30 OFFCURVE",
"591 48 CURVE SMOOTH",
"591 51 OFFCURVE",
"591 54 OFFCURVE",
"592 57 CURVE SMOOTH",
"711 642 LINE SMOOTH",
"716 667 OFFCURVE",
"737 677 OFFCURVE",
"775 677 CURVE SMOOTH",
"802 677 LINE",
"806 700 LINE",
"565 700 LINE",
"561 677 LINE",
"588 677 LINE SMOOTH",
"625 677 OFFCURVE",
"643 667 OFFCURVE",
"638 642 CURVE SMOOTH",
"519 57 LINE SMOOTH",
"514 32 OFFCURVE",
"492 22 OFFCURVE",
"454 22 CURVE SMOOTH",
"427 22 LINE",
"423 0 LINE"
);
},
{
closed = 1;
nodes = (
"373 -177 OFFCURVE",
"426 -129 OFFCURVE",
"446 -53 CURVE",
"417 -53 LINE",
"396 -118 OFFCURVE",
"348 -138 OFFCURVE",
"296 -138 CURVE SMOOTH",
"242 -138 OFFCURVE",
"201 -118 OFFCURVE",
"206 -53 CURVE",
"178 -53 LINE",
"177 -63 OFFCURVE",
"176 -72 OFFCURVE",
"176 -80 CURVE SMOOTH",
"176 -141 OFFCURVE",
"211 -177 OFFCURVE",
"288 -177 CURVE SMOOTH"
);
},
{
closed = 1;
nodes = (
"227 0 LINE",
"230 22 LINE",
"203 22 LINE SMOOTH",
"171 22 OFFCURVE",
"153 30 OFFCURVE",
"153 49 CURVE SMOOTH",
"153 51 OFFCURVE",
"153 54 OFFCURVE",
"154 57 CURVE SMOOTH",
"273 642 LINE SMOOTH",
"277 667 OFFCURVE",
"300 677 OFFCURVE",
"336 677 CURVE SMOOTH",
"364 677 LINE",
"369 700 LINE",
"128 700 LINE",
"123 677 LINE",
"150 677 LINE SMOOTH",
"187 677 OFFCURVE",
"204 667 OFFCURVE",
"200 642 CURVE SMOOTH",
"81 57 LINE SMOOTH",
"75 32 OFFCURVE",
"54 22 OFFCURVE",
"16 22 CURVE SMOOTH",
"-11 22 LINE",
"-14 0 LINE"
);
},
{
closed = 1;
nodes = (
"614 354 LINE",
"621 389 LINE",
"184 389 LINE",
"178 354 LINE"
);
}
);
width = 727;
}
);
note = Hbrevebelow;
unicode = 1E2A;
},
{
glyphname = Hcircumflex;
lastChange = "2015-10-21 17:12:07 +0000";
layers = (
{
layerId = "4BDFF818-6971-4FC7-918A-7FEEE3878A0A";
name = "Light Italic";
paths = (
{
closed = 1;
nodes = (
"664 0 LINE",
"668 22 LINE",
"641 22 LINE SMOOTH",
"609 22 OFFCURVE",
"591 30 OFFCURVE",
"591 48 CURVE SMOOTH",
"591 51 OFFCURVE",
"591 54 OFFCURVE",
"592 57 CURVE SMOOTH",
"711 642 LINE SMOOTH",
"716 667 OFFCURVE",
"737 677 OFFCURVE",
"775 677 CURVE SMOOTH",
"802 677 LINE",
"806 700 LINE",
"565 700 LINE",
"561 677 LINE",
"588 677 LINE SMOOTH",
"625 677 OFFCURVE",
"643 667 OFFCURVE",
"638 642 CURVE SMOOTH",
"519 57 LINE SMOOTH",
"514 32 OFFCURVE",
"492 22 OFFCURVE",
"454 22 CURVE SMOOTH",
"427 22 LINE",
"423 0 LINE"
);
},
{
closed = 1;
nodes = (
"227 0 LINE",
"230 22 LINE",
"203 22 LINE SMOOTH",
"171 22 OFFCURVE",
"153 30 OFFCURVE",
"153 49 CURVE SMOOTH",
"153 51 OFFCURVE",
"153 54 OFFCURVE",
"154 57 CURVE SMOOTH",
"273 642 LINE SMOOTH",
"277 667 OFFCURVE",
"300 677 OFFCURVE",
"336 677 CURVE SMOOTH",
"364 677 LINE",
"369 700 LINE",
"128 700 LINE",
"123 677 LINE",
"150 677 LINE SMOOTH",
"187 677 OFFCURVE",
"204 667 OFFCURVE",
"200 642 CURVE SMOOTH",
"81 57 LINE SMOOTH",
"75 32 OFFCURVE",
"54 22 OFFCURVE",
"16 22 CURVE SMOOTH",
"-11 22 LINE",
"-14 0 LINE"
);
},
{
closed = 1;
nodes = (
"614 354 LINE",
"621 389 LINE",
"184 389 LINE",
"178 354 LINE"
);
},
{
closed = 1;
nodes = (
"481 866 LINE",
"489 871 OFFCURVE",
"497 875 OFFCURVE",
"502 875 CURVE SMOOTH",
"507 875 OFFCURVE",
"513 871 OFFCURVE",
"518 866 CURVE",
"598 784 LINE",
"619 803 LINE",
"531 921 LINE",
"490 921 LINE",
"355 803 LINE",
"367 784 LINE"
);
}
);
width = 727;
}
);
note = Hcircumflex;
unicode = 0124;
},
{
glyphname = Hdotbelow;
lastChange = "2015-10-21 17:12:07 +0000";
layers = (
{
layerId = "4BDFF818-6971-4FC7-918A-7FEEE3878A0A";
name = "Light Italic";
paths = (
{
closed = 1;
nodes = (
"664 0 LINE",
"668 22 LINE",
"641 22 LINE SMOOTH",
"609 22 OFFCURVE",
"591 30 OFFCURVE",
"591 48 CURVE SMOOTH",
"591 51 OFFCURVE",
"591 54 OFFCURVE",
"592 57 CURVE SMOOTH",
"711 642 LINE SMOOTH",
"716 667 OFFCURVE",
"737 677 OFFCURVE",
"775 677 CURVE SMOOTH",
"802 677 LINE",
"806 700 LINE",
"565 700 LINE",
"561 677 LINE",
"588 677 LINE SMOOTH",
"625 677 OFFCURVE",
"643 667 OFFCURVE",
"638 642 CURVE SMOOTH",
"519 57 LINE SMOOTH",
"514 32 OFFCURVE",
"492 22 OFFCURVE",
"454 22 CURVE SMOOTH",
"427 22 LINE",
"423 0 LINE"
);
},
{
closed = 1;
nodes = (
"321 -147 OFFCURVE",
"343 -126 OFFCURVE",
"343 -95 CURVE SMOOTH",
"343 -76 OFFCURVE",
"331 -64 OFFCURVE",
"311 -64 CURVE SMOOTH",
"285 -64 OFFCURVE",
"262 -86 OFFCURVE",
"262 -116 CURVE SMOOTH",
"262 -135 OFFCURVE",
"274 -147 OFFCURVE",
"294 -147 CURVE SMOOTH"
);
},
{
closed = 1;
nodes = (
"227 0 LINE",
"230 22 LINE",
"203 22 LINE SMOOTH",
"171 22 OFFCURVE",
"153 30 OFFCURVE",
"153 49 CURVE SMOOTH",
"153 51 OFFCURVE",
"153 54 OFFCURVE",
"154 57 CURVE SMOOTH",
"273 642 LINE SMOOTH",
"277 667 OFFCURVE",
"300 677 OFFCURVE",
"336 677 CURVE SMOOTH",
"364 677 LINE",
"369 700 LINE",
"128 700 LINE",
"123 677 LINE",
"150 677 LINE SMOOTH",
"187 677 OFFCURVE",
"204 667 OFFCURVE",
"200 642 CURVE SMOOTH",
"81 57 LINE SMOOTH",
"75 32 OFFCURVE",
"54 22 OFFCURVE",
"16 22 CURVE SMOOTH",
"-11 22 LINE",
"-14 0 LINE"
);
},
{
closed = 1;
nodes = (
"614 354 LINE",
"621 389 LINE",
"184 389 LINE",
"178 354 LINE"
);
}
);
width = 727;
}
);
note = Hdotbelow;
unicode = 1E24;
},
{
glyphname = I;
lastChange = "2015-10-21 17:12:07 +0000";
layers = (
{
layerId = "4BDFF818-6971-4FC7-918A-7FEEE3878A0A";
name = "Light Italic";
paths = (
{
closed = 1;
nodes = (
"229 0 LINE",
"233 22 LINE",
"206 22 LINE SMOOTH",
"174 22 OFFCURVE",
"156 30 OFFCURVE",
"156 48 CURVE SMOOTH",
"156 51 OFFCURVE",
"156 54 OFFCURVE",
"157 57 CURVE SMOOTH",
"276 642 LINE SMOOTH",
"281 667 OFFCURVE",
"302 677 OFFCURVE",
"340 677 CURVE SMOOTH",
"367 677 LINE",
"372 700 LINE",
"131 700 LINE",
"126 677 LINE",
"154 677 LINE SMOOTH",
"190 677 OFFCURVE",
"208 667 OFFCURVE",
"204 642 CURVE SMOOTH",
"84 57 LINE SMOOTH",
"79 32 OFFCURVE",
"57 22 OFFCURVE",
"20 22 CURVE SMOOTH",
"-8 22 LINE",
"-12 0 LINE"
);
}
);
width = 295;
}
);
note = I;
unicode = 0049;
},
{
glyphname = IJ;
lastChange = "2015-10-21 17:12:07 +0000";
layers = (
{
layerId = "4BDFF818-6971-4FC7-918A-7FEEE3878A0A";
name = "Light Italic";
paths = (
{
closed = 1;
nodes = (
"359 -114 OFFCURVE",
"450 -46 OFFCURVE",
"475 79 CURVE SMOOTH",
"590 642 LINE SMOOTH",
"595 667 OFFCURVE",
"617 677 OFFCURVE",
"654 677 CURVE SMOOTH",
"682 677 LINE",
"686 700 LINE",
"445 700 LINE",
"441 677 LINE",
"468 677 LINE SMOOTH",
"505 677 OFFCURVE",
"522 667 OFFCURVE",
"517 642 CURVE SMOOTH",
"402 79 LINE SMOOTH",
"383 -17 OFFCURVE",
"326 -80 OFFCURVE",
"246 -95 CURVE",
"246 -114 LINE"
);
},
{
closed = 1;
nodes = (
"229 0 LINE",
"233 22 LINE",
"206 22 LINE SMOOTH",
"174 22 OFFCURVE",
"156 30 OFFCURVE",
"156 48 CURVE SMOOTH",
"156 51 OFFCURVE",
"156 54 OFFCURVE",
"157 57 CURVE SMOOTH",
"276 642 LINE SMOOTH",
"281 667 OFFCURVE",
"302 677 OFFCURVE",
"340 677 CURVE SMOOTH",
"367 677 LINE",
"372 700 LINE",
"131 700 LINE",
"126 677 LINE",
"154 677 LINE SMOOTH",
"190 677 OFFCURVE",
"208 667 OFFCURVE",
"204 642 CURVE SMOOTH",
"84 57 LINE SMOOTH",
"79 32 OFFCURVE",
"57 22 OFFCURVE",
"20 22 CURVE SMOOTH",
"-8 22 LINE",
"-12 0 LINE"
);
}
);
width = 610;
}
);
note = IJ;
unicode = 0132;
},
{
glyphname = Iacute;
lastChange = "2015-10-21 17:12:07 +0000";
layers = (
{
layerId = "4BDFF818-6971-4FC7-918A-7FEEE3878A0A";
name = "Light Italic";
paths = (
{
closed = 1;
nodes = (
"229 0 LINE",
"233 22 LINE",
"206 22 LINE SMOOTH",
"174 22 OFFCURVE",
"156 30 OFFCURVE",
"156 48 CURVE SMOOTH",
"156 51 OFFCURVE",
"156 54 OFFCURVE",
"157 57 CURVE SMOOTH",
"276 642 LINE SMOOTH",
"281 667 OFFCURVE",
"302 677 OFFCURVE",
"340 677 CURVE SMOOTH",
"367 677 LINE",
"372 700 LINE",
"131 700 LINE",
"126 677 LINE",
"154 677 LINE SMOOTH",
"190 677 OFFCURVE",
"208 667 OFFCURVE",
"204 642 CURVE SMOOTH",
"84 57 LINE SMOOTH",
"79 32 OFFCURVE",
"57 22 OFFCURVE",
"20 22 CURVE SMOOTH",
"-8 22 LINE",
"-12 0 LINE"
);
},
{
closed = 1;
nodes = (
"345 863 LINE SMOOTH",
"364 873 OFFCURVE",
"376 885 OFFCURVE",
"379 899 CURVE",
"381 912 OFFCURVE",
"376 924 OFFCURVE",
"360 924 CURVE SMOOTH",
"344 924 OFFCURVE",
"326 911 OFFCURVE",
"318 904 CURVE SMOOTH",
"188 804 LINE",
"198 784 LINE"
);
}
);
width = 295;
}
);
note = Iacute;
unicode = 00CD;
},
{
glyphname = Ibreve;
lastChange = "2015-10-21 17:12:07 +0000";
layers = (
{
layerId = "4BDFF818-6971-4FC7-918A-7FEEE3878A0A";
name = "Light Italic";
paths = (
{
closed = 1;
nodes = (
"229 0 LINE",
"233 22 LINE",
"206 22 LINE SMOOTH",
"174 22 OFFCURVE",
"156 30 OFFCURVE",
"156 48 CURVE SMOOTH",
"156 51 OFFCURVE",
"156 54 OFFCURVE",
"157 57 CURVE SMOOTH",
"276 642 LINE SMOOTH",
"281 667 OFFCURVE",
"302 677 OFFCURVE",
"340 677 CURVE SMOOTH",
"367 677 LINE",
"372 700 LINE",
"131 700 LINE",
"126 677 LINE",
"154 677 LINE SMOOTH",
"190 677 OFFCURVE",
"208 667 OFFCURVE",
"204 642 CURVE SMOOTH",
"84 57 LINE SMOOTH",
"79 32 OFFCURVE",
"57 22 OFFCURVE",
"20 22 CURVE SMOOTH",
"-8 22 LINE",
"-12 0 LINE"
);
},
{
closed = 1;
nodes = (
"352 776 OFFCURVE",
"405 825 OFFCURVE",
"425 901 CURVE",
"396 901 LINE",
"375 835 OFFCURVE",
"327 815 OFFCURVE",
"274 815 CURVE SMOOTH",
"220 815 OFFCURVE",
"179 835 OFFCURVE",
"184 901 CURVE",
"156 901 LINE",
"155 891 OFFCURVE",
"154 882 OFFCURVE",
"154 873 CURVE SMOOTH",
"154 812 OFFCURVE",
"189 776 OFFCURVE",
"266 776 CURVE SMOOTH"
);
}
);
width = 295;
}
);
note = Ibreve;
unicode = 012C;
},
{
glyphname = Icaron;
lastChange = "2015-12-01 09:29:43 +0000";
layers = (
{
layerId = "4BDFF818-6971-4FC7-918A-7FEEE3878A0A";
name = "Light Italic";
paths = (
{
closed = 1;
nodes = (
"229 0 LINE",
"233 22 LINE",
"206 22 LINE SMOOTH",
"174 22 OFFCURVE",
"156 30 OFFCURVE",
"156 48 CURVE SMOOTH",
"156 51 OFFCURVE",
"156 54 OFFCURVE",
"157 57 CURVE SMOOTH",
"276 642 LINE SMOOTH",
"281 667 OFFCURVE",
"302 677 OFFCURVE",
"340 677 CURVE SMOOTH",
"367 677 LINE",
"372 700 LINE",
"131 700 LINE",
"126 677 LINE",
"154 677 LINE SMOOTH",
"190 677 OFFCURVE",
"208 667 OFFCURVE",
"204 642 CURVE SMOOTH",
"84 57 LINE SMOOTH",
"79 32 OFFCURVE",
"57 22 OFFCURVE",
"20 22 CURVE SMOOTH",
"-8 22 LINE",
"-12 0 LINE"
);
},
{
closed = 1;
nodes = (
"288 784 LINE",
"424 902 LINE",
"411 921 LINE",
"298 839 LINE",
"290 834 OFFCURVE",
"282 830 OFFCURVE",
"277 830 CURVE SMOOTH",
"273 830 OFFCURVE",
"267 832 OFFCURVE",
"260 839 CURVE SMOOTH",
"180 921 LINE",
"159 902 LINE",
"247 784 LINE"
);
}
);
width = 295;
}
);
note = Icaron;
unicode = 01CF;
},
{
glyphname = Icircumflex;
lastChange = "2015-10-21 17:12:07 +0000";
layers = (
{
layerId = "4BDFF818-6971-4FC7-918A-7FEEE3878A0A";
name = "Light Italic";
paths = (
{
closed = 1;
nodes = (
"229 0 LINE",
"233 22 LINE",
"206 22 LINE SMOOTH",
"174 22 OFFCURVE",
"156 30 OFFCURVE",
"156 48 CURVE SMOOTH",
"156 51 OFFCURVE",
"156 54 OFFCURVE",
"157 57 CURVE SMOOTH",
"276 642 LINE SMOOTH",
"281 667 OFFCURVE",
"302 677 OFFCURVE",
"340 677 CURVE SMOOTH",
"367 677 LINE",
"372 700 LINE",
"131 700 LINE",
"126 677 LINE",
"154 677 LINE SMOOTH",
"190 677 OFFCURVE",
"208 667 OFFCURVE",
"204 642 CURVE SMOOTH",
"84 57 LINE SMOOTH",
"79 32 OFFCURVE",
"57 22 OFFCURVE",
"20 22 CURVE SMOOTH",
"-8 22 LINE",
"-12 0 LINE"
);
},
{
closed = 1;
nodes = (
"265 866 LINE",
"273 871 OFFCURVE",
"281 875 OFFCURVE",
"286 875 CURVE SMOOTH",
"291 875 OFFCURVE",
"297 871 OFFCURVE",
"302 866 CURVE",
"382 784 LINE",
"403 803 LINE",
"315 921 LINE",
"274 921 LINE",
"139 803 LINE",
"151 784 LINE"
);
}
);
width = 295;
}
);
note = Icircumflex;
unicode = 00CE;
},
{
glyphname = Idieresis;
lastChange = "2015-10-21 17:12:07 +0000";
layers = (
{
layerId = "4BDFF818-6971-4FC7-918A-7FEEE3878A0A";
name = "Light Italic";
paths = (
{
closed = 1;
nodes = (
"229 0 LINE",
"233 22 LINE",
"206 22 LINE SMOOTH",
"174 22 OFFCURVE",
"156 30 OFFCURVE",
"156 48 CURVE SMOOTH",
"156 51 OFFCURVE",
"156 54 OFFCURVE",
"157 57 CURVE SMOOTH",
"276 642 LINE SMOOTH",
"281 667 OFFCURVE",
"302 677 OFFCURVE",
"340 677 CURVE SMOOTH",
"367 677 LINE",
"372 700 LINE",
"131 700 LINE",
"126 677 LINE",
"154 677 LINE SMOOTH",
"190 677 OFFCURVE",
"208 667 OFFCURVE",
"204 642 CURVE SMOOTH",
"84 57 LINE SMOOTH",
"79 32 OFFCURVE",
"57 22 OFFCURVE",
"20 22 CURVE SMOOTH",
"-8 22 LINE",
"-12 0 LINE"
);
},
{
closed = 1;
nodes = (
"194 782 OFFCURVE",
"214 805 OFFCURVE",
"214 835 CURVE SMOOTH",
"214 853 OFFCURVE",
"203 865 OFFCURVE",
"182 865 CURVE SMOOTH",
"158 865 OFFCURVE",
"141 848 OFFCURVE",
"135 823 CURVE SMOOTH",
"134 820 OFFCURVE",
"134 816 OFFCURVE",
"134 813 CURVE SMOOTH",
"134 794 OFFCURVE",
"146 782 OFFCURVE",
"166 782 CURVE SMOOTH"
);
},
{
closed = 1;
nodes = (
"395 782 OFFCURVE",
"415 805 OFFCURVE",
"415 835 CURVE SMOOTH",
"415 853 OFFCURVE",
"403 865 OFFCURVE",
"383 865 CURVE SMOOTH",
"359 865 OFFCURVE",
"341 848 OFFCURVE",
"335 823 CURVE SMOOTH",
"334 820 OFFCURVE",
"334 816 OFFCURVE",
"334 813 CURVE SMOOTH",
"334 795 OFFCURVE",
"347 782 OFFCURVE",
"367 782 CURVE SMOOTH"
);
}
);
width = 295;
}
);
note = Idieresis;
unicode = 00CF;
},
{
glyphname = Idotaccent;
lastChange = "2015-10-21 17:12:07 +0000";
layers = (
{
layerId = "4BDFF818-6971-4FC7-918A-7FEEE3878A0A";
name = "Light Italic";
paths = (
{
closed = 1;
nodes = (
"229 0 LINE",
"233 22 LINE",
"206 22 LINE SMOOTH",
"174 22 OFFCURVE",
"156 30 OFFCURVE",
"156 48 CURVE SMOOTH",
"156 51 OFFCURVE",
"156 54 OFFCURVE",
"157 57 CURVE SMOOTH",
"276 642 LINE SMOOTH",
"281 667 OFFCURVE",
"302 677 OFFCURVE",
"340 677 CURVE SMOOTH",
"367 677 LINE",
"372 700 LINE",
"131 700 LINE",
"126 677 LINE",
"154 677 LINE SMOOTH",
"190 677 OFFCURVE",
"208 667 OFFCURVE",
"204 642 CURVE SMOOTH",
"84 57 LINE SMOOTH",
"79 32 OFFCURVE",
"57 22 OFFCURVE",
"20 22 CURVE SMOOTH",
"-8 22 LINE",
"-12 0 LINE"
);
},
{
closed = 1;
nodes = (
"287 763 OFFCURVE",
"305 779 OFFCURVE",
"310 804 CURVE",
"311 808 OFFCURVE",
"311 812 OFFCURVE",
"311 816 CURVE SMOOTH",
"311 834 OFFCURVE",
"300 845 OFFCURVE",
"280 845 CURVE SMOOTH",
"256 845 OFFCURVE",
"238 829 OFFCURVE",
"232 804 CURVE",
"231 800 OFFCURVE",
"231 797 OFFCURVE",
"231 794 CURVE SMOOTH",
"231 775 OFFCURVE",
"244 763 OFFCURVE",
"264 763 CURVE SMOOTH"
);
}
);
width = 295;
}
);
note = Idotaccent;
unicode = 0130;
},
{
glyphname = Idotbelow;
lastChange = "2015-12-01 09:29:43 +0000";
layers = (
{
layerId = "4BDFF818-6971-4FC7-918A-7FEEE3878A0A";
name = "Light Italic";
paths = (
{
closed = 1;
nodes = (
"229 0 LINE",
"233 22 LINE",
"206 22 LINE SMOOTH",
"174 22 OFFCURVE",
"156 30 OFFCURVE",
"156 48 CURVE SMOOTH",
"156 51 OFFCURVE",
"156 54 OFFCURVE",
"157 57 CURVE SMOOTH",
"276 642 LINE SMOOTH",
"281 667 OFFCURVE",
"302 677 OFFCURVE",
"340 677 CURVE SMOOTH",
"367 677 LINE",
"372 700 LINE",
"131 700 LINE",
"126 677 LINE",
"154 677 LINE SMOOTH",
"190 677 OFFCURVE",
"208 667 OFFCURVE",
"204 642 CURVE SMOOTH",
"84 57 LINE SMOOTH",
"79 32 OFFCURVE",
"57 22 OFFCURVE",
"20 22 CURVE SMOOTH",
"-8 22 LINE",
"-12 0 LINE"
);
},
{
closed = 1;
nodes = (
"106 -147 OFFCURVE",
"128 -126 OFFCURVE",
"128 -95 CURVE SMOOTH",
"128 -76 OFFCURVE",
"116 -64 OFFCURVE",
"96 -64 CURVE SMOOTH",
"70 -64 OFFCURVE",
"47 -86 OFFCURVE",
"47 -116 CURVE SMOOTH",
"47 -135 OFFCURVE",
"59 -147 OFFCURVE",
"79 -147 CURVE SMOOTH"
);
}
);
width = 295;
}
);
note = Idotbelow;
unicode = 1ECA;
},
{
glyphname = Igrave;
lastChange = "2015-10-21 17:12:07 +0000";
layers = (
{
layerId = "4BDFF818-6971-4FC7-918A-7FEEE3878A0A";
name = "Light Italic";
paths = (
{
closed = 1;
nodes = (
"229 0 LINE",
"233 22 LINE",
"206 22 LINE SMOOTH",
"174 22 OFFCURVE",
"156 30 OFFCURVE",
"156 48 CURVE SMOOTH",
"156 51 OFFCURVE",
"156 54 OFFCURVE",
"157 57 CURVE SMOOTH",
"276 642 LINE SMOOTH",
"281 667 OFFCURVE",
"302 677 OFFCURVE",
"340 677 CURVE SMOOTH",
"367 677 LINE",
"372 700 LINE",
"131 700 LINE",
"126 677 LINE",
"154 677 LINE SMOOTH",
"190 677 OFFCURVE",
"208 667 OFFCURVE",
"204 642 CURVE SMOOTH",
"84 57 LINE SMOOTH",
"79 32 OFFCURVE",
"57 22 OFFCURVE",
"20 22 CURVE SMOOTH",
"-8 22 LINE",
"-12 0 LINE"
);
},
{
closed = 1;
nodes = (
"357 804 LINE",
"271 904 LINE",
"263 912 OFFCURVE",
"252 924 OFFCURVE",
"237 924 CURVE SMOOTH",
"225 924 OFFCURVE",
"210 914 OFFCURVE",
"207 899 CURVE",
"204 884 OFFCURVE",
"213 870 OFFCURVE",
"225 863 CURVE",
"340 784 LINE"
);
}
);
width = 295;
}
);
note = Igrave;
unicode = 00CC;
},
{
glyphname = Ihookabove;
lastChange = "2015-12-01 09:29:43 +0000";
layers = (
{
layerId = "4BDFF818-6971-4FC7-918A-7FEEE3878A0A";
name = "Light Italic";
paths = (
{
closed = 1;
nodes = (
"229 0 LINE",
"233 22 LINE",
"206 22 LINE SMOOTH",
"174 22 OFFCURVE",
"156 30 OFFCURVE",
"156 48 CURVE SMOOTH",
"156 51 OFFCURVE",
"156 54 OFFCURVE",
"157 57 CURVE SMOOTH",
"276 642 LINE SMOOTH",
"281 667 OFFCURVE",
"302 677 OFFCURVE",
"340 677 CURVE SMOOTH",
"367 677 LINE",
"372 700 LINE",
"131 700 LINE",
"126 677 LINE",
"154 677 LINE SMOOTH",
"190 677 OFFCURVE",
"208 667 OFFCURVE",
"204 642 CURVE SMOOTH",
"84 57 LINE SMOOTH",
"79 32 OFFCURVE",
"57 22 OFFCURVE",
"20 22 CURVE SMOOTH",
"-8 22 LINE",
"-12 0 LINE"
);
},
{
closed = 1;
nodes = (
"311 797 LINE",
"294 803 OFFCURVE",
"284 808 OFFCURVE",
"288 826 CURVE SMOOTH",
"296 860 OFFCURVE",
"391 876 OFFCURVE",
"391 935 CURVE SMOOTH",
"391 967 OFFCURVE",
"363 983 OFFCURVE",
"322 983 CURVE SMOOTH",
"278 983 OFFCURVE",
"240 966 OFFCURVE",
"233 935 CURVE",
"232 932 OFFCURVE",
"232 929 OFFCURVE",
"232 927 CURVE SMOOTH",
"232 917 OFFCURVE",
"237 912 OFFCURVE",
"248 912 CURVE SMOOTH",
"266 912 OFFCURVE",
"271 926 OFFCURVE",
"277 937 CURVE",
"285 952 OFFCURVE",
"302 957 OFFCURVE",
"318 957 CURVE SMOOTH",
"337 957 OFFCURVE",
"346 947 OFFCURVE",
"346 934 CURVE SMOOTH",
"346 880 OFFCURVE",
"248 872 OFFCURVE",
"248 815 CURVE SMOOTH",
"248 794 OFFCURVE",
"262 779 OFFCURVE",
"299 779 CURVE"
);
}
);
width = 295;
}
);
note = Ihookabove;
unicode = 1EC8;
},
{
glyphname = Imacron;
lastChange = "2015-10-21 17:12:07 +0000";
layers = (
{
layerId = "4BDFF818-6971-4FC7-918A-7FEEE3878A0A";
name = "Light Italic";
paths = (
{
closed = 1;
nodes = (
"229 0 LINE",
"233 22 LINE",
"206 22 LINE SMOOTH",
"174 22 OFFCURVE",
"156 30 OFFCURVE",
"156 48 CURVE SMOOTH",
"156 51 OFFCURVE",
"156 54 OFFCURVE",
"157 57 CURVE SMOOTH",
"276 642 LINE SMOOTH",
"281 667 OFFCURVE",
"302 677 OFFCURVE",
"340 677 CURVE SMOOTH",
"367 677 LINE",
"372 700 LINE",
"131 700 LINE",
"126 677 LINE",
"154 677 LINE SMOOTH",
"190 677 OFFCURVE",
"208 667 OFFCURVE",
"204 642 CURVE SMOOTH",
"84 57 LINE SMOOTH",
"79 32 OFFCURVE",
"57 22 OFFCURVE",
"20 22 CURVE SMOOTH",
"-8 22 LINE",
"-12 0 LINE"
);
},
{
closed = 1;
nodes = (
"446 786 LINE",
"454 824 LINE",
"100 824 LINE",
"92 786 LINE"
);
}
);
width = 295;
}
);
note = Imacron;
unicode = 012A;
},
{
glyphname = Iogonek;
lastChange = "2015-10-21 17:12:08 +0000";
layers = (
{
layerId = "4BDFF818-6971-4FC7-918A-7FEEE3878A0A";
name = "Light Italic";
paths = (
{
closed = 1;
nodes = (
"229 0 LINE",
"233 22 LINE",
"206 22 LINE SMOOTH",
"174 22 OFFCURVE",
"156 30 OFFCURVE",
"156 48 CURVE SMOOTH",
"156 51 OFFCURVE",
"156 54 OFFCURVE",
"157 57 CURVE SMOOTH",
"276 642 LINE SMOOTH",
"281 667 OFFCURVE",
"302 677 OFFCURVE",
"340 677 CURVE SMOOTH",
"367 677 LINE",
"372 700 LINE",
"131 700 LINE",
"126 677 LINE",
"154 677 LINE SMOOTH",
"190 677 OFFCURVE",
"208 667 OFFCURVE",
"204 642 CURVE SMOOTH",
"84 57 LINE SMOOTH",
"79 32 OFFCURVE",
"57 22 OFFCURVE",
"20 22 CURVE SMOOTH",
"-8 22 LINE",
"-12 0 LINE"
);
},
{
closed = 1;
nodes = (
"139 -186 OFFCURVE",
"161 -180 OFFCURVE",
"187 -167 CURVE",
"187 -148 LINE",
"171 -154 OFFCURVE",
"156 -157 OFFCURVE",
"143 -157 CURVE SMOOTH",
"116 -157 OFFCURVE",
"95 -146 OFFCURVE",
"95 -118 CURVE SMOOTH",
"95 -73 OFFCURVE",
"133 -27 OFFCURVE",
"186 3 CURVE",
"153 3 LINE",
"100 -21 OFFCURVE",
"58 -61 OFFCURVE",
"47 -109 CURVE",
"46 -114 OFFCURVE",
"45 -120 OFFCURVE",
"45 -125 CURVE SMOOTH",
"45 -154 OFFCURVE",
"60 -186 OFFCURVE",
"116 -186 CURVE SMOOTH"
);
}
);
width = 295;
}
);
note = Iogonek;
unicode = 012E;
},
{
glyphname = Itilde;
lastChange = "2015-10-21 17:12:07 +0000";
layers = (
{
layerId = "4BDFF818-6971-4FC7-918A-7FEEE3878A0A";
name = "Light Italic";
paths = (
{
closed = 1;
nodes = (
"229 0 LINE",
"233 22 LINE",
"206 22 LINE SMOOTH",
"174 22 OFFCURVE",
"156 30 OFFCURVE",
"156 48 CURVE SMOOTH",
"156 51 OFFCURVE",
"156 54 OFFCURVE",
"157 57 CURVE SMOOTH",
"276 642 LINE SMOOTH",
"281 667 OFFCURVE",
"302 677 OFFCURVE",
"340 677 CURVE SMOOTH",
"367 677 LINE",
"372 700 LINE",
"131 700 LINE",
"126 677 LINE",
"154 677 LINE SMOOTH",
"190 677 OFFCURVE",
"208 667 OFFCURVE",
"204 642 CURVE SMOOTH",
"84 57 LINE SMOOTH",
"79 32 OFFCURVE",
"57 22 OFFCURVE",
"20 22 CURVE SMOOTH",
"-8 22 LINE",
"-12 0 LINE"
);
},
{
closed = 1;
nodes = (
"154 820 OFFCURVE",
"176 842 OFFCURVE",
"206 842 CURVE SMOOTH",
"252 842 OFFCURVE",
"286 786 OFFCURVE",
"332 786 CURVE SMOOTH",
"382 786 OFFCURVE",
"418 827 OFFCURVE",
"439 880 CURVE",
"422 890 LINE",
"401 850 OFFCURVE",
"381 827 OFFCURVE",
"349 827 CURVE SMOOTH",
"305 827 OFFCURVE",
"269 882 OFFCURVE",
"222 882 CURVE SMOOTH",
"176 882 OFFCURVE",
"137 845 OFFCURVE",
"117 792 CURVE",
"133 782 LINE"
);
}
);
width = 295;
}
);
note = Itilde;
unicode = 0128;
},
{
glyphname = J;
lastChange = "2015-10-21 17:12:07 +0000";
layers = (
{
layerId = "4BDFF818-6971-4FC7-918A-7FEEE3878A0A";
name = "Light Italic";
paths = (
{
closed = 1;
nodes = (
"84 -114 OFFCURVE",
"176 -46 OFFCURVE",
"201 79 CURVE SMOOTH",
"316 642 LINE SMOOTH",
"321 667 OFFCURVE",
"343 677 OFFCURVE",
"379 677 CURVE SMOOTH",
"407 677 LINE",
"412 700 LINE",
"171 700 LINE",
"166 677 LINE",
"193 677 LINE SMOOTH",
"230 677 OFFCURVE",
"248 667 OFFCURVE",
"243 642 CURVE SMOOTH",
"128 79 LINE SMOOTH",
"108 -17 OFFCURVE",
"52 -80 OFFCURVE",
"-29 -95 CURVE",
"-29 -114 LINE"
);
}
);
width = 335;
}
);
note = J;
unicode = 004A;
},
{
glyphname = Jcircumflex;
lastChange = "2015-10-21 17:12:07 +0000";
layers = (
{
layerId = "4BDFF818-6971-4FC7-918A-7FEEE3878A0A";
name = "Light Italic";
paths = (
{
closed = 1;
nodes = (
"84 -114 OFFCURVE",
"176 -46 OFFCURVE",
"201 79 CURVE SMOOTH",
"316 642 LINE SMOOTH",
"321 667 OFFCURVE",
"343 677 OFFCURVE",
"379 677 CURVE SMOOTH",
"407 677 LINE",
"412 700 LINE",
"171 700 LINE",
"166 677 LINE",
"193 677 LINE SMOOTH",
"230 677 OFFCURVE",
"248 667 OFFCURVE",
"243 642 CURVE SMOOTH",
"128 79 LINE SMOOTH",
"108 -17 OFFCURVE",
"52 -80 OFFCURVE",
"-29 -95 CURVE",
"-29 -114 LINE"
);
},
{
closed = 1;
nodes = (
"310 887 LINE",
"318 892 OFFCURVE",
"326 896 OFFCURVE",
"331 896 CURVE SMOOTH",
"336 896 OFFCURVE",
"342 892 OFFCURVE",
"348 887 CURVE",
"427 805 LINE",
"448 824 LINE",
"360 942 LINE",
"319 942 LINE",
"184 824 LINE",
"196 805 LINE"
);
}
);
width = 335;
}
);
note = Jcircumflex;
unicode = 0134;
},
{
glyphname = K;
lastChange = "2015-10-21 17:12:07 +0000";
layers = (
{
layerId = "4BDFF818-6971-4FC7-918A-7FEEE3878A0A";
name = "Light Italic";
paths = (
{
closed = 1;
nodes = (
"227 0 LINE",
"230 22 LINE",
"203 22 LINE SMOOTH",
"171 22 OFFCURVE",
"153 30 OFFCURVE",
"153 49 CURVE SMOOTH",
"153 51 OFFCURVE",
"153 54 OFFCURVE",
"154 57 CURVE SMOOTH",
"273 642 LINE SMOOTH",
"277 667 OFFCURVE",
"300 677 OFFCURVE",
"336 677 CURVE SMOOTH",
"364 677 LINE",
"369 700 LINE",
"128 700 LINE",
"123 677 LINE",
"150 677 LINE SMOOTH",
"187 677 OFFCURVE",
"204 667 OFFCURVE",
"200 642 CURVE SMOOTH",
"81 57 LINE SMOOTH",
"75 32 OFFCURVE",
"54 22 OFFCURVE",
"16 22 CURVE SMOOTH",
"-11 22 LINE",
"-14 0 LINE"
);
},
{
closed = 1;
nodes = (
"592 0 LINE",
"596 22 LINE",
"568 22 LINE SMOOTH",
"534 22 OFFCURVE",
"519 43 OFFCURVE",
"505 62 CURVE SMOOTH",
"267 380 LINE",
"210 335 LINE",
"460 0 LINE"
);
},
{
closed = 1;
nodes = (
"621 652 LINE SMOOTH",
"638 665 OFFCURVE",
"654 677 OFFCURVE",
"683 677 CURVE SMOOTH",
"700 677 LINE",
"705 700 LINE",
"523 700 LINE",
"518 677 LINE",
"533 677 LINE SMOOTH",
"558 677 OFFCURVE",
"569 671 OFFCURVE",
"566 658 CURVE",
"566 654 OFFCURVE",
"564 650 OFFCURVE",
"559 645 CURVE",
"220 385 LINE",
"209 331 LINE"
);
}
);
width = 647;
}
);
note = K;
rightKerningGroup = K;
unicode = 004B;
},
{
glyphname = Kcommaaccent;
lastChange = "2015-10-21 17:12:07 +0000";
layers = (
{
layerId = "4BDFF818-6971-4FC7-918A-7FEEE3878A0A";
name = "Light Italic";
paths = (
{
closed = 1;
nodes = (
"227 0 LINE",
"230 22 LINE",
"203 22 LINE SMOOTH",
"171 22 OFFCURVE",
"153 30 OFFCURVE",
"153 49 CURVE SMOOTH",
"153 51 OFFCURVE",
"153 54 OFFCURVE",
"154 57 CURVE SMOOTH",
"273 642 LINE SMOOTH",
"277 667 OFFCURVE",
"300 677 OFFCURVE",
"336 677 CURVE SMOOTH",
"364 677 LINE",
"369 700 LINE",
"128 700 LINE",
"123 677 LINE",
"150 677 LINE SMOOTH",
"187 677 OFFCURVE",
"204 667 OFFCURVE",
"200 642 CURVE SMOOTH",
"81 57 LINE SMOOTH",
"75 32 OFFCURVE",
"54 22 OFFCURVE",
"16 22 CURVE SMOOTH",
"-11 22 LINE",
"-14 0 LINE"
);
},
{
closed = 1;
nodes = (
"272 -237 OFFCURVE",
"318 -182 OFFCURVE",
"329 -124 CURVE SMOOTH",
"331 -116 OFFCURVE",
"331 -109 OFFCURVE",
"331 -102 CURVE SMOOTH",
"331 -75 OFFCURVE",
"318 -65 OFFCURVE",
"299 -65 CURVE SMOOTH",
"275 -65 OFFCURVE",
"257 -82 OFFCURVE",
"252 -104 CURVE SMOOTH",
"248 -132 OFFCURVE",
"271 -139 OFFCURVE",
"271 -164 CURVE SMOOTH",
"271 -167 OFFCURVE",
"271 -170 OFFCURVE",
"270 -173 CURVE SMOOTH",
"263 -207 OFFCURVE",
"231 -238 OFFCURVE",
"203 -262 CURVE",
"213 -277 LINE"
);
},
{
closed = 1;
nodes = (
"592 0 LINE",
"596 22 LINE",
"568 22 LINE SMOOTH",
"534 22 OFFCURVE",
"519 43 OFFCURVE",
"505 62 CURVE SMOOTH",
"267 380 LINE",
"210 335 LINE",
"460 0 LINE"
);
},
{
closed = 1;
nodes = (
"621 652 LINE SMOOTH",
"638 665 OFFCURVE",
"654 677 OFFCURVE",
"683 677 CURVE SMOOTH",
"700 677 LINE",
"705 700 LINE",
"523 700 LINE",
"518 677 LINE",
"533 677 LINE SMOOTH",
"558 677 OFFCURVE",
"569 671 OFFCURVE",
"566 658 CURVE",
"566 654 OFFCURVE",
"564 650 OFFCURVE",
"559 645 CURVE",
"220 385 LINE",
"209 331 LINE"
);
}
);
width = 647;
}
);
note = Kcommaaccent;
rightKerningGroup = K;
unicode = 0136;
},
{
glyphname = L;
lastChange = "2015-10-21 17:12:07 +0000";
layers = (
{
layerId = "4BDFF818-6971-4FC7-918A-7FEEE3878A0A";
name = "Light Italic";
paths = (
{
closed = 1;
nodes = (
"477 0 LINE",
"529 179 LINE",
"507 179 LINE",
"494 137 OFFCURVE",
"453 35 OFFCURVE",
"395 35 CURVE SMOOTH",
"208 35 LINE SMOOTH",
"176 35 OFFCURVE",
"157 44 OFFCURVE",
"157 64 CURVE SMOOTH",
"157 67 OFFCURVE",
"157 70 OFFCURVE",
"158 73 CURVE SMOOTH",
"275 642 LINE SMOOTH",
"279 667 OFFCURVE",
"300 677 OFFCURVE",
"338 677 CURVE SMOOTH",
"365 677 LINE",
"370 700 LINE",
"129 700 LINE",
"124 677 LINE",
"151 677 LINE SMOOTH",
"188 677 OFFCURVE",
"206 667 OFFCURVE",
"202 642 CURVE SMOOTH",
"83 57 LINE SMOOTH",
"77 32 OFFCURVE",
"55 22 OFFCURVE",
"17 22 CURVE SMOOTH",
"-10 22 LINE",
"-13 0 LINE"
);
}
);
width = 550;
}
);
note = L;
rightKerningGroup = L;
unicode = 004C;
},
{
glyphname = Lacute;
lastChange = "2015-10-21 17:12:08 +0000";
layers = (
{
layerId = "4BDFF818-6971-4FC7-918A-7FEEE3878A0A";
name = "Light Italic";
paths = (
{
closed = 1;
nodes = (
"477 0 LINE",
"529 179 LINE",
"507 179 LINE",
"494 137 OFFCURVE",
"453 35 OFFCURVE",
"395 35 CURVE SMOOTH",
"208 35 LINE SMOOTH",
"176 35 OFFCURVE",
"157 44 OFFCURVE",
"157 64 CURVE SMOOTH",
"157 67 OFFCURVE",
"157 70 OFFCURVE",
"158 73 CURVE SMOOTH",
"275 642 LINE SMOOTH",
"279 667 OFFCURVE",
"300 677 OFFCURVE",
"338 677 CURVE SMOOTH",
"365 677 LINE",
"370 700 LINE",
"129 700 LINE",
"124 677 LINE",
"151 677 LINE SMOOTH",
"188 677 OFFCURVE",
"206 667 OFFCURVE",
"202 642 CURVE SMOOTH",
"83 57 LINE SMOOTH",
"77 32 OFFCURVE",
"55 22 OFFCURVE",
"17 22 CURVE SMOOTH",
"-10 22 LINE",
"-13 0 LINE"
);
},
{
closed = 1;
nodes = (
"394 863 LINE SMOOTH",
"413 873 OFFCURVE",
"425 885 OFFCURVE",
"428 899 CURVE",
"430 912 OFFCURVE",
"425 924 OFFCURVE",
"409 924 CURVE SMOOTH",
"393 924 OFFCURVE",
"375 911 OFFCURVE",
"367 904 CURVE SMOOTH",
"237 804 LINE",
"247 784 LINE"
);
}
);
width = 550;
}
);
note = Lacute;
rightKerningGroup = L;
unicode = 0139;
},
{
glyphname = Lcaron;
lastChange = "2015-10-21 17:12:07 +0000";
layers = (
{
layerId = "4BDFF818-6971-4FC7-918A-7FEEE3878A0A";
name = "Light Italic";
paths = (
{
closed = 1;
nodes = (
"477 0 LINE",
"529 179 LINE",
"507 179 LINE",
"494 137 OFFCURVE",
"453 35 OFFCURVE",
"395 35 CURVE SMOOTH",
"208 35 LINE SMOOTH",
"176 35 OFFCURVE",
"157 44 OFFCURVE",
"157 64 CURVE SMOOTH",
"157 67 OFFCURVE",
"157 70 OFFCURVE",
"158 73 CURVE SMOOTH",
"275 642 LINE SMOOTH",
"279 667 OFFCURVE",
"300 677 OFFCURVE",
"338 677 CURVE SMOOTH",
"365 677 LINE",
"370 700 LINE",
"129 700 LINE",
"124 677 LINE",
"151 677 LINE SMOOTH",
"188 677 OFFCURVE",
"206 667 OFFCURVE",
"202 642 CURVE SMOOTH",
"83 57 LINE SMOOTH",
"77 32 OFFCURVE",
"55 22 OFFCURVE",
"17 22 CURVE SMOOTH",
"-10 22 LINE",
"-13 0 LINE"
);
},
{
closed = 1;
nodes = (
"474 534 OFFCURVE",
"520 590 OFFCURVE",
"532 648 CURVE SMOOTH",
"534 656 OFFCURVE",
"534 663 OFFCURVE",
"534 669 CURVE SMOOTH",
"534 696 OFFCURVE",
"520 706 OFFCURVE",
"501 706 CURVE SMOOTH",
"477 706 OFFCURVE",
"460 689 OFFCURVE",
"455 667 CURVE SMOOTH",
"450 639 OFFCURVE",
"473 632 OFFCURVE",
"473 608 CURVE SMOOTH",
"473 605 OFFCURVE",
"473 602 OFFCURVE",
"472 599 CURVE SMOOTH",
"466 565 OFFCURVE",
"434 533 OFFCURVE",
"405 509 CURVE",
"416 495 LINE"
);
}
);
width = 550;
}
);
note = Lcaron;
rightKerningGroup = L;
unicode = 013D;
},
{
glyphname = Lcommaaccent;
lastChange = "2015-10-21 17:12:07 +0000";
layers = (
{
layerId = "4BDFF818-6971-4FC7-918A-7FEEE3878A0A";
name = "Light Italic";
paths = (
{
closed = 1;
nodes = (
"477 0 LINE",
"529 179 LINE",
"507 179 LINE",
"494 137 OFFCURVE",
"453 35 OFFCURVE",
"395 35 CURVE SMOOTH",
"208 35 LINE SMOOTH",
"176 35 OFFCURVE",
"157 44 OFFCURVE",
"157 64 CURVE SMOOTH",
"157 67 OFFCURVE",
"157 70 OFFCURVE",
"158 73 CURVE SMOOTH",
"275 642 LINE SMOOTH",
"279 667 OFFCURVE",
"300 677 OFFCURVE",
"338 677 CURVE SMOOTH",
"365 677 LINE",
"370 700 LINE",
"129 700 LINE",
"124 677 LINE",
"151 677 LINE SMOOTH",
"188 677 OFFCURVE",
"206 667 OFFCURVE",
"202 642 CURVE SMOOTH",
"83 57 LINE SMOOTH",
"77 32 OFFCURVE",
"55 22 OFFCURVE",
"17 22 CURVE SMOOTH",
"-10 22 LINE",
"-13 0 LINE"
);
},
{
closed = 1;
nodes = (
"198 -237 OFFCURVE",
"244 -182 OFFCURVE",
"255 -124 CURVE SMOOTH",
"257 -116 OFFCURVE",
"257 -109 OFFCURVE",
"257 -102 CURVE SMOOTH",
"257 -75 OFFCURVE",
"244 -65 OFFCURVE",
"225 -65 CURVE SMOOTH",
"201 -65 OFFCURVE",
"183 -82 OFFCURVE",
"179 -104 CURVE SMOOTH",
"174 -132 OFFCURVE",
"197 -139 OFFCURVE",
"197 -164 CURVE SMOOTH",
"197 -167 OFFCURVE",
"197 -170 OFFCURVE",
"196 -173 CURVE SMOOTH",
"189 -207 OFFCURVE",
"157 -238 OFFCURVE",
"129 -262 CURVE",
"139 -277 LINE"
);
}
);
width = 550;
}
);
note = Lcommaaccent;
rightKerningGroup = L;
unicode = 013B;
},
{
glyphname = Ldot;
lastChange = "2015-10-21 17:12:07 +0000";
layers = (
{
layerId = "4BDFF818-6971-4FC7-918A-7FEEE3878A0A";
name = "Light Italic";
paths = (
{
closed = 1;
nodes = (
"477 0 LINE",
"529 179 LINE",
"507 179 LINE",
"494 137 OFFCURVE",
"453 35 OFFCURVE",
"395 35 CURVE SMOOTH",
"208 35 LINE SMOOTH",
"176 35 OFFCURVE",
"157 44 OFFCURVE",
"157 64 CURVE SMOOTH",
"157 67 OFFCURVE",
"157 70 OFFCURVE",
"158 73 CURVE SMOOTH",
"275 642 LINE SMOOTH",
"279 667 OFFCURVE",
"300 677 OFFCURVE",
"338 677 CURVE SMOOTH",
"365 677 LINE",
"370 700 LINE",
"129 700 LINE",
"124 677 LINE",
"151 677 LINE SMOOTH",
"188 677 OFFCURVE",
"206 667 OFFCURVE",
"202 642 CURVE SMOOTH",
"83 57 LINE SMOOTH",
"77 32 OFFCURVE",
"55 22 OFFCURVE",
"17 22 CURVE SMOOTH",
"-10 22 LINE",
"-13 0 LINE"
);
},
{
closed = 1;
nodes = (
"396 311 OFFCURVE",
"415 328 OFFCURVE",
"420 353 CURVE SMOOTH",
"421 356 OFFCURVE",
"421 360 OFFCURVE",
"421 363 CURVE SMOOTH",
"421 381 OFFCURVE",
"409 394 OFFCURVE",
"389 394 CURVE SMOOTH",
"362 394 OFFCURVE",
"342 371 OFFCURVE",
"342 341 CURVE SMOOTH",
"342 323 OFFCURVE",
"353 311 OFFCURVE",
"372 311 CURVE SMOOTH"
);
}
);
width = 550;
}
);
note = Ldot;
rightKerningGroup = L;
unicode = 013F;
},
{
glyphname = Ldotbelow;
lastChange = "2015-10-21 17:12:07 +0000";
layers = (
{
layerId = "4BDFF818-6971-4FC7-918A-7FEEE3878A0A";
name = "Light Italic";
paths = (
{
closed = 1;
nodes = (
"477 0 LINE",
"529 179 LINE",
"507 179 LINE",
"494 137 OFFCURVE",
"453 35 OFFCURVE",
"395 35 CURVE SMOOTH",
"208 35 LINE SMOOTH",
"176 35 OFFCURVE",
"157 44 OFFCURVE",
"157 64 CURVE SMOOTH",
"157 67 OFFCURVE",
"157 70 OFFCURVE",
"158 73 CURVE SMOOTH",
"275 642 LINE SMOOTH",
"279 667 OFFCURVE",
"300 677 OFFCURVE",
"338 677 CURVE SMOOTH",
"365 677 LINE",
"370 700 LINE",
"129 700 LINE",
"124 677 LINE",
"151 677 LINE SMOOTH",
"188 677 OFFCURVE",
"206 667 OFFCURVE",
"202 642 CURVE SMOOTH",
"83 57 LINE SMOOTH",
"77 32 OFFCURVE",
"55 22 OFFCURVE",
"17 22 CURVE SMOOTH",
"-10 22 LINE",
"-13 0 LINE"
);
},
{
closed = 1;
nodes = (
"262 -142 OFFCURVE",
"283 -120 OFFCURVE",
"283 -90 CURVE SMOOTH",
"283 -71 OFFCURVE",
"272 -59 OFFCURVE",
"252 -59 CURVE SMOOTH",
"226 -59 OFFCURVE",
"203 -81 OFFCURVE",
"203 -111 CURVE SMOOTH",
"203 -130 OFFCURVE",
"214 -142 OFFCURVE",
"234 -142 CURVE SMOOTH"
);
}
);
width = 550;
}
);
note = Ldotbelow;
rightKerningGroup = L;
unicode = 1E36;
},
{
glyphname = Ldotbelowmacron;
lastChange = "2015-10-21 17:12:07 +0000";
layers = (
{
layerId = "4BDFF818-6971-4FC7-918A-7FEEE3878A0A";
name = "Light Italic";
paths = (
{
closed = 1;
nodes = (
"477 0 LINE",
"529 179 LINE",
"507 179 LINE",
"494 137 OFFCURVE",
"453 35 OFFCURVE",
"395 35 CURVE SMOOTH",
"208 35 LINE SMOOTH",
"176 35 OFFCURVE",
"157 44 OFFCURVE",
"157 64 CURVE SMOOTH",
"157 67 OFFCURVE",
"157 70 OFFCURVE",
"158 73 CURVE SMOOTH",
"275 642 LINE SMOOTH",
"279 667 OFFCURVE",
"300 677 OFFCURVE",
"338 677 CURVE SMOOTH",
"365 677 LINE",
"370 700 LINE",
"129 700 LINE",
"124 677 LINE",
"151 677 LINE SMOOTH",
"188 677 OFFCURVE",
"206 667 OFFCURVE",
"202 642 CURVE SMOOTH",
"83 57 LINE SMOOTH",
"77 32 OFFCURVE",
"55 22 OFFCURVE",
"17 22 CURVE SMOOTH",
"-10 22 LINE",
"-13 0 LINE"
);
},
{
closed = 1;
nodes = (
"262 -142 OFFCURVE",
"283 -120 OFFCURVE",
"283 -90 CURVE SMOOTH",
"283 -71 OFFCURVE",
"272 -59 OFFCURVE",
"252 -59 CURVE SMOOTH",
"226 -59 OFFCURVE",
"203 -81 OFFCURVE",
"203 -111 CURVE SMOOTH",
"203 -130 OFFCURVE",
"214 -142 OFFCURVE",
"234 -142 CURVE SMOOTH"
);
},
{
closed = 1;
nodes = (
"434 782 LINE",
"441 817 LINE",
"140 817 LINE",
"133 782 LINE"
);
}
);
width = 550;
}
);
note = Ldotbelowmacron;
rightKerningGroup = L;
unicode = 1E38;
},
{
glyphname = Llinebelow;
lastChange = "2015-10-21 17:12:07 +0000";
layers = (
{
layerId = "4BDFF818-6971-4FC7-918A-7FEEE3878A0A";
name = "Light Italic";
paths = (
{
closed = 1;
nodes = (
"477 0 LINE",
"529 179 LINE",
"507 179 LINE",
"494 137 OFFCURVE",
"453 35 OFFCURVE",
"395 35 CURVE SMOOTH",
"208 35 LINE SMOOTH",
"176 35 OFFCURVE",
"157 44 OFFCURVE",
"157 64 CURVE SMOOTH",
"157 67 OFFCURVE",
"157 70 OFFCURVE",
"158 73 CURVE SMOOTH",
"275 642 LINE SMOOTH",
"279 667 OFFCURVE",
"300 677 OFFCURVE",
"338 677 CURVE SMOOTH",
"365 677 LINE",
"370 700 LINE",
"129 700 LINE",
"124 677 LINE",
"151 677 LINE SMOOTH",
"188 677 OFFCURVE",
"206 667 OFFCURVE",
"202 642 CURVE SMOOTH",
"83 57 LINE SMOOTH",
"77 32 OFFCURVE",
"55 22 OFFCURVE",
"17 22 CURVE SMOOTH",
"-10 22 LINE",
"-13 0 LINE"
);
},
{
closed = 1;
nodes = (
"367 -106 LINE",
"373 -73 LINE",
"74 -73 LINE",
"67 -106 LINE"
);
}
);
width = 550;
}
);
note = Llinebelow;
rightKerningGroup = L;
unicode = 1E3A;
},
{
glyphname = Lslash;
lastChange = "2015-10-21 17:12:08 +0000";
layers = (
{
layerId = "4BDFF818-6971-4FC7-918A-7FEEE3878A0A";
name = "Light Italic";
paths = (
{
closed = 1;
nodes = (
"477 0 LINE",
"529 179 LINE",
"507 179 LINE",
"494 137 OFFCURVE",
"453 35 OFFCURVE",
"395 35 CURVE SMOOTH",
"208 35 LINE SMOOTH",
"176 35 OFFCURVE",
"157 44 OFFCURVE",
"157 64 CURVE SMOOTH",
"157 67 OFFCURVE",
"157 70 OFFCURVE",
"158 73 CURVE SMOOTH",
"275 642 LINE SMOOTH",
"279 667 OFFCURVE",
"300 677 OFFCURVE",
"338 677 CURVE SMOOTH",
"365 677 LINE",
"370 700 LINE",
"129 700 LINE",
"124 677 LINE",
"151 677 LINE SMOOTH",
"188 677 OFFCURVE",
"206 667 OFFCURVE",
"202 642 CURVE SMOOTH",
"83 57 LINE SMOOTH",
"77 32 OFFCURVE",
"55 22 OFFCURVE",
"17 22 CURVE SMOOTH",
"-10 22 LINE",
"-13 0 LINE"
);
},
{
closed = 1;
nodes = (
"427 383 LINE",
"436 427 LINE",
"50 291 LINE",
"41 247 LINE"
);
}
);
width = 550;
}
);
note = Lslash;
rightKerningGroup = L;
unicode = 0141;
},
{
glyphname = M;
lastChange = "2015-10-21 17:12:07 +0000";
layers = (
{
layerId = "4BDFF818-6971-4FC7-918A-7FEEE3878A0A";
name = "Light Italic";
paths = (
{
closed = 1;
nodes = (
"196 0 LINE",
"200 22 LINE",
"172 22 LINE SMOOTH",
"140 22 OFFCURVE",
"122 30 OFFCURVE",
"122 49 CURVE SMOOTH",
"122 51 OFFCURVE",
"122 54 OFFCURVE",
"123 57 CURVE SMOOTH",
"239 628 LINE",
"363 77 LINE",
"407 77 LINE",
"757 627 LINE",
"641 57 LINE SMOOTH",
"636 32 OFFCURVE",
"613 22 OFFCURVE",
"576 22 CURVE SMOOTH",
"549 22 LINE",
"545 0 LINE",
"786 0 LINE",
"790 22 LINE",
"763 22 LINE SMOOTH",
"731 22 OFFCURVE",
"713 30 OFFCURVE",
"713 48 CURVE SMOOTH",
"713 51 OFFCURVE",
"713 54 OFFCURVE",
"714 57 CURVE SMOOTH",
"833 642 LINE SMOOTH",
"838 667 OFFCURVE",
"859 677 OFFCURVE",
"897 677 CURVE SMOOTH",
"924 677 LINE",
"928 700 LINE",
"757 700 LINE",
"413 151 LINE",
"293 700 LINE",
"128 700 LINE",
"123 677 LINE",
"150 677 LINE SMOOTH",
"187 677 OFFCURVE",
"204 667 OFFCURVE",
"200 642 CURVE SMOOTH",
"81 57 LINE SMOOTH",
"75 32 OFFCURVE",
"54 22 OFFCURVE",
"16 22 CURVE SMOOTH",
"-11 22 LINE",
"-14 0 LINE"
);
}
);
width = 849;
}
);
note = M;
unicode = 004D;
},
{
glyphname = Mdotbelow;
lastChange = "2015-10-21 17:12:07 +0000";
layers = (
{
layerId = "4BDFF818-6971-4FC7-918A-7FEEE3878A0A";
name = "Light Italic";
paths = (
{
closed = 1;
nodes = (
"196 0 LINE",
"200 22 LINE",
"172 22 LINE SMOOTH",
"140 22 OFFCURVE",
"122 30 OFFCURVE",
"122 49 CURVE SMOOTH",
"122 51 OFFCURVE",
"122 54 OFFCURVE",
"123 57 CURVE SMOOTH",
"239 628 LINE",
"363 77 LINE",
"407 77 LINE",
"757 627 LINE",
"641 57 LINE SMOOTH",
"636 32 OFFCURVE",
"613 22 OFFCURVE",
"576 22 CURVE SMOOTH",
"549 22 LINE",
"545 0 LINE",
"786 0 LINE",
"790 22 LINE",
"763 22 LINE SMOOTH",
"731 22 OFFCURVE",
"713 30 OFFCURVE",
"713 48 CURVE SMOOTH",
"713 51 OFFCURVE",
"713 54 OFFCURVE",
"714 57 CURVE SMOOTH",
"833 642 LINE SMOOTH",
"838 667 OFFCURVE",
"859 677 OFFCURVE",
"897 677 CURVE SMOOTH",
"924 677 LINE",
"928 700 LINE",
"757 700 LINE",
"413 151 LINE",
"293 700 LINE",
"128 700 LINE",
"123 677 LINE",
"150 677 LINE SMOOTH",
"187 677 OFFCURVE",
"204 667 OFFCURVE",
"200 642 CURVE SMOOTH",
"81 57 LINE SMOOTH",
"75 32 OFFCURVE",
"54 22 OFFCURVE",
"16 22 CURVE SMOOTH",
"-11 22 LINE",
"-14 0 LINE"
);
},
{
closed = 1;
nodes = (
"382 -147 OFFCURVE",
"404 -126 OFFCURVE",
"404 -95 CURVE SMOOTH",
"404 -76 OFFCURVE",
"393 -64 OFFCURVE",
"372 -64 CURVE SMOOTH",
"347 -64 OFFCURVE",
"324 -86 OFFCURVE",
"324 -116 CURVE SMOOTH",
"324 -135 OFFCURVE",
"335 -147 OFFCURVE",
"355 -147 CURVE SMOOTH"
);
}
);
width = 849;
}
);
note = Mdotbelow;
unicode = 1E42;
},
{
glyphname = N;
lastChange = "2015-10-21 17:12:07 +0000";
layers = (
{
layerId = "4BDFF818-6971-4FC7-918A-7FEEE3878A0A";
name = "Light Italic";
paths = (
{
closed = 1;
nodes = (
"196 0 LINE",
"200 22 LINE",
"172 22 LINE SMOOTH",
"140 22 OFFCURVE",
"122 30 OFFCURVE",
"122 49 CURVE SMOOTH",
"122 51 OFFCURVE",
"122 54 OFFCURVE",
"123 57 CURVE SMOOTH",
"245 655 LINE",
"522 0 LINE",
"569 0 LINE",
"700 642 LINE SMOOTH",
"705 667 OFFCURVE",
"727 677 OFFCURVE",
"763 677 CURVE SMOOTH",
"791 677 LINE",
"796 700 LINE",
"586 700 LINE",
"581 677 LINE",
"608 677 LINE SMOOTH",
"645 677 OFFCURVE",
"662 667 OFFCURVE",
"658 642 CURVE SMOOTH",
"547 101 LINE",
"297 700 LINE",
"128 700 LINE",
"123 677 LINE",
"150 677 LINE SMOOTH",
"187 677 OFFCURVE",
"204 667 OFFCURVE",
"200 642 CURVE SMOOTH",
"81 57 LINE SMOOTH",
"75 32 OFFCURVE",
"54 22 OFFCURVE",
"16 22 CURVE SMOOTH",
"-11 22 LINE",
"-14 0 LINE"
);
}
);
width = 716;
}
);
note = N;
unicode = 004E;
},
{
glyphname = Nacute;
lastChange = "2015-10-21 17:12:07 +0000";
layers = (
{
layerId = "4BDFF818-6971-4FC7-918A-7FEEE3878A0A";
name = "Light Italic";
paths = (
{
closed = 1;
nodes = (
"196 0 LINE",
"200 22 LINE",
"172 22 LINE SMOOTH",
"140 22 OFFCURVE",
"122 30 OFFCURVE",
"122 49 CURVE SMOOTH",
"122 51 OFFCURVE",
"122 54 OFFCURVE",
"123 57 CURVE SMOOTH",
"245 655 LINE",
"522 0 LINE",
"569 0 LINE",
"700 642 LINE SMOOTH",
"705 667 OFFCURVE",
"727 677 OFFCURVE",
"763 677 CURVE SMOOTH",
"791 677 LINE",
"796 700 LINE",
"586 700 LINE",
"581 677 LINE",
"608 677 LINE SMOOTH",
"645 677 OFFCURVE",
"662 667 OFFCURVE",
"658 642 CURVE SMOOTH",
"547 101 LINE",
"297 700 LINE",
"128 700 LINE",
"123 677 LINE",
"150 677 LINE SMOOTH",
"187 677 OFFCURVE",
"204 667 OFFCURVE",
"200 642 CURVE SMOOTH",
"81 57 LINE SMOOTH",
"75 32 OFFCURVE",
"54 22 OFFCURVE",
"16 22 CURVE SMOOTH",
"-11 22 LINE",
"-14 0 LINE"
);
},
{
closed = 1;
nodes = (
"567 863 LINE SMOOTH",
"587 873 OFFCURVE",
"599 885 OFFCURVE",
"602 899 CURVE",
"604 912 OFFCURVE",
"599 924 OFFCURVE",
"583 924 CURVE SMOOTH",
"566 924 OFFCURVE",
"549 911 OFFCURVE",
"540 904 CURVE SMOOTH",
"411 804 LINE",
"420 784 LINE"
);
}
);
width = 716;
}
);
note = Nacute;
unicode = 0143;
},
{
glyphname = Ncaron;
lastChange = "2015-10-21 17:12:07 +0000";
layers = (
{
layerId = "4BDFF818-6971-4FC7-918A-7FEEE3878A0A";
name = "Light Italic";
paths = (
{
closed = 1;
nodes = (
"196 0 LINE",
"200 22 LINE",
"172 22 LINE SMOOTH",
"140 22 OFFCURVE",
"122 30 OFFCURVE",
"122 49 CURVE SMOOTH",
"122 51 OFFCURVE",
"122 54 OFFCURVE",
"123 57 CURVE SMOOTH",
"245 655 LINE",
"522 0 LINE",
"569 0 LINE",
"700 642 LINE SMOOTH",
"705 667 OFFCURVE",
"727 677 OFFCURVE",
"763 677 CURVE SMOOTH",
"791 677 LINE",
"796 700 LINE",
"586 700 LINE",
"581 677 LINE",
"608 677 LINE SMOOTH",
"645 677 OFFCURVE",
"662 667 OFFCURVE",
"658 642 CURVE SMOOTH",
"547 101 LINE",
"297 700 LINE",
"128 700 LINE",
"123 677 LINE",
"150 677 LINE SMOOTH",
"187 677 OFFCURVE",
"204 667 OFFCURVE",
"200 642 CURVE SMOOTH",
"81 57 LINE SMOOTH",
"75 32 OFFCURVE",
"54 22 OFFCURVE",
"16 22 CURVE SMOOTH",
"-11 22 LINE",
"-14 0 LINE"
);
},
{
closed = 1;
nodes = (
"500 784 LINE",
"636 902 LINE",
"623 921 LINE",
"510 839 LINE",
"502 834 OFFCURVE",
"494 830 OFFCURVE",
"490 830 CURVE SMOOTH",
"485 830 OFFCURVE",
"479 832 OFFCURVE",
"472 839 CURVE SMOOTH",
"392 921 LINE",
"372 902 LINE",
"459 784 LINE"
);
}
);
width = 716;
}
);
note = Ncaron;
unicode = 0147;
},
{
glyphname = Ncommaaccent;
lastChange = "2015-10-21 17:12:07 +0000";
layers = (
{
layerId = "4BDFF818-6971-4FC7-918A-7FEEE3878A0A";
name = "Light Italic";
paths = (
{
closed = 1;
nodes = (
"196 0 LINE",
"200 22 LINE",
"172 22 LINE SMOOTH",
"140 22 OFFCURVE",
"122 30 OFFCURVE",
"122 49 CURVE SMOOTH",
"122 51 OFFCURVE",
"122 54 OFFCURVE",
"123 57 CURVE SMOOTH",
"245 655 LINE",
"522 0 LINE",
"569 0 LINE",
"700 642 LINE SMOOTH",
"705 667 OFFCURVE",
"727 677 OFFCURVE",
"763 677 CURVE SMOOTH",
"791 677 LINE",
"796 700 LINE",
"586 700 LINE",
"581 677 LINE",
"608 677 LINE SMOOTH",
"645 677 OFFCURVE",
"662 667 OFFCURVE",
"658 642 CURVE SMOOTH",
"547 101 LINE",
"297 700 LINE",
"128 700 LINE",
"123 677 LINE",
"150 677 LINE SMOOTH",
"187 677 OFFCURVE",
"204 667 OFFCURVE",
"200 642 CURVE SMOOTH",
"81 57 LINE SMOOTH",
"75 32 OFFCURVE",
"54 22 OFFCURVE",
"16 22 CURVE SMOOTH",
"-11 22 LINE",
"-14 0 LINE"
);
},
{
closed = 1;
nodes = (
"260 -237 OFFCURVE",
"306 -182 OFFCURVE",
"318 -124 CURVE SMOOTH",
"320 -116 OFFCURVE",
"320 -109 OFFCURVE",
"320 -102 CURVE SMOOTH",
"320 -75 OFFCURVE",
"306 -65 OFFCURVE",
"287 -65 CURVE SMOOTH",
"263 -65 OFFCURVE",
"246 -82 OFFCURVE",
"241 -104 CURVE SMOOTH",
"236 -132 OFFCURVE",
"259 -139 OFFCURVE",
"259 -164 CURVE SMOOTH",
"259 -167 OFFCURVE",
"259 -170 OFFCURVE",
"258 -173 CURVE SMOOTH",
"252 -207 OFFCURVE",
"220 -238 OFFCURVE",
"191 -262 CURVE",
"202 -277 LINE"
);
}
);
width = 716;
}
);
note = Ncommaaccent;
unicode = 0145;
},
{
glyphname = Ndotaccent;
lastChange = "2015-10-21 17:12:07 +0000";
layers = (
{
layerId = "4BDFF818-6971-4FC7-918A-7FEEE3878A0A";
name = "Light Italic";
paths = (
{
closed = 1;
nodes = (
"196 0 LINE",
"200 22 LINE",
"172 22 LINE SMOOTH",
"140 22 OFFCURVE",
"122 30 OFFCURVE",
"122 49 CURVE SMOOTH",
"122 51 OFFCURVE",
"122 54 OFFCURVE",
"123 57 CURVE SMOOTH",
"245 655 LINE",
"522 0 LINE",
"569 0 LINE",
"700 642 LINE SMOOTH",
"705 667 OFFCURVE",
"727 677 OFFCURVE",
"763 677 CURVE SMOOTH",
"791 677 LINE",
"796 700 LINE",
"586 700 LINE",
"581 677 LINE",
"608 677 LINE SMOOTH",
"645 677 OFFCURVE",
"662 667 OFFCURVE",
"658 642 CURVE SMOOTH",
"547 101 LINE",
"297 700 LINE",
"128 700 LINE",
"123 677 LINE",
"150 677 LINE SMOOTH",
"187 677 OFFCURVE",
"204 667 OFFCURVE",
"200 642 CURVE SMOOTH",
"81 57 LINE SMOOTH",
"75 32 OFFCURVE",
"54 22 OFFCURVE",
"16 22 CURVE SMOOTH",
"-11 22 LINE",
"-14 0 LINE"
);
},
{
closed = 1;
nodes = (
"496 763 OFFCURVE",
"515 779 OFFCURVE",
"519 804 CURVE",
"520 808 OFFCURVE",
"520 812 OFFCURVE",
"520 816 CURVE SMOOTH",
"520 834 OFFCURVE",
"509 845 OFFCURVE",
"490 845 CURVE SMOOTH",
"466 845 OFFCURVE",
"447 829 OFFCURVE",
"442 804 CURVE",
"441 800 OFFCURVE",
"441 797 OFFCURVE",
"441 794 CURVE SMOOTH",
"441 775 OFFCURVE",
"453 763 OFFCURVE",
"473 763 CURVE SMOOTH"
);
}
);
width = 716;
}
);
note = Ndotaccent;
unicode = 1E44;
},
{
glyphname = Ndotbelow;
lastChange = "2015-12-01 09:29:59 +0000";
layers = (
{
layerId = "4BDFF818-6971-4FC7-918A-7FEEE3878A0A";
name = "Light Italic";
paths = (
{
closed = 1;
nodes = (
"196 0 LINE",
"200 22 LINE",
"172 22 LINE SMOOTH",
"140 22 OFFCURVE",
"122 30 OFFCURVE",
"122 49 CURVE SMOOTH",
"122 51 OFFCURVE",
"122 54 OFFCURVE",
"123 57 CURVE SMOOTH",
"245 655 LINE",
"522 0 LINE",
"569 0 LINE",
"700 642 LINE SMOOTH",
"705 667 OFFCURVE",
"727 677 OFFCURVE",
"763 677 CURVE SMOOTH",
"791 677 LINE",
"796 700 LINE",
"586 700 LINE",
"581 677 LINE",
"608 677 LINE SMOOTH",
"645 677 OFFCURVE",
"662 667 OFFCURVE",
"658 642 CURVE SMOOTH",
"547 101 LINE",
"297 700 LINE",
"128 700 LINE",
"123 677 LINE",
"150 677 LINE SMOOTH",
"187 677 OFFCURVE",
"204 667 OFFCURVE",
"200 642 CURVE SMOOTH",
"81 57 LINE SMOOTH",
"75 32 OFFCURVE",
"54 22 OFFCURVE",
"16 22 CURVE SMOOTH",
"-11 22 LINE",
"-14 0 LINE"
);
},
{
closed = 1;
nodes = (
"327 -147 OFFCURVE",
"349 -126 OFFCURVE",
"349 -95 CURVE SMOOTH",
"349 -76 OFFCURVE",
"338 -64 OFFCURVE",
"318 -64 CURVE SMOOTH",
"292 -64 OFFCURVE",
"269 -86 OFFCURVE",
"269 -116 CURVE SMOOTH",
"269 -135 OFFCURVE",
"280 -147 OFFCURVE",
"300 -147 CURVE SMOOTH"
);
}
);
width = 716;
}
);
note = uni1E46;
unicode = 1E46;
},
{
glyphname = Eng;
lastChange = "2015-10-21 17:12:07 +0000";
layers = (
{
layerId = "4BDFF818-6971-4FC7-918A-7FEEE3878A0A";
name = "Light Italic";
paths = (
{
closed = 1;
nodes = (
"481 -246 OFFCURVE",
"535 -165 OFFCURVE",
"563 -29 CURVE SMOOTH",
"700 642 LINE SMOOTH",
"705 667 OFFCURVE",
"727 677 OFFCURVE",
"763 677 CURVE SMOOTH",
"791 677 LINE",
"796 700 LINE",
"586 700 LINE",
"581 677 LINE",
"608 677 LINE SMOOTH",
"645 677 OFFCURVE",
"662 667 OFFCURVE",
"658 642 CURVE SMOOTH",
"547 99 LINE",
"300 700 LINE",
"128 700 LINE",
"123 677 LINE",
"150 677 LINE SMOOTH",
"187 677 OFFCURVE",
"204 667 OFFCURVE",
"200 642 CURVE SMOOTH",
"81 57 LINE SMOOTH",
"75 32 OFFCURVE",
"56 22 OFFCURVE",
"16 22 CURVE SMOOTH",
"-11 22 LINE",
"-14 0 LINE",
"196 0 LINE",
"200 22 LINE",
"172 22 LINE SMOOTH",
"140 22 OFFCURVE",
"122 30 OFFCURVE",
"122 49 CURVE SMOOTH",
"122 51 OFFCURVE",
"122 54 OFFCURVE",
"123 57 CURVE SMOOTH",
"246 659 LINE",
"521 0 LINE",
"506 -72 LINE SMOOTH",
"487 -167 OFFCURVE",
"407 -229 OFFCURVE",
"327 -235 CURVE",
"326 -257 LINE"
);
}
);
width = 716;
}
);
note = Eng;
unicode = 014A;
},
{
glyphname = Nlinebelow;
lastChange = "2015-10-21 17:12:07 +0000";
layers = (
{
layerId = "4BDFF818-6971-4FC7-918A-7FEEE3878A0A";
name = "Light Italic";
paths = (
{
closed = 1;
nodes = (
"196 0 LINE",
"200 22 LINE",
"172 22 LINE SMOOTH",
"140 22 OFFCURVE",
"122 30 OFFCURVE",
"122 49 CURVE SMOOTH",
"122 51 OFFCURVE",
"122 54 OFFCURVE",
"123 57 CURVE SMOOTH",
"245 655 LINE",
"522 0 LINE",
"569 0 LINE",
"700 642 LINE SMOOTH",
"705 667 OFFCURVE",
"727 677 OFFCURVE",
"763 677 CURVE SMOOTH",
"791 677 LINE",
"796 700 LINE",
"586 700 LINE",
"581 677 LINE",
"608 677 LINE SMOOTH",
"645 677 OFFCURVE",
"662 667 OFFCURVE",
"658 642 CURVE SMOOTH",
"547 101 LINE",
"297 700 LINE",
"128 700 LINE",
"123 677 LINE",
"150 677 LINE SMOOTH",
"187 677 OFFCURVE",
"204 667 OFFCURVE",
"200 642 CURVE SMOOTH",
"81 57 LINE SMOOTH",
"75 32 OFFCURVE",
"54 22 OFFCURVE",
"16 22 CURVE SMOOTH",
"-11 22 LINE",
"-14 0 LINE"
);
},
{
closed = 1;
nodes = (
"445 -106 LINE",
"452 -73 LINE",
"153 -73 LINE",
"146 -106 LINE"
);
}
);
width = 716;
}
);
note = Nlinebelow;
unicode = 1E48;
},
{
glyphname = Ntilde;
lastChange = "2015-10-21 17:12:07 +0000";
layers = (
{
layerId = "4BDFF818-6971-4FC7-918A-7FEEE3878A0A";
name = "Light Italic";
paths = (
{
closed = 1;
nodes = (
"196 0 LINE",
"200 22 LINE",
"172 22 LINE SMOOTH",
"140 22 OFFCURVE",
"122 30 OFFCURVE",
"122 49 CURVE SMOOTH",
"122 51 OFFCURVE",
"122 54 OFFCURVE",
"123 57 CURVE SMOOTH",
"245 655 LINE",
"522 0 LINE",
"569 0 LINE",
"700 642 LINE SMOOTH",
"705 667 OFFCURVE",
"727 677 OFFCURVE",
"763 677 CURVE SMOOTH",
"791 677 LINE",
"796 700 LINE",
"586 700 LINE",
"581 677 LINE",
"608 677 LINE SMOOTH",
"645 677 OFFCURVE",
"662 667 OFFCURVE",
"658 642 CURVE SMOOTH",
"547 101 LINE",
"297 700 LINE",
"128 700 LINE",
"123 677 LINE",
"150 677 LINE SMOOTH",
"187 677 OFFCURVE",
"204 667 OFFCURVE",
"200 642 CURVE SMOOTH",
"81 57 LINE SMOOTH",
"75 32 OFFCURVE",
"54 22 OFFCURVE",
"16 22 CURVE SMOOTH",
"-11 22 LINE",
"-14 0 LINE"
);
},
{
closed = 1;
nodes = (
"373 820 OFFCURVE",
"396 842 OFFCURVE",
"426 842 CURVE SMOOTH",
"471 842 OFFCURVE",
"506 786 OFFCURVE",
"552 786 CURVE SMOOTH",
"602 786 OFFCURVE",
"637 827 OFFCURVE",
"659 880 CURVE",
"642 890 LINE",
"621 850 OFFCURVE",
"601 827 OFFCURVE",
"569 827 CURVE SMOOTH",
"525 827 OFFCURVE",
"489 882 OFFCURVE",
"442 882 CURVE SMOOTH",
"396 882 OFFCURVE",
"357 845 OFFCURVE",
"337 792 CURVE",
"353 782 LINE"
);
}
);
width = 716;
}
);
note = Ntilde;
unicode = 00D1;
},
{
glyphname = O;
lastChange = "2015-10-21 17:12:07 +0000";
layers = (
{
layerId = "4BDFF818-6971-4FC7-918A-7FEEE3878A0A";
name = "Light Italic";
paths = (
{
closed = 1;
nodes = (
"518 -10 OFFCURVE",
"659 122 OFFCURVE",
"706 350 CURVE SMOOTH",
"713 390 OFFCURVE",
"718 427 OFFCURVE",
"718 461 CURVE SMOOTH",
"718 620 OFFCURVE",
"630 710 OFFCURVE",
"461 710 CURVE SMOOTH",
"255 710 OFFCURVE",
"115 577 OFFCURVE",
"69 350 CURVE SMOOTH",
"60 309 OFFCURVE",
"57 272 OFFCURVE",
"57 238 CURVE SMOOTH",
"57 79 OFFCURVE",
"145 -10 OFFCURVE",
"314 -10 CURVE SMOOTH"
);
},
{
closed = 1;
nodes = (
"190 26 OFFCURVE",
"130 108 OFFCURVE",
"130 238 CURVE SMOOTH",
"130 272 OFFCURVE",
"133 310 OFFCURVE",
"142 350 CURVE SMOOTH",
"181 543 OFFCURVE",
"288 674 OFFCURVE",
"453 674 CURVE SMOOTH",
"585 674 OFFCURVE",
"645 592 OFFCURVE",
"645 463 CURVE SMOOTH",
"645 428 OFFCURVE",
"641 391 OFFCURVE",
"633 350 CURVE SMOOTH",
"593 157 OFFCURVE",
"488 26 OFFCURVE",
"321 26 CURVE SMOOTH"
);
}
);
width = 709;
}
);
leftKerningGroup = O;
note = O;
rightKerningGroup = O;
unicode = 004F;
},
{
glyphname = Oacute;
lastChange = "2015-10-21 17:12:08 +0000";
layers = (
{
layerId = "4BDFF818-6971-4FC7-918A-7FEEE3878A0A";
name = "Light Italic";
paths = (
{
closed = 1;
nodes = (
"518 -10 OFFCURVE",
"659 122 OFFCURVE",
"706 350 CURVE SMOOTH",
"713 390 OFFCURVE",
"718 427 OFFCURVE",
"718 461 CURVE SMOOTH",
"718 620 OFFCURVE",
"630 710 OFFCURVE",
"461 710 CURVE SMOOTH",
"255 710 OFFCURVE",
"115 577 OFFCURVE",
"69 350 CURVE SMOOTH",
"60 309 OFFCURVE",
"57 272 OFFCURVE",
"57 238 CURVE SMOOTH",
"57 79 OFFCURVE",
"145 -10 OFFCURVE",
"314 -10 CURVE SMOOTH"
);
},
{
closed = 1;
nodes = (
"190 26 OFFCURVE",
"130 108 OFFCURVE",
"130 238 CURVE SMOOTH",
"130 272 OFFCURVE",
"133 310 OFFCURVE",
"142 350 CURVE SMOOTH",
"181 543 OFFCURVE",
"288 674 OFFCURVE",
"453 674 CURVE SMOOTH",
"585 674 OFFCURVE",
"645 592 OFFCURVE",
"645 463 CURVE SMOOTH",
"645 428 OFFCURVE",
"641 391 OFFCURVE",
"633 350 CURVE SMOOTH",
"593 157 OFFCURVE",
"488 26 OFFCURVE",
"321 26 CURVE SMOOTH"
);
},
{
closed = 1;
nodes = (
"551 863 LINE SMOOTH",
"570 873 OFFCURVE",
"583 885 OFFCURVE",
"586 899 CURVE",
"588 912 OFFCURVE",
"583 924 OFFCURVE",
"566 924 CURVE SMOOTH",
"550 924 OFFCURVE",
"533 911 OFFCURVE",
"524 904 CURVE SMOOTH",
"395 804 LINE",
"404 784 LINE"
);
}
);
width = 709;
}
);
leftKerningGroup = O;
note = Oacute;
rightKerningGroup = O;
unicode = 00D3;
},
{
glyphname = Obreve;
lastChange = "2015-10-21 17:12:07 +0000";
layers = (
{
layerId = "4BDFF818-6971-4FC7-918A-7FEEE3878A0A";
name = "Light Italic";
paths = (
{
closed = 1;
nodes = (
"518 -10 OFFCURVE",
"659 122 OFFCURVE",
"706 350 CURVE SMOOTH",
"713 390 OFFCURVE",
"718 427 OFFCURVE",
"718 461 CURVE SMOOTH",
"718 620 OFFCURVE",
"630 710 OFFCURVE",
"461 710 CURVE SMOOTH",
"255 710 OFFCURVE",
"115 577 OFFCURVE",
"69 350 CURVE SMOOTH",
"60 309 OFFCURVE",
"57 272 OFFCURVE",
"57 238 CURVE SMOOTH",
"57 79 OFFCURVE",
"145 -10 OFFCURVE",
"314 -10 CURVE SMOOTH"
);
},
{
closed = 1;
nodes = (
"190 26 OFFCURVE",
"130 108 OFFCURVE",
"130 238 CURVE SMOOTH",
"130 272 OFFCURVE",
"133 310 OFFCURVE",
"142 350 CURVE SMOOTH",
"181 543 OFFCURVE",
"288 674 OFFCURVE",
"453 674 CURVE SMOOTH",
"585 674 OFFCURVE",
"645 592 OFFCURVE",
"645 463 CURVE SMOOTH",
"645 428 OFFCURVE",
"641 391 OFFCURVE",
"633 350 CURVE SMOOTH",
"593 157 OFFCURVE",
"488 26 OFFCURVE",
"321 26 CURVE SMOOTH"
);
},
{
closed = 1;
nodes = (
"561 774 OFFCURVE",
"613 823 OFFCURVE",
"634 899 CURVE",
"604 899 LINE",
"584 833 OFFCURVE",
"536 813 OFFCURVE",
"482 813 CURVE SMOOTH",
"428 813 OFFCURVE",
"387 833 OFFCURVE",
"393 899 CURVE",
"364 899 LINE",
"363 889 OFFCURVE",
"362 880 OFFCURVE",
"362 871 CURVE SMOOTH",
"362 810 OFFCURVE",
"397 774 OFFCURVE",
"474 774 CURVE SMOOTH"
);
}
);
width = 709;
}
);
leftKerningGroup = O;
note = Obreve;
rightKerningGroup = O;
unicode = 014E;
},
{
glyphname = Ocaron;
lastChange = "2015-10-21 17:12:07 +0000";
layers = (
{
layerId = "4BDFF818-6971-4FC7-918A-7FEEE3878A0A";
name = "Light Italic";
paths = (
{
closed = 1;
nodes = (
"518 -10 OFFCURVE",
"659 122 OFFCURVE",
"706 350 CURVE SMOOTH",
"713 390 OFFCURVE",
"718 427 OFFCURVE",
"718 461 CURVE SMOOTH",
"718 620 OFFCURVE",
"630 710 OFFCURVE",
"461 710 CURVE SMOOTH",
"255 710 OFFCURVE",
"115 577 OFFCURVE",
"69 350 CURVE SMOOTH",
"60 309 OFFCURVE",
"57 272 OFFCURVE",
"57 238 CURVE SMOOTH",
"57 79 OFFCURVE",
"145 -10 OFFCURVE",
"314 -10 CURVE SMOOTH"
);
},
{
closed = 1;
nodes = (
"190 26 OFFCURVE",
"130 108 OFFCURVE",
"130 238 CURVE SMOOTH",
"130 272 OFFCURVE",
"133 310 OFFCURVE",
"142 350 CURVE SMOOTH",
"181 543 OFFCURVE",
"288 674 OFFCURVE",
"453 674 CURVE SMOOTH",
"585 674 OFFCURVE",
"645 592 OFFCURVE",
"645 463 CURVE SMOOTH",
"645 428 OFFCURVE",
"641 391 OFFCURVE",
"633 350 CURVE SMOOTH",
"593 157 OFFCURVE",
"488 26 OFFCURVE",
"321 26 CURVE SMOOTH"
);
},
{
closed = 1;
nodes = (
"495 784 LINE",
"632 902 LINE",
"618 921 LINE",
"505 839 LINE",
"497 834 OFFCURVE",
"490 830 OFFCURVE",
"485 830 CURVE SMOOTH",
"480 830 OFFCURVE",
"474 832 OFFCURVE",
"468 839 CURVE SMOOTH",
"387 921 LINE",
"367 902 LINE",
"454 784 LINE"
);
}
);
width = 709;
}
);
leftKerningGroup = O;
note = Ocaron;
rightKerningGroup = O;
unicode = 01D1;
},
{
glyphname = Ocircumflex;
lastChange = "2015-10-21 17:12:07 +0000";
layers = (
{
layerId = "4BDFF818-6971-4FC7-918A-7FEEE3878A0A";
name = "Light Italic";
paths = (
{
closed = 1;
nodes = (
"518 -10 OFFCURVE",
"659 122 OFFCURVE",
"706 350 CURVE SMOOTH",
"713 390 OFFCURVE",
"718 427 OFFCURVE",
"718 461 CURVE SMOOTH",
"718 620 OFFCURVE",
"630 710 OFFCURVE",
"461 710 CURVE SMOOTH",
"255 710 OFFCURVE",
"115 577 OFFCURVE",
"69 350 CURVE SMOOTH",
"60 309 OFFCURVE",
"57 272 OFFCURVE",
"57 238 CURVE SMOOTH",
"57 79 OFFCURVE",
"145 -10 OFFCURVE",
"314 -10 CURVE SMOOTH"
);
},
{
closed = 1;
nodes = (
"190 26 OFFCURVE",
"130 108 OFFCURVE",
"130 238 CURVE SMOOTH",
"130 272 OFFCURVE",
"133 310 OFFCURVE",
"142 350 CURVE SMOOTH",
"181 543 OFFCURVE",
"288 674 OFFCURVE",
"453 674 CURVE SMOOTH",
"585 674 OFFCURVE",
"645 592 OFFCURVE",
"645 463 CURVE SMOOTH",
"645 428 OFFCURVE",
"641 391 OFFCURVE",
"633 350 CURVE SMOOTH",
"593 157 OFFCURVE",
"488 26 OFFCURVE",
"321 26 CURVE SMOOTH"
);
},
{
closed = 1;
nodes = (
"473 866 LINE",
"481 871 OFFCURVE",
"490 875 OFFCURVE",
"494 875 CURVE SMOOTH",
"499 875 OFFCURVE",
"505 871 OFFCURVE",
"511 866 CURVE",
"590 784 LINE",
"612 803 LINE",
"523 921 LINE",
"482 921 LINE",
"348 803 LINE",
"359 784 LINE"
);
}
);
width = 709;
}
);
leftKerningGroup = O;
note = Ocircumflex;
rightKerningGroup = O;
unicode = 00D4;
},
{
glyphname = Ocircumflexacute;
lastChange = "2015-10-21 17:12:08 +0000";
layers = (
{
layerId = "4BDFF818-6971-4FC7-918A-7FEEE3878A0A";
name = "Light Italic";
paths = (
{
closed = 1;
nodes = (
"518 -10 OFFCURVE",
"659 122 OFFCURVE",
"706 350 CURVE SMOOTH",
"713 390 OFFCURVE",
"718 427 OFFCURVE",
"718 461 CURVE SMOOTH",
"718 620 OFFCURVE",
"630 710 OFFCURVE",
"461 710 CURVE SMOOTH",
"255 710 OFFCURVE",
"115 577 OFFCURVE",
"69 350 CURVE SMOOTH",
"60 309 OFFCURVE",
"57 272 OFFCURVE",
"57 238 CURVE SMOOTH",
"57 79 OFFCURVE",
"145 -10 OFFCURVE",
"314 -10 CURVE SMOOTH"
);
},
{
closed = 1;
nodes = (
"190 26 OFFCURVE",
"130 108 OFFCURVE",
"130 238 CURVE SMOOTH",
"130 272 OFFCURVE",
"133 310 OFFCURVE",
"142 350 CURVE SMOOTH",
"181 543 OFFCURVE",
"288 674 OFFCURVE",
"453 674 CURVE SMOOTH",
"585 674 OFFCURVE",
"645 592 OFFCURVE",
"645 463 CURVE SMOOTH",
"645 428 OFFCURVE",
"641 391 OFFCURVE",
"633 350 CURVE SMOOTH",
"593 157 OFFCURVE",
"488 26 OFFCURVE",
"321 26 CURVE SMOOTH"
);
},
{
closed = 1;
nodes = (
"470 861 LINE SMOOTH",
"479 867 OFFCURVE",
"488 873 OFFCURVE",
"493 873 CURVE SMOOTH",
"498 873 OFFCURVE",
"504 869 OFFCURVE",
"510 864 CURVE",
"589 782 LINE",
"609 802 LINE",
"523 920 LINE",
"483 920 LINE",
"348 802 LINE",
"361 782 LINE"
);
},
{
closed = 1;
nodes = (
"731 956 LINE SMOOTH",
"751 966 OFFCURVE",
"764 980 OFFCURVE",
"767 992 CURVE",
"769 1005 OFFCURVE",
"762 1018 OFFCURVE",
"745 1018 CURVE SMOOTH",
"730 1018 OFFCURVE",
"712 1005 OFFCURVE",
"702 996 CURVE SMOOTH",
"589 905 LINE",
"600 887 LINE"
);
}
);
width = 709;
}
);
leftKerningGroup = O;
note = Ocircumflexacute;
rightKerningGroup = O;
unicode = 1ED0;
},
{
glyphname = Ocircumflexdotbelow;
lastChange = "2015-12-01 09:30:05 +0000";
layers = (
{
layerId = "4BDFF818-6971-4FC7-918A-7FEEE3878A0A";
name = "Light Italic";
paths = (
{
closed = 1;
nodes = (
"57 79 OFFCURVE",
"145 -10 OFFCURVE",
"314 -10 CURVE SMOOTH",
"518 -10 OFFCURVE",
"659 122 OFFCURVE",
"706 350 CURVE SMOOTH",
"713 390 OFFCURVE",
"718 427 OFFCURVE",
"718 461 CURVE SMOOTH",
"718 620 OFFCURVE",
"630 710 OFFCURVE",
"461 710 CURVE SMOOTH",
"255 710 OFFCURVE",
"115 577 OFFCURVE",
"69 350 CURVE SMOOTH",
"60 309 OFFCURVE",
"57 272 OFFCURVE",
"57 238 CURVE SMOOTH"
);
},
{
closed = 1;
nodes = (
"130 272 OFFCURVE",
"133 310 OFFCURVE",
"142 350 CURVE SMOOTH",
"181 543 OFFCURVE",
"288 674 OFFCURVE",
"453 674 CURVE SMOOTH",
"585 674 OFFCURVE",
"645 592 OFFCURVE",
"645 463 CURVE SMOOTH",
"645 428 OFFCURVE",
"641 391 OFFCURVE",
"633 350 CURVE SMOOTH",
"593 157 OFFCURVE",
"488 26 OFFCURVE",
"321 26 CURVE SMOOTH",
"190 26 OFFCURVE",
"130 108 OFFCURVE",
"130 238 CURVE SMOOTH"
);
},
{
closed = 1;
nodes = (
"250 -135 OFFCURVE",
"261 -147 OFFCURVE",
"281 -147 CURVE SMOOTH",
"308 -147 OFFCURVE",
"330 -126 OFFCURVE",
"330 -95 CURVE SMOOTH",
"330 -76 OFFCURVE",
"319 -64 OFFCURVE",
"299 -64 CURVE SMOOTH",
"273 -64 OFFCURVE",
"250 -86 OFFCURVE",
"250 -116 CURVE SMOOTH"
);
},
{
closed = 1;
nodes = (
"359 784 LINE",
"473 866 LINE",
"481 871 OFFCURVE",
"490 875 OFFCURVE",
"494 875 CURVE SMOOTH",
"499 875 OFFCURVE",
"505 871 OFFCURVE",
"511 866 CURVE",
"590 784 LINE",
"612 803 LINE",
"523 921 LINE",
"482 921 LINE",
"348 803 LINE"
);
}
);
width = 709;
}
);
leftKerningGroup = O;
note = Ocircumflexdotbelow;
rightKerningGroup = O;
unicode = 1ED8;
},
{
glyphname = Ocircumflexgrave;
lastChange = "2015-10-21 17:12:08 +0000";
layers = (
{
layerId = "4BDFF818-6971-4FC7-918A-7FEEE3878A0A";
name = "Light Italic";
paths = (
{
closed = 1;
nodes = (
"518 -10 OFFCURVE",
"659 122 OFFCURVE",
"706 350 CURVE SMOOTH",
"713 390 OFFCURVE",
"718 427 OFFCURVE",
"718 461 CURVE SMOOTH",
"718 620 OFFCURVE",
"630 710 OFFCURVE",
"461 710 CURVE SMOOTH",
"255 710 OFFCURVE",
"115 577 OFFCURVE",
"69 350 CURVE SMOOTH",
"60 309 OFFCURVE",
"57 272 OFFCURVE",
"57 238 CURVE SMOOTH",
"57 79 OFFCURVE",
"145 -10 OFFCURVE",
"314 -10 CURVE SMOOTH"
);
},
{
closed = 1;
nodes = (
"190 26 OFFCURVE",
"130 108 OFFCURVE",
"130 238 CURVE SMOOTH",
"130 272 OFFCURVE",
"133 310 OFFCURVE",
"142 350 CURVE SMOOTH",
"181 543 OFFCURVE",
"288 674 OFFCURVE",
"453 674 CURVE SMOOTH",
"585 674 OFFCURVE",
"645 592 OFFCURVE",
"645 463 CURVE SMOOTH",
"645 428 OFFCURVE",
"641 391 OFFCURVE",
"633 350 CURVE SMOOTH",
"593 157 OFFCURVE",
"488 26 OFFCURVE",
"321 26 CURVE SMOOTH"
);
},
{
closed = 1;
nodes = (
"419 905 LINE",
"342 996 LINE",
"335 1005 OFFCURVE",
"324 1018 OFFCURVE",
"308 1018 CURVE SMOOTH",
"292 1018 OFFCURVE",
"279 1005 OFFCURVE",
"277 992 CURVE",
"275 980 OFFCURVE",
"281 966 OFFCURVE",
"298 956 CURVE",
"401 887 LINE"
);
},
{
closed = 1;
nodes = (
"470 861 LINE SMOOTH",
"479 867 OFFCURVE",
"488 873 OFFCURVE",
"493 873 CURVE SMOOTH",
"498 873 OFFCURVE",
"504 869 OFFCURVE",
"510 864 CURVE",
"589 782 LINE",
"609 802 LINE",
"523 920 LINE",
"483 920 LINE",
"348 802 LINE",
"361 782 LINE"
);
}
);
width = 709;
}
);
leftKerningGroup = O;
note = Ocircumflexgrave;
rightKerningGroup = O;
unicode = 1ED2;
},
{
glyphname = Ocircumflexhookabove;
lastChange = "2015-10-21 17:12:07 +0000";
layers = (
{
layerId = "4BDFF818-6971-4FC7-918A-7FEEE3878A0A";
name = "Light Italic";
paths = (
{
closed = 1;
nodes = (
"518 -10 OFFCURVE",
"659 122 OFFCURVE",
"706 350 CURVE SMOOTH",
"713 390 OFFCURVE",
"718 427 OFFCURVE",
"718 461 CURVE SMOOTH",
"718 620 OFFCURVE",
"630 710 OFFCURVE",
"461 710 CURVE SMOOTH",
"255 710 OFFCURVE",
"115 577 OFFCURVE",
"69 350 CURVE SMOOTH",
"60 309 OFFCURVE",
"57 272 OFFCURVE",
"57 238 CURVE SMOOTH",
"57 79 OFFCURVE",
"145 -10 OFFCURVE",
"314 -10 CURVE SMOOTH"
);
},
{
closed = 1;
nodes = (
"190 26 OFFCURVE",
"130 108 OFFCURVE",
"130 238 CURVE SMOOTH",
"130 272 OFFCURVE",
"133 310 OFFCURVE",
"142 350 CURVE SMOOTH",
"181 543 OFFCURVE",
"288 674 OFFCURVE",
"453 674 CURVE SMOOTH",
"585 674 OFFCURVE",
"645 592 OFFCURVE",
"645 463 CURVE SMOOTH",
"645 428 OFFCURVE",
"641 391 OFFCURVE",
"633 350 CURVE SMOOTH",
"593 157 OFFCURVE",
"488 26 OFFCURVE",
"321 26 CURVE SMOOTH"
);
},
{
closed = 1;
nodes = (
"461 855 LINE",
"472 864 OFFCURVE",
"485 874 OFFCURVE",
"493 874 CURVE SMOOTH",
"498 874 OFFCURVE",
"504 870 OFFCURVE",
"510 865 CURVE",
"589 783 LINE",
"609 803 LINE",
"523 921 LINE",
"483 921 LINE",
"348 803 LINE",
"361 783 LINE"
);
},
{
closed = 1;
nodes = (
"654 890 LINE",
"637 896 OFFCURVE",
"629 900 OFFCURVE",
"632 917 CURVE",
"637 946 OFFCURVE",
"723 955 OFFCURVE",
"723 1006 CURVE SMOOTH",
"723 1035 OFFCURVE",
"690 1048 OFFCURVE",
"656 1048 CURVE SMOOTH",
"628 1048 OFFCURVE",
"585 1038 OFFCURVE",
"579 1009 CURVE",
"576 997 OFFCURVE",
"585 989 OFFCURVE",
"594 989 CURVE SMOOTH",
"621 989 OFFCURVE",
"615 1026 OFFCURVE",
"656 1026 CURVE SMOOTH",
"673 1026 OFFCURVE",
"682 1014 OFFCURVE",
"679 1000 CURVE SMOOTH",
"671 962 OFFCURVE",
"602 954 OFFCURVE",
"594 916 CURVE SMOOTH",
"593 913 OFFCURVE",
"593 910 OFFCURVE",
"593 907 CURVE SMOOTH",
"593 888 OFFCURVE",
"607 873 OFFCURVE",
"642 873 CURVE"
);
}
);
width = 709;
}
);
leftKerningGroup = O;
note = Ocircumflexhookabove;
rightKerningGroup = O;
unicode = 1ED4;
},
{
glyphname = Ocircumflextilde;
lastChange = "2015-10-21 17:12:07 +0000";
layers = (
{
layerId = "4BDFF818-6971-4FC7-918A-7FEEE3878A0A";
name = "Light Italic";
paths = (
{
closed = 1;
nodes = (
"518 -10 OFFCURVE",
"659 122 OFFCURVE",
"706 350 CURVE SMOOTH",
"713 390 OFFCURVE",
"718 427 OFFCURVE",
"718 461 CURVE SMOOTH",
"718 620 OFFCURVE",
"630 710 OFFCURVE",
"461 710 CURVE SMOOTH",
"255 710 OFFCURVE",
"115 577 OFFCURVE",
"69 350 CURVE SMOOTH",
"60 309 OFFCURVE",
"57 272 OFFCURVE",
"57 238 CURVE SMOOTH",
"57 79 OFFCURVE",
"145 -10 OFFCURVE",
"314 -10 CURVE SMOOTH"
);
},
{
closed = 1;
nodes = (
"190 26 OFFCURVE",
"130 108 OFFCURVE",
"130 238 CURVE SMOOTH",
"130 272 OFFCURVE",
"133 310 OFFCURVE",
"142 350 CURVE SMOOTH",
"181 543 OFFCURVE",
"288 674 OFFCURVE",
"453 674 CURVE SMOOTH",
"585 674 OFFCURVE",
"645 592 OFFCURVE",
"645 463 CURVE SMOOTH",
"645 428 OFFCURVE",
"641 391 OFFCURVE",
"633 350 CURVE SMOOTH",
"593 157 OFFCURVE",
"488 26 OFFCURVE",
"321 26 CURVE SMOOTH"
);
},
{
closed = 1;
nodes = (
"470 862 LINE SMOOTH",
"479 868 OFFCURVE",
"488 874 OFFCURVE",
"493 874 CURVE SMOOTH",
"498 874 OFFCURVE",
"504 870 OFFCURVE",
"510 865 CURVE",
"589 783 LINE",
"609 803 LINE",
"523 921 LINE",
"483 921 LINE",
"348 803 LINE",
"361 783 LINE"
);
},
{
closed = 1;
nodes = (
"402 988 OFFCURVE",
"423 1010 OFFCURVE",
"453 1010 CURVE SMOOTH",
"497 1010 OFFCURVE",
"530 954 OFFCURVE",
"575 954 CURVE SMOOTH",
"621 954 OFFCURVE",
"657 995 OFFCURVE",
"678 1048 CURVE",
"661 1058 LINE",
"642 1018 OFFCURVE",
"622 994 OFFCURVE",
"591 994 CURVE SMOOTH",
"549 994 OFFCURVE",
"515 1049 OFFCURVE",
"469 1049 CURVE SMOOTH",
"425 1049 OFFCURVE",
"387 1012 OFFCURVE",
"368 960 CURVE",
"382 949 LINE"
);
}
);
width = 709;
}
);
leftKerningGroup = O;
note = Ocircumflextilde;
rightKerningGroup = O;
unicode = 1ED6;
},
{
glyphname = Odieresis;
lastChange = "2015-10-21 17:12:07 +0000";
layers = (
{
layerId = "4BDFF818-6971-4FC7-918A-7FEEE3878A0A";
name = "Light Italic";
paths = (
{
closed = 1;
nodes = (
"518 -10 OFFCURVE",
"659 122 OFFCURVE",
"706 350 CURVE SMOOTH",
"713 390 OFFCURVE",
"718 427 OFFCURVE",
"718 461 CURVE SMOOTH",
"718 620 OFFCURVE",
"630 710 OFFCURVE",
"461 710 CURVE SMOOTH",
"255 710 OFFCURVE",
"115 577 OFFCURVE",
"69 350 CURVE SMOOTH",
"60 309 OFFCURVE",
"57 272 OFFCURVE",
"57 238 CURVE SMOOTH",
"57 79 OFFCURVE",
"145 -10 OFFCURVE",
"314 -10 CURVE SMOOTH"
);
},
{
closed = 1;
nodes = (
"190 26 OFFCURVE",
"130 108 OFFCURVE",
"130 238 CURVE SMOOTH",
"130 272 OFFCURVE",
"133 310 OFFCURVE",
"142 350 CURVE SMOOTH",
"181 543 OFFCURVE",
"288 674 OFFCURVE",
"453 674 CURVE SMOOTH",
"585 674 OFFCURVE",
"645 592 OFFCURVE",
"645 463 CURVE SMOOTH",
"645 428 OFFCURVE",
"641 391 OFFCURVE",
"633 350 CURVE SMOOTH",
"593 157 OFFCURVE",
"488 26 OFFCURVE",
"321 26 CURVE SMOOTH"
);
},
{
closed = 1;
nodes = (
"402 782 OFFCURVE",
"422 805 OFFCURVE",
"422 835 CURVE SMOOTH",
"422 853 OFFCURVE",
"411 865 OFFCURVE",
"391 865 CURVE SMOOTH",
"367 865 OFFCURVE",
"349 848 OFFCURVE",
"344 823 CURVE SMOOTH",
"343 820 OFFCURVE",
"343 816 OFFCURVE",
"343 813 CURVE SMOOTH",
"343 794 OFFCURVE",
"354 782 OFFCURVE",
"374 782 CURVE SMOOTH"
);
},
{
closed = 1;
nodes = (
"603 782 OFFCURVE",
"623 805 OFFCURVE",
"623 835 CURVE SMOOTH",
"623 853 OFFCURVE",
"612 865 OFFCURVE",
"591 865 CURVE SMOOTH",
"567 865 OFFCURVE",
"549 848 OFFCURVE",
"543 823 CURVE SMOOTH",
"542 820 OFFCURVE",
"542 816 OFFCURVE",
"542 813 CURVE SMOOTH",
"542 795 OFFCURVE",
"555 782 OFFCURVE",
"575 782 CURVE SMOOTH"
);
}
);
width = 709;
}
);
leftKerningGroup = O;
note = Odieresis;
rightKerningGroup = O;
unicode = 00D6;
},
{
glyphname = Odotbelow;
lastChange = "2015-12-01 09:30:08 +0000";
layers = (
{
layerId = "4BDFF818-6971-4FC7-918A-7FEEE3878A0A";
name = "Light Italic";
paths = (
{
closed = 1;
nodes = (
"57 79 OFFCURVE",
"145 -10 OFFCURVE",
"314 -10 CURVE SMOOTH",
"518 -10 OFFCURVE",
"659 122 OFFCURVE",
"706 350 CURVE SMOOTH",
"713 390 OFFCURVE",
"718 427 OFFCURVE",
"718 461 CURVE SMOOTH",
"718 620 OFFCURVE",
"630 710 OFFCURVE",
"461 710 CURVE SMOOTH",
"255 710 OFFCURVE",
"115 577 OFFCURVE",
"69 350 CURVE SMOOTH",
"60 309 OFFCURVE",
"57 272 OFFCURVE",
"57 238 CURVE SMOOTH"
);
},
{
closed = 1;
nodes = (
"130 272 OFFCURVE",
"133 310 OFFCURVE",
"142 350 CURVE SMOOTH",
"181 543 OFFCURVE",
"288 674 OFFCURVE",
"453 674 CURVE SMOOTH",
"585 674 OFFCURVE",
"645 592 OFFCURVE",
"645 463 CURVE SMOOTH",
"645 428 OFFCURVE",
"641 391 OFFCURVE",
"633 350 CURVE SMOOTH",
"593 157 OFFCURVE",
"488 26 OFFCURVE",
"321 26 CURVE SMOOTH",
"190 26 OFFCURVE",
"130 108 OFFCURVE",
"130 238 CURVE SMOOTH"
);
},
{
closed = 1;
nodes = (
"254 -135 OFFCURVE",
"266 -147 OFFCURVE",
"286 -147 CURVE SMOOTH",
"313 -147 OFFCURVE",
"335 -126 OFFCURVE",
"335 -95 CURVE SMOOTH",
"335 -76 OFFCURVE",
"324 -64 OFFCURVE",
"303 -64 CURVE SMOOTH",
"277 -64 OFFCURVE",
"254 -86 OFFCURVE",
"254 -116 CURVE SMOOTH"
);
}
);
width = 709;
}
);
leftKerningGroup = O;
note = Odotbelow;
rightKerningGroup = O;
unicode = 1ECC;
},
{
glyphname = Ograve;
lastChange = "2015-10-21 17:12:07 +0000";
layers = (
{
layerId = "4BDFF818-6971-4FC7-918A-7FEEE3878A0A";
name = "Light Italic";
paths = (
{
closed = 1;
nodes = (
"518 -10 OFFCURVE",
"659 122 OFFCURVE",
"706 350 CURVE SMOOTH",
"713 390 OFFCURVE",
"718 427 OFFCURVE",
"718 461 CURVE SMOOTH",
"718 620 OFFCURVE",
"630 710 OFFCURVE",
"461 710 CURVE SMOOTH",
"255 710 OFFCURVE",
"115 577 OFFCURVE",
"69 350 CURVE SMOOTH",
"60 309 OFFCURVE",
"57 272 OFFCURVE",
"57 238 CURVE SMOOTH",
"57 79 OFFCURVE",
"145 -10 OFFCURVE",
"314 -10 CURVE SMOOTH"
);
},
{
closed = 1;
nodes = (
"190 26 OFFCURVE",
"130 108 OFFCURVE",
"130 238 CURVE SMOOTH",
"130 272 OFFCURVE",
"133 310 OFFCURVE",
"142 350 CURVE SMOOTH",
"181 543 OFFCURVE",
"288 674 OFFCURVE",
"453 674 CURVE SMOOTH",
"585 674 OFFCURVE",
"645 592 OFFCURVE",
"645 463 CURVE SMOOTH",
"645 428 OFFCURVE",
"641 391 OFFCURVE",
"633 350 CURVE SMOOTH",
"593 157 OFFCURVE",
"488 26 OFFCURVE",
"321 26 CURVE SMOOTH"
);
},
{
closed = 1;
nodes = (
"548 804 LINE",
"462 904 LINE",
"454 912 OFFCURVE",
"444 924 OFFCURVE",
"428 924 CURVE SMOOTH",
"416 924 OFFCURVE",
"401 914 OFFCURVE",
"398 899 CURVE",
"395 884 OFFCURVE",
"404 870 OFFCURVE",
"416 863 CURVE",
"531 784 LINE"
);
}
);
width = 709;
}
);
leftKerningGroup = O;
note = Ograve;
rightKerningGroup = O;
unicode = 00D2;
},
{
glyphname = Ohookabove;
lastChange = "2015-10-21 17:12:07 +0000";
layers = (
{
layerId = "4BDFF818-6971-4FC7-918A-7FEEE3878A0A";
name = "Light Italic";
paths = (
{
closed = 1;
nodes = (
"518 -10 OFFCURVE",
"659 122 OFFCURVE",
"706 350 CURVE SMOOTH",
"713 390 OFFCURVE",
"718 427 OFFCURVE",
"718 461 CURVE SMOOTH",
"718 620 OFFCURVE",
"630 710 OFFCURVE",
"461 710 CURVE SMOOTH",
"255 710 OFFCURVE",
"115 577 OFFCURVE",
"69 350 CURVE SMOOTH",
"60 309 OFFCURVE",
"57 272 OFFCURVE",
"57 238 CURVE SMOOTH",
"57 79 OFFCURVE",
"145 -10 OFFCURVE",
"314 -10 CURVE SMOOTH"
);
},
{
closed = 1;
nodes = (
"190 26 OFFCURVE",
"130 108 OFFCURVE",
"130 238 CURVE SMOOTH",
"130 272 OFFCURVE",
"133 310 OFFCURVE",
"142 350 CURVE SMOOTH",
"181 543 OFFCURVE",
"288 674 OFFCURVE",
"453 674 CURVE SMOOTH",
"585 674 OFFCURVE",
"645 592 OFFCURVE",
"645 463 CURVE SMOOTH",
"645 428 OFFCURVE",
"641 391 OFFCURVE",
"633 350 CURVE SMOOTH",
"593 157 OFFCURVE",
"488 26 OFFCURVE",
"321 26 CURVE SMOOTH"
);
},
{
closed = 1;
nodes = (
"504 797 LINE",
"487 803 OFFCURVE",
"477 808 OFFCURVE",
"481 826 CURVE SMOOTH",
"489 860 OFFCURVE",
"584 876 OFFCURVE",
"584 935 CURVE SMOOTH",
"584 967 OFFCURVE",
"556 983 OFFCURVE",
"515 983 CURVE SMOOTH",
"471 983 OFFCURVE",
"433 966 OFFCURVE",
"426 935 CURVE",
"425 932 OFFCURVE",
"425 929 OFFCURVE",
"425 927 CURVE SMOOTH",
"425 917 OFFCURVE",
"430 912 OFFCURVE",
"441 912 CURVE SMOOTH",
"459 912 OFFCURVE",
"464 926 OFFCURVE",
"470 937 CURVE",
"478 952 OFFCURVE",
"495 957 OFFCURVE",
"511 957 CURVE SMOOTH",
"530 957 OFFCURVE",
"539 947 OFFCURVE",
"539 934 CURVE SMOOTH",
"539 880 OFFCURVE",
"441 872 OFFCURVE",
"441 815 CURVE SMOOTH",
"441 794 OFFCURVE",
"455 779 OFFCURVE",
"492 779 CURVE"
);
}
);
width = 709;
}
);
leftKerningGroup = O;
note = Ohookabove;
rightKerningGroup = O;
unicode = 1ECE;
},
{
glyphname = Ohorn;
lastChange = "2015-12-01 09:30:17 +0000";
layers = (
{
layerId = "4BDFF818-6971-4FC7-918A-7FEEE3878A0A";
name = "Light Italic";
paths = (
{
closed = 1;
nodes = (
"518 -10 OFFCURVE",
"659 122 OFFCURVE",
"706 350 CURVE SMOOTH",
"713 390 OFFCURVE",
"718 427 OFFCURVE",
"718 461 CURVE SMOOTH",
"718 620 OFFCURVE",
"630 710 OFFCURVE",
"461 710 CURVE SMOOTH",
"255 710 OFFCURVE",
"115 577 OFFCURVE",
"69 350 CURVE SMOOTH",
"60 309 OFFCURVE",
"57 272 OFFCURVE",
"57 238 CURVE SMOOTH",
"57 79 OFFCURVE",
"145 -10 OFFCURVE",
"314 -10 CURVE SMOOTH"
);
},
{
closed = 1;
nodes = (
"190 26 OFFCURVE",
"130 108 OFFCURVE",
"130 238 CURVE SMOOTH",
"130 272 OFFCURVE",
"133 310 OFFCURVE",
"142 350 CURVE SMOOTH",
"181 543 OFFCURVE",
"288 674 OFFCURVE",
"453 674 CURVE SMOOTH",
"585 674 OFFCURVE",
"645 592 OFFCURVE",
"645 463 CURVE SMOOTH",
"645 428 OFFCURVE",
"641 391 OFFCURVE",
"633 350 CURVE SMOOTH",
"593 157 OFFCURVE",
"488 26 OFFCURVE",
"321 26 CURVE SMOOTH"
);
},
{
closed = 1;
nodes = (
"726 586 OFFCURVE",
"788 645 OFFCURVE",
"802 710 CURVE SMOOTH",
"804 717 OFFCURVE",
"804 724 OFFCURVE",
"804 729 CURVE SMOOTH",
"804 758 OFFCURVE",
"787 769 OFFCURVE",
"769 769 CURVE SMOOTH",
"741 769 OFFCURVE",
"723 745 OFFCURVE",
"723 722 CURVE SMOOTH",
"723 700 OFFCURVE",
"740 693 OFFCURVE",
"740 672 CURVE SMOOTH",
"740 633 OFFCURVE",
"700 602 OFFCURVE",
"664 582 CURVE",
"660 559 LINE"
);
}
);
width = 713;
}
);
leftKerningGroup = O;
note = Ohorn;
rightKerningGroup = O;
unicode = 01A0;
},
{
glyphname = Ohornacute;
lastChange = "2015-10-21 17:12:07 +0000";
layers = (
{
layerId = "4BDFF818-6971-4FC7-918A-7FEEE3878A0A";
name = "Light Italic";
paths = (
{
closed = 1;
nodes = (
"518 -10 OFFCURVE",
"659 122 OFFCURVE",
"706 350 CURVE SMOOTH",
"713 390 OFFCURVE",
"718 427 OFFCURVE",
"718 461 CURVE SMOOTH",
"718 620 OFFCURVE",
"630 710 OFFCURVE",
"461 710 CURVE SMOOTH",
"255 710 OFFCURVE",
"115 577 OFFCURVE",
"69 350 CURVE SMOOTH",
"60 309 OFFCURVE",
"57 272 OFFCURVE",
"57 238 CURVE SMOOTH",
"57 79 OFFCURVE",
"145 -10 OFFCURVE",
"314 -10 CURVE SMOOTH"
);
},
{
closed = 1;
nodes = (
"190 26 OFFCURVE",
"130 108 OFFCURVE",
"130 238 CURVE SMOOTH",
"130 272 OFFCURVE",
"133 310 OFFCURVE",
"142 350 CURVE SMOOTH",
"181 543 OFFCURVE",
"288 674 OFFCURVE",
"453 674 CURVE SMOOTH",
"585 674 OFFCURVE",
"645 592 OFFCURVE",
"645 463 CURVE SMOOTH",
"645 428 OFFCURVE",
"641 391 OFFCURVE",
"633 350 CURVE SMOOTH",
"593 157 OFFCURVE",
"488 26 OFFCURVE",
"321 26 CURVE SMOOTH"
);
},
{
closed = 1;
nodes = (
"534 862 LINE SMOOTH",
"553 872 OFFCURVE",
"565 884 OFFCURVE",
"568 898 CURVE",
"570 911 OFFCURVE",
"565 923 OFFCURVE",
"549 923 CURVE SMOOTH",
"533 923 OFFCURVE",
"516 910 OFFCURVE",
"507 903 CURVE SMOOTH",
"377 803 LINE",
"387 783 LINE"
);
},
{
closed = 1;
nodes = (
"726 586 OFFCURVE",
"788 645 OFFCURVE",
"802 710 CURVE SMOOTH",
"804 717 OFFCURVE",
"804 724 OFFCURVE",
"804 729 CURVE SMOOTH",
"804 758 OFFCURVE",
"787 769 OFFCURVE",
"769 769 CURVE SMOOTH",
"741 769 OFFCURVE",
"723 745 OFFCURVE",
"723 722 CURVE SMOOTH",
"723 700 OFFCURVE",
"740 693 OFFCURVE",
"740 672 CURVE SMOOTH",
"740 633 OFFCURVE",
"700 602 OFFCURVE",
"664 582 CURVE",
"660 559 LINE"
);
}
);
width = 713;
}
);
leftKerningGroup = O;
note = Ohornacute;
rightKerningGroup = O;
unicode = 1EDA;
},
{
glyphname = Ohorndotbelow;
lastChange = "2015-12-01 09:30:21 +0000";
layers = (
{
layerId = "4BDFF818-6971-4FC7-918A-7FEEE3878A0A";
name = "Light Italic";
paths = (
{
closed = 1;
nodes = (
"518 -10 OFFCURVE",
"659 122 OFFCURVE",
"706 350 CURVE SMOOTH",
"713 390 OFFCURVE",
"718 427 OFFCURVE",
"718 461 CURVE SMOOTH",
"718 620 OFFCURVE",
"630 710 OFFCURVE",
"461 710 CURVE SMOOTH",
"255 710 OFFCURVE",
"115 577 OFFCURVE",
"69 350 CURVE SMOOTH",
"60 309 OFFCURVE",
"57 272 OFFCURVE",
"57 238 CURVE SMOOTH",
"57 79 OFFCURVE",
"145 -10 OFFCURVE",
"314 -10 CURVE SMOOTH"
);
},
{
closed = 1;
nodes = (
"190 26 OFFCURVE",
"130 108 OFFCURVE",
"130 238 CURVE SMOOTH",
"130 272 OFFCURVE",
"133 310 OFFCURVE",
"142 350 CURVE SMOOTH",
"181 543 OFFCURVE",
"288 674 OFFCURVE",
"453 674 CURVE SMOOTH",
"585 674 OFFCURVE",
"645 592 OFFCURVE",
"645 463 CURVE SMOOTH",
"645 428 OFFCURVE",
"641 391 OFFCURVE",
"633 350 CURVE SMOOTH",
"593 157 OFFCURVE",
"488 26 OFFCURVE",
"321 26 CURVE SMOOTH"
);
},
{
closed = 1;
nodes = (
"726 586 OFFCURVE",
"788 645 OFFCURVE",
"802 710 CURVE SMOOTH",
"804 717 OFFCURVE",
"804 724 OFFCURVE",
"804 729 CURVE SMOOTH",
"804 758 OFFCURVE",
"787 769 OFFCURVE",
"769 769 CURVE SMOOTH",
"741 769 OFFCURVE",
"723 745 OFFCURVE",
"723 722 CURVE SMOOTH",
"723 700 OFFCURVE",
"740 693 OFFCURVE",
"740 672 CURVE SMOOTH",
"740 633 OFFCURVE",
"700 602 OFFCURVE",
"664 582 CURVE",
"660 559 LINE"
);
},
{
closed = 1;
nodes = (
"299 -147 OFFCURVE",
"321 -126 OFFCURVE",
"321 -95 CURVE SMOOTH",
"321 -76 OFFCURVE",
"309 -64 OFFCURVE",
"289 -64 CURVE SMOOTH",
"263 -64 OFFCURVE",
"240 -86 OFFCURVE",
"240 -116 CURVE SMOOTH",
"240 -135 OFFCURVE",
"252 -147 OFFCURVE",
"272 -147 CURVE SMOOTH"
);
}
);
width = 713;
}
);
leftKerningGroup = O;
note = Ohorndotbelow;
rightKerningGroup = O;
unicode = 1EE2;
},
{
glyphname = Ohorngrave;
lastChange = "2015-10-21 17:12:07 +0000";
layers = (
{
layerId = "4BDFF818-6971-4FC7-918A-7FEEE3878A0A";
name = "Light Italic";
paths = (
{
closed = 1;
nodes = (
"518 -10 OFFCURVE",
"659 122 OFFCURVE",
"706 350 CURVE SMOOTH",
"713 390 OFFCURVE",
"718 427 OFFCURVE",
"718 461 CURVE SMOOTH",
"718 620 OFFCURVE",
"630 710 OFFCURVE",
"461 710 CURVE SMOOTH",
"255 710 OFFCURVE",
"115 577 OFFCURVE",
"69 350 CURVE SMOOTH",
"60 309 OFFCURVE",
"57 272 OFFCURVE",
"57 238 CURVE SMOOTH",
"57 79 OFFCURVE",
"145 -10 OFFCURVE",
"314 -10 CURVE SMOOTH"
);
},
{
closed = 1;
nodes = (
"190 26 OFFCURVE",
"130 108 OFFCURVE",
"130 238 CURVE SMOOTH",
"130 272 OFFCURVE",
"133 310 OFFCURVE",
"142 350 CURVE SMOOTH",
"181 543 OFFCURVE",
"288 674 OFFCURVE",
"453 674 CURVE SMOOTH",
"585 674 OFFCURVE",
"645 592 OFFCURVE",
"645 463 CURVE SMOOTH",
"645 428 OFFCURVE",
"641 391 OFFCURVE",
"633 350 CURVE SMOOTH",
"593 157 OFFCURVE",
"488 26 OFFCURVE",
"321 26 CURVE SMOOTH"
);
},
{
closed = 1;
nodes = (
"553 810 LINE",
"467 910 LINE",
"459 918 OFFCURVE",
"448 930 OFFCURVE",
"433 930 CURVE SMOOTH",
"420 930 OFFCURVE",
"406 920 OFFCURVE",
"403 905 CURVE",
"399 890 OFFCURVE",
"409 876 OFFCURVE",
"420 869 CURVE",
"536 790 LINE"
);
},
{
closed = 1;
nodes = (
"726 586 OFFCURVE",
"788 645 OFFCURVE",
"802 710 CURVE SMOOTH",
"804 717 OFFCURVE",
"804 724 OFFCURVE",
"804 729 CURVE SMOOTH",
"804 758 OFFCURVE",
"787 769 OFFCURVE",
"769 769 CURVE SMOOTH",
"741 769 OFFCURVE",
"723 745 OFFCURVE",
"723 722 CURVE SMOOTH",
"723 700 OFFCURVE",
"740 693 OFFCURVE",
"740 672 CURVE SMOOTH",
"740 633 OFFCURVE",
"700 602 OFFCURVE",
"664 582 CURVE",
"660 559 LINE"
);
}
);
width = 713;
}
);
leftKerningGroup = O;
note = Ohorngrave;
rightKerningGroup = O;
unicode = 1EDC;
},
{
glyphname = Ohornhookabove;
lastChange = "2015-10-21 17:12:07 +0000";
layers = (
{
layerId = "4BDFF818-6971-4FC7-918A-7FEEE3878A0A";
name = "Light Italic";
paths = (
{
closed = 1;
nodes = (
"518 -10 OFFCURVE",
"659 122 OFFCURVE",
"706 350 CURVE SMOOTH",
"713 390 OFFCURVE",
"718 427 OFFCURVE",
"718 461 CURVE SMOOTH",
"718 620 OFFCURVE",
"630 710 OFFCURVE",
"461 710 CURVE SMOOTH",
"255 710 OFFCURVE",
"115 577 OFFCURVE",
"69 350 CURVE SMOOTH",
"60 309 OFFCURVE",
"57 272 OFFCURVE",
"57 238 CURVE SMOOTH",
"57 79 OFFCURVE",
"145 -10 OFFCURVE",
"314 -10 CURVE SMOOTH"
);
},
{
closed = 1;
nodes = (
"190 26 OFFCURVE",
"130 108 OFFCURVE",
"130 238 CURVE SMOOTH",
"130 272 OFFCURVE",
"133 310 OFFCURVE",
"142 350 CURVE SMOOTH",
"181 543 OFFCURVE",
"288 674 OFFCURVE",
"453 674 CURVE SMOOTH",
"585 674 OFFCURVE",
"645 592 OFFCURVE",
"645 463 CURVE SMOOTH",
"645 428 OFFCURVE",
"641 391 OFFCURVE",
"633 350 CURVE SMOOTH",
"593 157 OFFCURVE",
"488 26 OFFCURVE",
"321 26 CURVE SMOOTH"
);
},
{
closed = 1;
nodes = (
"512 804 LINE",
"494 810 OFFCURVE",
"485 815 OFFCURVE",
"489 833 CURVE SMOOTH",
"496 867 OFFCURVE",
"591 883 OFFCURVE",
"591 942 CURVE SMOOTH",
"591 974 OFFCURVE",
"564 990 OFFCURVE",
"522 990 CURVE SMOOTH",
"479 990 OFFCURVE",
"441 973 OFFCURVE",
"434 942 CURVE",
"433 939 OFFCURVE",
"433 936 OFFCURVE",
"433 934 CURVE SMOOTH",
"433 924 OFFCURVE",
"438 919 OFFCURVE",
"448 919 CURVE SMOOTH",
"467 919 OFFCURVE",
"471 933 OFFCURVE",
"478 944 CURVE",
"486 959 OFFCURVE",
"503 964 OFFCURVE",
"518 964 CURVE SMOOTH",
"538 964 OFFCURVE",
"546 954 OFFCURVE",
"546 941 CURVE SMOOTH",
"546 887 OFFCURVE",
"448 879 OFFCURVE",
"448 822 CURVE SMOOTH",
"448 801 OFFCURVE",
"463 786 OFFCURVE",
"499 786 CURVE"
);
},
{
closed = 1;
nodes = (
"726 586 OFFCURVE",
"788 645 OFFCURVE",
"802 710 CURVE SMOOTH",
"804 717 OFFCURVE",
"804 724 OFFCURVE",
"804 729 CURVE SMOOTH",
"804 758 OFFCURVE",
"787 769 OFFCURVE",
"769 769 CURVE SMOOTH",
"741 769 OFFCURVE",
"723 745 OFFCURVE",
"723 722 CURVE SMOOTH",
"723 700 OFFCURVE",
"740 693 OFFCURVE",
"740 672 CURVE SMOOTH",
"740 633 OFFCURVE",
"700 602 OFFCURVE",
"664 582 CURVE",
"660 559 LINE"
);
}
);
width = 713;
}
);
leftKerningGroup = O;
note = Ohornhookabove;
rightKerningGroup = O;
unicode = 1EDE;
},
{
glyphname = Ohorntilde;
lastChange = "2015-10-21 17:12:07 +0000";
layers = (
{
layerId = "4BDFF818-6971-4FC7-918A-7FEEE3878A0A";
name = "Light Italic";
paths = (
{
closed = 1;
nodes = (
"518 -10 OFFCURVE",
"659 122 OFFCURVE",
"706 350 CURVE SMOOTH",
"713 390 OFFCURVE",
"718 427 OFFCURVE",
"718 461 CURVE SMOOTH",
"718 620 OFFCURVE",
"630 710 OFFCURVE",
"461 710 CURVE SMOOTH",
"255 710 OFFCURVE",
"115 577 OFFCURVE",
"69 350 CURVE SMOOTH",
"60 309 OFFCURVE",
"57 272 OFFCURVE",
"57 238 CURVE SMOOTH",
"57 79 OFFCURVE",
"145 -10 OFFCURVE",
"314 -10 CURVE SMOOTH"
);
},
{
closed = 1;
nodes = (
"190 26 OFFCURVE",
"130 108 OFFCURVE",
"130 238 CURVE SMOOTH",
"130 272 OFFCURVE",
"133 310 OFFCURVE",
"142 350 CURVE SMOOTH",
"181 543 OFFCURVE",
"288 674 OFFCURVE",
"453 674 CURVE SMOOTH",
"585 674 OFFCURVE",
"645 592 OFFCURVE",
"645 463 CURVE SMOOTH",
"645 428 OFFCURVE",
"641 391 OFFCURVE",
"633 350 CURVE SMOOTH",
"593 157 OFFCURVE",
"488 26 OFFCURVE",
"321 26 CURVE SMOOTH"
);
},
{
closed = 1;
nodes = (
"350 827 OFFCURVE",
"372 849 OFFCURVE",
"403 849 CURVE SMOOTH",
"448 849 OFFCURVE",
"483 793 OFFCURVE",
"529 793 CURVE SMOOTH",
"579 793 OFFCURVE",
"614 834 OFFCURVE",
"636 887 CURVE",
"619 897 LINE",
"598 857 OFFCURVE",
"578 834 OFFCURVE",
"546 834 CURVE SMOOTH",
"502 834 OFFCURVE",
"466 889 OFFCURVE",
"419 889 CURVE SMOOTH",
"372 889 OFFCURVE",
"334 852 OFFCURVE",
"314 799 CURVE",
"330 789 LINE"
);
},
{
closed = 1;
nodes = (
"726 586 OFFCURVE",
"788 645 OFFCURVE",
"802 710 CURVE SMOOTH",
"804 717 OFFCURVE",
"804 724 OFFCURVE",
"804 729 CURVE SMOOTH",
"804 758 OFFCURVE",
"787 769 OFFCURVE",
"769 769 CURVE SMOOTH",
"741 769 OFFCURVE",
"723 745 OFFCURVE",
"723 722 CURVE SMOOTH",
"723 700 OFFCURVE",
"740 693 OFFCURVE",
"740 672 CURVE SMOOTH",
"740 633 OFFCURVE",
"700 602 OFFCURVE",
"664 582 CURVE",
"660 559 LINE"
);
}
);
width = 713;
}
);
leftKerningGroup = O;
note = Ohorntilde;
rightKerningGroup = O;
unicode = 1EE0;
},
{
glyphname = Ohungarumlaut;
lastChange = "2015-10-21 17:12:07 +0000";
layers = (
{
layerId = "4BDFF818-6971-4FC7-918A-7FEEE3878A0A";
name = "Light Italic";
paths = (
{
closed = 1;
nodes = (
"518 -10 OFFCURVE",
"659 122 OFFCURVE",
"706 350 CURVE SMOOTH",
"713 390 OFFCURVE",
"718 427 OFFCURVE",
"718 461 CURVE SMOOTH",
"718 620 OFFCURVE",
"630 710 OFFCURVE",
"461 710 CURVE SMOOTH",
"255 710 OFFCURVE",
"115 577 OFFCURVE",
"69 350 CURVE SMOOTH",
"60 309 OFFCURVE",
"57 272 OFFCURVE",
"57 238 CURVE SMOOTH",
"57 79 OFFCURVE",
"145 -10 OFFCURVE",
"314 -10 CURVE SMOOTH"
);
},
{
closed = 1;
nodes = (
"190 26 OFFCURVE",
"130 108 OFFCURVE",
"130 238 CURVE SMOOTH",
"130 272 OFFCURVE",
"133 310 OFFCURVE",
"142 350 CURVE SMOOTH",
"181 543 OFFCURVE",
"288 674 OFFCURVE",
"453 674 CURVE SMOOTH",
"585 674 OFFCURVE",
"645 592 OFFCURVE",
"645 463 CURVE SMOOTH",
"645 428 OFFCURVE",
"641 391 OFFCURVE",
"633 350 CURVE SMOOTH",
"593 157 OFFCURVE",
"488 26 OFFCURVE",
"321 26 CURVE SMOOTH"
);
},
{
closed = 1;
nodes = (
"512 863 LINE SMOOTH",
"531 874 OFFCURVE",
"543 886 OFFCURVE",
"546 900 CURVE",
"548 912 OFFCURVE",
"543 924 OFFCURVE",
"527 924 CURVE SMOOTH",
"510 924 OFFCURVE",
"492 910 OFFCURVE",
"484 904 CURVE SMOOTH",
"356 804 LINE",
"366 784 LINE"
);
},
{
closed = 1;
nodes = (
"653 863 LINE SMOOTH",
"672 874 OFFCURVE",
"684 886 OFFCURVE",
"686 900 CURVE",
"688 912 OFFCURVE",
"683 924 OFFCURVE",
"666 924 CURVE SMOOTH",
"649 924 OFFCURVE",
"633 910 OFFCURVE",
"624 904 CURVE",
"496 804 LINE",
"506 784 LINE"
);
}
);
width = 709;
}
);
leftKerningGroup = O;
note = Ohungarumlaut;
rightKerningGroup = O;
unicode = 0150;
},
{
glyphname = Omacron;
lastChange = "2015-10-21 17:12:07 +0000";
layers = (
{
layerId = "4BDFF818-6971-4FC7-918A-7FEEE3878A0A";
name = "Light Italic";
paths = (
{
closed = 1;
nodes = (
"518 -10 OFFCURVE",
"659 122 OFFCURVE",
"706 350 CURVE SMOOTH",
"713 390 OFFCURVE",
"718 427 OFFCURVE",
"718 461 CURVE SMOOTH",
"718 620 OFFCURVE",
"630 710 OFFCURVE",
"461 710 CURVE SMOOTH",
"255 710 OFFCURVE",
"115 577 OFFCURVE",
"69 350 CURVE SMOOTH",
"60 309 OFFCURVE",
"57 272 OFFCURVE",
"57 238 CURVE SMOOTH",
"57 79 OFFCURVE",
"145 -10 OFFCURVE",
"314 -10 CURVE SMOOTH"
);
},
{
closed = 1;
nodes = (
"190 26 OFFCURVE",
"130 108 OFFCURVE",
"130 238 CURVE SMOOTH",
"130 272 OFFCURVE",
"133 310 OFFCURVE",
"142 350 CURVE SMOOTH",
"181 543 OFFCURVE",
"288 674 OFFCURVE",
"453 674 CURVE SMOOTH",
"585 674 OFFCURVE",
"645 592 OFFCURVE",
"645 463 CURVE SMOOTH",
"645 428 OFFCURVE",
"641 391 OFFCURVE",
"633 350 CURVE SMOOTH",
"593 157 OFFCURVE",
"488 26 OFFCURVE",
"321 26 CURVE SMOOTH"
);
},
{
closed = 1;
nodes = (
"627 798 LINE",
"635 833 LINE",
"335 833 LINE",
"327 798 LINE"
);
}
);
width = 709;
}
);
leftKerningGroup = O;
note = Omacron;
rightKerningGroup = O;
unicode = 014C;
},
{
glyphname = Oslash;
lastChange = "2015-12-01 09:30:27 +0000";
layers = (
{
layerId = "4BDFF818-6971-4FC7-918A-7FEEE3878A0A";
name = "Light Italic";
paths = (
{
closed = 1;
nodes = (
"518 -10 OFFCURVE",
"659 122 OFFCURVE",
"706 350 CURVE SMOOTH",
"713 390 OFFCURVE",
"718 427 OFFCURVE",
"718 461 CURVE SMOOTH",
"718 620 OFFCURVE",
"630 710 OFFCURVE",
"461 710 CURVE SMOOTH",
"255 710 OFFCURVE",
"115 577 OFFCURVE",
"69 350 CURVE SMOOTH",
"60 309 OFFCURVE",
"57 272 OFFCURVE",
"57 238 CURVE SMOOTH",
"57 79 OFFCURVE",
"145 -10 OFFCURVE",
"314 -10 CURVE SMOOTH"
);
},
{
closed = 1;
nodes = (
"190 26 OFFCURVE",
"130 108 OFFCURVE",
"130 238 CURVE SMOOTH",
"130 272 OFFCURVE",
"133 310 OFFCURVE",
"142 350 CURVE SMOOTH",
"181 543 OFFCURVE",
"288 674 OFFCURVE",
"453 674 CURVE SMOOTH",
"585 674 OFFCURVE",
"645 592 OFFCURVE",
"645 463 CURVE SMOOTH",
"645 428 OFFCURVE",
"641 391 OFFCURVE",
"633 350 CURVE SMOOTH",
"593 157 OFFCURVE",
"488 26 OFFCURVE",
"321 26 CURVE SMOOTH"
);
},
{
closed = 1;
nodes = (
"737 702 LINE",
"708 724 LINE",
"23 4 LINE",
"52 -18 LINE"
);
}
);
width = 709;
}
);
leftKerningGroup = O;
note = Oslash;
rightKerningGroup = O;
unicode = 00D8;
},
{
glyphname = Oslashacute;
lastChange = "2015-12-01 09:30:29 +0000";
layers = (
{
layerId = "4BDFF818-6971-4FC7-918A-7FEEE3878A0A";
name = "Light Italic";
paths = (
{
closed = 1;
nodes = (
"518 -10 OFFCURVE",
"659 122 OFFCURVE",
"706 350 CURVE SMOOTH",
"713 390 OFFCURVE",
"718 427 OFFCURVE",
"718 461 CURVE SMOOTH",
"718 620 OFFCURVE",
"630 710 OFFCURVE",
"461 710 CURVE SMOOTH",
"255 710 OFFCURVE",
"115 577 OFFCURVE",
"69 350 CURVE SMOOTH",
"60 309 OFFCURVE",
"57 272 OFFCURVE",
"57 238 CURVE SMOOTH",
"57 79 OFFCURVE",
"145 -10 OFFCURVE",
"314 -10 CURVE SMOOTH"
);
},
{
closed = 1;
nodes = (
"190 26 OFFCURVE",
"130 108 OFFCURVE",
"130 238 CURVE SMOOTH",
"130 272 OFFCURVE",
"133 310 OFFCURVE",
"142 350 CURVE SMOOTH",
"181 543 OFFCURVE",
"288 674 OFFCURVE",
"453 674 CURVE SMOOTH",
"585 674 OFFCURVE",
"645 592 OFFCURVE",
"645 463 CURVE SMOOTH",
"645 428 OFFCURVE",
"641 391 OFFCURVE",
"633 350 CURVE SMOOTH",
"593 157 OFFCURVE",
"488 26 OFFCURVE",
"321 26 CURVE SMOOTH"
);
},
{
closed = 1;
nodes = (
"556 863 LINE SMOOTH",
"575 873 OFFCURVE",
"588 885 OFFCURVE",
"590 899 CURVE",
"592 912 OFFCURVE",
"588 924 OFFCURVE",
"571 924 CURVE SMOOTH",
"555 924 OFFCURVE",
"538 911 OFFCURVE",
"529 904 CURVE SMOOTH",
"399 804 LINE",
"409 784 LINE"
);
},
{
closed = 1;
nodes = (
"737 702 LINE",
"708 724 LINE",
"23 4 LINE",
"52 -18 LINE"
);
}
);
width = 709;
}
);
leftKerningGroup = O;
note = Oslashacute;
rightKerningGroup = O;
unicode = 01FE;
},
{
glyphname = Otilde;
lastChange = "2015-10-21 17:12:07 +0000";
layers = (
{
layerId = "4BDFF818-6971-4FC7-918A-7FEEE3878A0A";
name = "Light Italic";
paths = (
{
closed = 1;
nodes = (
"518 -10 OFFCURVE",
"659 122 OFFCURVE",
"706 350 CURVE SMOOTH",
"713 390 OFFCURVE",
"718 427 OFFCURVE",
"718 461 CURVE SMOOTH",
"718 620 OFFCURVE",
"630 710 OFFCURVE",
"461 710 CURVE SMOOTH",
"255 710 OFFCURVE",
"115 577 OFFCURVE",
"69 350 CURVE SMOOTH",
"60 309 OFFCURVE",
"57 272 OFFCURVE",
"57 238 CURVE SMOOTH",
"57 79 OFFCURVE",
"145 -10 OFFCURVE",
"314 -10 CURVE SMOOTH"
);
},
{
closed = 1;
nodes = (
"190 26 OFFCURVE",
"130 108 OFFCURVE",
"130 238 CURVE SMOOTH",
"130 272 OFFCURVE",
"133 310 OFFCURVE",
"142 350 CURVE SMOOTH",
"181 543 OFFCURVE",
"288 674 OFFCURVE",
"453 674 CURVE SMOOTH",
"585 674 OFFCURVE",
"645 592 OFFCURVE",
"645 463 CURVE SMOOTH",
"645 428 OFFCURVE",
"641 391 OFFCURVE",
"633 350 CURVE SMOOTH",
"593 157 OFFCURVE",
"488 26 OFFCURVE",
"321 26 CURVE SMOOTH"
);
},
{
closed = 1;
nodes = (
"360 820 OFFCURVE",
"382 842 OFFCURVE",
"413 842 CURVE SMOOTH",
"458 842 OFFCURVE",
"492 786 OFFCURVE",
"539 786 CURVE SMOOTH",
"588 786 OFFCURVE",
"624 827 OFFCURVE",
"645 880 CURVE",
"629 890 LINE",
"608 850 OFFCURVE",
"588 827 OFFCURVE",
"556 827 CURVE SMOOTH",
"512 827 OFFCURVE",
"475 882 OFFCURVE",
"428 882 CURVE SMOOTH",
"382 882 OFFCURVE",
"344 845 OFFCURVE",
"324 792 CURVE",
"340 782 LINE"
);
}
);
width = 709;
}
);
leftKerningGroup = O;
note = Otilde;
rightKerningGroup = O;
unicode = 00D5;
},
{
glyphname = OE;
lastChange = "2015-10-21 17:12:07 +0000";
layers = (
{
layerId = "4BDFF818-6971-4FC7-918A-7FEEE3878A0A";
name = "Light Italic";
paths = (
{
closed = 1;
nodes = (
"409 -10 OFFCURVE",
"492 27 OFFCURVE",
"555 90 CURVE",
"538 129 LINE",
"484 63 OFFCURVE",
"412 25 OFFCURVE",
"324 25 CURVE SMOOTH",
"192 25 OFFCURVE",
"130 109 OFFCURVE",
"130 240 CURVE SMOOTH",
"130 274 OFFCURVE",
"134 311 OFFCURVE",
"142 350 CURVE SMOOTH",
"181 543 OFFCURVE",
"291 674 OFFCURVE",
"457 674 CURVE SMOOTH",
"543 674 OFFCURVE",
"600 636 OFFCURVE",
"627 571 CURVE",
"658 613 LINE",
"621 674 OFFCURVE",
"554 710 OFFCURVE",
"458 710 CURVE SMOOTH",
"259 710 OFFCURVE",
"115 577 OFFCURVE",
"69 350 CURVE SMOOTH",
"60 310 OFFCURVE",
"57 273 OFFCURVE",
"57 240 CURVE SMOOTH",
"57 80 OFFCURVE",
"147 -10 OFFCURVE",
"311 -10 CURVE SMOOTH"
);
},
{
closed = 1;
nodes = (
"892 0 LINE",
"943 175 LINE",
"922 175 LINE",
"905 124 OFFCURVE",
"870 35 OFFCURVE",
"810 35 CURVE SMOOTH",
"577 35 LINE",
"706 665 LINE",
"928 665 LINE SMOOTH",
"973 665 OFFCURVE",
"983 624 OFFCURVE",
"983 585 CURVE SMOOTH",
"983 565 OFFCURVE",
"981 546 OFFCURVE",
"979 533 CURVE",
"1000 533 LINE",
"1034 700 LINE",
"639 700 LINE",
"497 0 LINE"
);
},
{
closed = 1;
nodes = (
"860 253 LINE",
"908 486 LINE",
"889 486 LINE",
"875 435 OFFCURVE",
"861 387 OFFCURVE",
"819 387 CURVE SMOOTH",
"630 387 LINE",
"622 352 LINE",
"811 352 LINE SMOOTH",
"838 352 OFFCURVE",
"846 332 OFFCURVE",
"846 305 CURVE SMOOTH",
"846 289 OFFCURVE",
"844 271 OFFCURVE",
"841 253 CURVE"
);
}
);
width = 981;
}
);
leftKerningGroup = O;
note = OE;
rightKerningGroup = E;
unicode = 0152;
},
{
glyphname = P;
lastChange = "2015-10-21 17:12:07 +0000";
layers = (
{
layerId = "4BDFF818-6971-4FC7-918A-7FEEE3878A0A";
name = "Light Italic";
paths = (
{
closed = 1;
nodes = (
"227 0 LINE",
"230 22 LINE",
"203 22 LINE SMOOTH",
"171 22 OFFCURVE",
"153 30 OFFCURVE",
"153 49 CURVE SMOOTH",
"153 51 OFFCURVE",
"153 54 OFFCURVE",
"154 57 CURVE SMOOTH",
"198 276 LINE",
"356 276 LINE SMOOTH",
"505 276 OFFCURVE",
"576 365 OFFCURVE",
"601 488 CURVE SMOOTH",
"606 512 OFFCURVE",
"609 535 OFFCURVE",
"609 556 CURVE SMOOTH",
"609 644 OFFCURVE",
"563 700 OFFCURVE",
"443 700 CURVE SMOOTH",
"128 700 LINE",
"123 677 LINE",
"150 677 LINE SMOOTH",
"187 677 OFFCURVE",
"204 667 OFFCURVE",
"200 642 CURVE SMOOTH",
"81 57 LINE SMOOTH",
"75 32 OFFCURVE",
"54 22 OFFCURVE",
"16 22 CURVE SMOOTH",
"-11 22 LINE",
"-14 0 LINE"
);
},
{
closed = 1;
nodes = (
"277 665 LINE",
"424 665 LINE SMOOTH",
"504 665 OFFCURVE",
"538 621 OFFCURVE",
"538 552 CURVE SMOOTH",
"538 532 OFFCURVE",
"535 511 OFFCURVE",
"530 488 CURVE SMOOTH",
"509 383 OFFCURVE",
"454 311 OFFCURVE",
"352 311 CURVE SMOOTH",
"205 311 LINE"
);
}
);
width = 559;
}
);
note = P;
unicode = 0050;
},
{
glyphname = Thorn;
lastChange = "2015-10-21 17:12:07 +0000";
layers = (
{
layerId = "4BDFF818-6971-4FC7-918A-7FEEE3878A0A";
name = "Light Italic";
paths = (
{
closed = 1;
nodes = (
"227 0 LINE",
"230 22 LINE",
"203 22 LINE SMOOTH",
"171 22 OFFCURVE",
"153 30 OFFCURVE",
"153 49 CURVE SMOOTH",
"153 51 OFFCURVE",
"153 54 OFFCURVE",
"154 57 CURVE SMOOTH",
"175 163 LINE",
"333 163 LINE SMOOTH",
"482 163 OFFCURVE",
"553 252 OFFCURVE",
"578 375 CURVE SMOOTH",
"583 399 OFFCURVE",
"586 422 OFFCURVE",
"586 443 CURVE SMOOTH",
"586 531 OFFCURVE",
"540 587 OFFCURVE",
"420 587 CURVE SMOOTH",
"261 587 LINE",
"284 700 LINE",
"128 700 LINE",
"123 677 LINE",
"150 677 LINE SMOOTH",
"187 677 OFFCURVE",
"204 667 OFFCURVE",
"200 642 CURVE SMOOTH",
"81 57 LINE SMOOTH",
"75 32 OFFCURVE",
"54 22 OFFCURVE",
"16 22 CURVE SMOOTH",
"-11 22 LINE",
"-14 0 LINE"
);
},
{
closed = 1;
nodes = (
"254 552 LINE",
"401 552 LINE SMOOTH",
"481 552 OFFCURVE",
"515 508 OFFCURVE",
"515 439 CURVE SMOOTH",
"515 419 OFFCURVE",
"512 398 OFFCURVE",
"507 375 CURVE SMOOTH",
"486 270 OFFCURVE",
"431 198 OFFCURVE",
"329 198 CURVE SMOOTH",
"182 198 LINE"
);
}
);
width = 559;
}
);
note = Thorn;
unicode = 00DE;
},
{
glyphname = Q;
lastChange = "2015-12-01 09:30:34 +0000";
layers = (
{
layerId = "4BDFF818-6971-4FC7-918A-7FEEE3878A0A";
name = "Light Italic";
paths = (
{
closed = 1;
nodes = (
"518 -10 OFFCURVE",
"659 122 OFFCURVE",
"706 350 CURVE SMOOTH",
"713 390 OFFCURVE",
"718 427 OFFCURVE",
"718 461 CURVE SMOOTH",
"718 620 OFFCURVE",
"630 710 OFFCURVE",
"461 710 CURVE SMOOTH",
"255 710 OFFCURVE",
"115 577 OFFCURVE",
"69 350 CURVE SMOOTH",
"60 309 OFFCURVE",
"57 272 OFFCURVE",
"57 238 CURVE SMOOTH",
"57 79 OFFCURVE",
"145 -10 OFFCURVE",
"314 -10 CURVE SMOOTH"
);
},
{
closed = 1;
nodes = (
"190 26 OFFCURVE",
"130 108 OFFCURVE",
"130 238 CURVE SMOOTH",
"130 272 OFFCURVE",
"133 310 OFFCURVE",
"142 350 CURVE SMOOTH",
"181 543 OFFCURVE",
"288 674 OFFCURVE",
"453 674 CURVE SMOOTH",
"585 674 OFFCURVE",
"645 592 OFFCURVE",
"645 463 CURVE SMOOTH",
"645 428 OFFCURVE",
"641 391 OFFCURVE",
"633 350 CURVE SMOOTH",
"593 157 OFFCURVE",
"488 26 OFFCURVE",
"321 26 CURVE SMOOTH"
);
},
{
closed = 1;
nodes = (
"532 -159 OFFCURVE",
"588 -107 OFFCURVE",
"606 -49 CURVE",
"609 -42 OFFCURVE",
"610 -33 OFFCURVE",
"612 -26 CURVE",
"593 -26 LINE",
"569 -77 OFFCURVE",
"531 -109 OFFCURVE",
"487 -109 CURVE SMOOTH",
"404 -109 OFFCURVE",
"343 -34 OFFCURVE",
"264 -34 CURVE SMOOTH",
"252 -34 LINE",
"277 -17 OFFCURVE",
"296 -9 OFFCURVE",
"316 -1 CURVE",
"317 3 LINE",
"275 3 LINE",
"213 -20 OFFCURVE",
"169 -50 OFFCURVE",
"128 -81 CURVE",
"132 -95 LINE",
"169 -73 OFFCURVE",
"204 -60 OFFCURVE",
"231 -60 CURVE SMOOTH",
"304 -60 OFFCURVE",
"354 -159 OFFCURVE",
"460 -159 CURVE SMOOTH"
);
}
);
width = 709;
}
);
leftKerningGroup = O;
note = Q;
rightKerningGroup = O;
unicode = 0051;
},
{
glyphname = R;
lastChange = "2015-12-01 09:30:39 +0000";
layers = (
{
layerId = "4BDFF818-6971-4FC7-918A-7FEEE3878A0A";
name = "Light Italic";
paths = (
{
closed = 1;
nodes = (
"227 0 LINE",
"230 22 LINE",
"203 22 LINE SMOOTH",
"171 22 OFFCURVE",
"153 30 OFFCURVE",
"153 49 CURVE SMOOTH",
"153 51 OFFCURVE",
"153 54 OFFCURVE",
"154 57 CURVE SMOOTH",
"202 292 LINE",
"355 292 LINE SMOOTH",
"504 292 OFFCURVE",
"575 373 OFFCURVE",
"600 496 CURVE SMOOTH",
"605 519 OFFCURVE",
"607 540 OFFCURVE",
"607 560 CURVE SMOOTH",
"607 647 OFFCURVE",
"559 700 OFFCURVE",
"438 700 CURVE SMOOTH",
"128 700 LINE",
"123 677 LINE",
"150 677 LINE SMOOTH",
"187 677 OFFCURVE",
"204 667 OFFCURVE",
"200 642 CURVE SMOOTH",
"81 57 LINE SMOOTH",
"75 32 OFFCURVE",
"54 22 OFFCURVE",
"16 22 CURVE SMOOTH",
"-11 22 LINE",
"-14 0 LINE"
);
},
{
closed = 1;
nodes = (
"277 665 LINE",
"420 665 LINE SMOOTH",
"501 665 OFFCURVE",
"536 625 OFFCURVE",
"536 555 CURVE SMOOTH",
"536 537 OFFCURVE",
"533 517 OFFCURVE",
"529 496 CURVE SMOOTH",
"508 391 OFFCURVE",
"452 327 OFFCURVE",
"350 327 CURVE SMOOTH",
"208 327 LINE"
);
},
{
closed = 1;
nodes = (
"564 0 LINE",
"567 22 LINE",
"494 23 OFFCURVE",
"491 100 OFFCURVE",
"485 174 CURVE SMOOTH",
"482 228 OFFCURVE",
"466 284 OFFCURVE",
"422 305 CURVE",
"360 305 LINE",
"359 301 LINE",
"404 268 OFFCURVE",
"408 177 OFFCURVE",
"413 103 CURVE SMOOTH",
"418 41 OFFCURVE",
"441 0 OFFCURVE",
"499 0 CURVE SMOOTH"
);
}
);
width = 623;
}
);
note = R;
rightKerningGroup = R;
unicode = 0052;
},
{
glyphname = Racute;
lastChange = "2015-12-01 09:30:47 +0000";
layers = (
{
layerId = "4BDFF818-6971-4FC7-918A-7FEEE3878A0A";
name = "Light Italic";
paths = (
{
closed = 1;
nodes = (
"227 0 LINE",
"230 22 LINE",
"203 22 LINE SMOOTH",
"171 22 OFFCURVE",
"153 30 OFFCURVE",
"153 49 CURVE SMOOTH",
"153 51 OFFCURVE",
"153 54 OFFCURVE",
"154 57 CURVE SMOOTH",
"202 292 LINE",
"355 292 LINE SMOOTH",
"504 292 OFFCURVE",
"575 373 OFFCURVE",
"600 496 CURVE SMOOTH",
"605 519 OFFCURVE",
"607 540 OFFCURVE",
"607 560 CURVE SMOOTH",
"607 647 OFFCURVE",
"559 700 OFFCURVE",
"438 700 CURVE SMOOTH",
"128 700 LINE",
"123 677 LINE",
"150 677 LINE SMOOTH",
"187 677 OFFCURVE",
"204 667 OFFCURVE",
"200 642 CURVE SMOOTH",
"81 57 LINE SMOOTH",
"75 32 OFFCURVE",
"54 22 OFFCURVE",
"16 22 CURVE SMOOTH",
"-11 22 LINE",
"-14 0 LINE"
);
},
{
closed = 1;
nodes = (
"277 665 LINE",
"420 665 LINE SMOOTH",
"501 665 OFFCURVE",
"536 625 OFFCURVE",
"536 555 CURVE SMOOTH",
"536 537 OFFCURVE",
"533 517 OFFCURVE",
"529 496 CURVE SMOOTH",
"508 391 OFFCURVE",
"452 327 OFFCURVE",
"350 327 CURVE SMOOTH",
"208 327 LINE"
);
},
{
closed = 1;
nodes = (
"564 0 LINE",
"567 22 LINE",
"494 23 OFFCURVE",
"491 100 OFFCURVE",
"485 174 CURVE SMOOTH",
"482 228 OFFCURVE",
"466 284 OFFCURVE",
"422 305 CURVE",
"360 305 LINE",
"359 301 LINE",
"404 268 OFFCURVE",
"408 177 OFFCURVE",
"413 103 CURVE SMOOTH",
"418 41 OFFCURVE",
"441 0 OFFCURVE",
"499 0 CURVE SMOOTH"
);
},
{
closed = 1;
nodes = (
"513 863 LINE SMOOTH",
"532 873 OFFCURVE",
"544 885 OFFCURVE",
"547 899 CURVE",
"549 912 OFFCURVE",
"544 924 OFFCURVE",
"528 924 CURVE SMOOTH",
"512 924 OFFCURVE",
"494 911 OFFCURVE",
"486 904 CURVE SMOOTH",
"356 804 LINE",
"366 784 LINE"
);
}
);
width = 623;
}
);
note = Racute;
rightKerningGroup = R;
unicode = 0154;
},
{
glyphname = Rcaron;
lastChange = "2015-12-01 09:30:56 +0000";
layers = (
{
layerId = "4BDFF818-6971-4FC7-918A-7FEEE3878A0A";
name = "Light Italic";
paths = (
{
closed = 1;
nodes = (
"227 0 LINE",
"230 22 LINE",
"203 22 LINE SMOOTH",
"171 22 OFFCURVE",
"153 30 OFFCURVE",
"153 49 CURVE SMOOTH",
"153 51 OFFCURVE",
"153 54 OFFCURVE",
"154 57 CURVE SMOOTH",
"202 292 LINE",
"355 292 LINE SMOOTH",
"504 292 OFFCURVE",
"575 373 OFFCURVE",
"600 496 CURVE SMOOTH",
"605 519 OFFCURVE",
"607 540 OFFCURVE",
"607 560 CURVE SMOOTH",
"607 647 OFFCURVE",
"559 700 OFFCURVE",
"438 700 CURVE SMOOTH",
"128 700 LINE",
"123 677 LINE",
"150 677 LINE SMOOTH",
"187 677 OFFCURVE",
"204 667 OFFCURVE",
"200 642 CURVE SMOOTH",
"81 57 LINE SMOOTH",
"75 32 OFFCURVE",
"54 22 OFFCURVE",
"16 22 CURVE SMOOTH",
"-11 22 LINE",
"-14 0 LINE"
);
},
{
closed = 1;
nodes = (
"277 665 LINE",
"420 665 LINE SMOOTH",
"501 665 OFFCURVE",
"536 625 OFFCURVE",
"536 555 CURVE SMOOTH",
"536 537 OFFCURVE",
"533 517 OFFCURVE",
"529 496 CURVE SMOOTH",
"508 391 OFFCURVE",
"452 327 OFFCURVE",
"350 327 CURVE SMOOTH",
"208 327 LINE"
);
},
{
closed = 1;
nodes = (
"564 0 LINE",
"567 22 LINE",
"494 23 OFFCURVE",
"491 100 OFFCURVE",
"485 174 CURVE SMOOTH",
"482 228 OFFCURVE",
"466 284 OFFCURVE",
"422 305 CURVE",
"360 305 LINE",
"359 301 LINE",
"404 268 OFFCURVE",
"408 177 OFFCURVE",
"413 103 CURVE SMOOTH",
"418 41 OFFCURVE",
"441 0 OFFCURVE",
"499 0 CURVE SMOOTH"
);
},
{
closed = 1;
nodes = (
"457 784 LINE",
"593 902 LINE",
"580 921 LINE",
"467 839 LINE",
"459 834 OFFCURVE",
"451 830 OFFCURVE",
"446 830 CURVE SMOOTH",
"442 830 OFFCURVE",
"436 832 OFFCURVE",
"429 839 CURVE SMOOTH",
"348 921 LINE",
"328 902 LINE",
"416 784 LINE"
);
}
);
width = 623;
}
);
note = Rcaron;
rightKerningGroup = R;
unicode = 0158;
},
